<svg xmlns="http://www.w3.org/2000/svg" xmlns:xlink="http://www.w3.org/1999/xlink" width="500" zoomAndPan="magnify" viewBox="0 0 375 374.999991" height="500" preserveAspectRatio="xMidYMid meet" version="1.0"><defs><clipPath id="5557e8d25d"><path d="M 85 253 L 151 253 L 151 365.828125 L 85 365.828125 Z M 85 253 " clip-rule="nonzero"/></clipPath><clipPath id="4a32b35b4a"><path d="M 253 85 L 365.828125 85 L 365.828125 151 L 253 151 Z M 253 85 " clip-rule="nonzero"/></clipPath><clipPath id="f34133d9c3"><path d="M 8.828125 8.828125 L 290 8.828125 L 290 290 L 8.828125 290 Z M 8.828125 8.828125 " clip-rule="nonzero"/></clipPath></defs><g clip-path="url(#5557e8d25d)"><path fill="#ffffff" d="M 104.121094 366.15625 C 99.332031 366.15625 94.542969 364.335938 90.898438 360.695312 C 83.609375 353.398438 83.609375 341.535156 90.890625 334.242188 C 90.910156 334.222656 90.933594 334.199219 90.957031 334.179688 L 91.175781 333.964844 C 110.027344 315.089844 117.113281 287.222656 109.667969 261.230469 C 109.070312 259.144531 109.652344 256.902344 111.1875 255.371094 C 112.722656 253.839844 114.96875 253.265625 117.050781 253.871094 C 118.242188 254.214844 119.3125 254.546875 120.324219 254.875 C 127.765625 257.332031 135.492188 258.898438 143.308594 259.535156 C 146.042969 259.757812 148.273438 261.824219 148.707031 264.535156 C 150.992188 278.875 150.457031 293.328125 147.117188 307.484375 C 142.382812 327.535156 132.1875 345.835938 117.625 360.40625 L 117.410156 360.628906 C 117.390625 360.652344 117.367188 360.671875 117.34375 360.695312 C 113.699219 364.335938 108.910156 366.15625 104.121094 366.15625 Z M 99.292969 342.683594 C 96.671875 345.339844 96.683594 349.632812 99.320312 352.273438 C 101.953125 354.902344 106.246094 354.914062 108.898438 352.296875 L 109.105469 352.082031 C 109.128906 352.058594 109.148438 352.039062 109.167969 352.015625 C 122.183594 339.003906 131.296875 322.65625 135.523438 304.75 C 138.15625 293.589844 138.835938 282.230469 137.554688 270.914062 C 132.78125 270.3125 128.046875 269.40625 123.394531 268.195312 C 127.726562 295.265625 119.035156 322.949219 99.570312 342.414062 C 99.546875 342.433594 99.527344 342.457031 99.507812 342.476562 Z M 99.292969 342.683594 " fill-opacity="1" fill-rule="nonzero"/></g><path fill="#ffffff" d="M 136.183594 244.753906 C 135.820312 244.753906 135.449219 244.71875 135.082031 244.648438 C 131.363281 243.949219 127.621094 242.984375 123.96875 241.78125 C 118.945312 240.125 113.769531 238.867188 108.574219 238.039062 C 105.859375 237.605469 103.796875 235.375 103.574219 232.636719 C 102.640625 221.078125 103.519531 209.488281 106.1875 198.191406 C 110.917969 178.128906 121.128906 159.820312 135.710938 145.238281 L 145.226562 135.722656 C 159.804688 121.140625 178.117188 110.933594 198.179688 106.199219 C 209.480469 103.53125 221.066406 102.652344 232.625 103.585938 C 235.363281 103.808594 237.59375 105.875 238.027344 108.585938 C 238.851562 113.78125 240.113281 118.957031 241.769531 123.972656 C 242.972656 127.632812 243.9375 131.375 244.636719 135.09375 C 245.003906 137.027344 244.386719 139.019531 242.992188 140.410156 C 241.601562 141.800781 239.609375 142.414062 237.675781 142.046875 C 213.523438 137.464844 188.851562 144.988281 171.667969 162.167969 L 162.15625 171.683594 C 144.972656 188.863281 137.453125 213.539062 142.035156 237.6875 C 142.402344 239.621094 141.789062 241.613281 140.398438 243.007812 C 139.269531 244.136719 137.75 244.753906 136.183594 244.753906 Z M 115.183594 227.136719 C 119.410156 228 123.601562 229.117188 127.695312 230.46875 C 128.164062 230.625 128.636719 230.773438 129.109375 230.917969 C 127.015625 205.863281 135.898438 181.097656 153.734375 163.261719 L 163.246094 153.746094 C 181.085938 135.910156 205.851562 127.019531 230.90625 129.117188 C 230.761719 128.644531 230.613281 128.171875 230.457031 127.703125 C 229.105469 123.609375 227.992188 119.421875 227.125 115.195312 C 218.320312 114.886719 209.523438 115.757812 200.914062 117.789062 C 183.007812 122.015625 166.664062 131.128906 153.648438 144.144531 L 144.132812 153.660156 C 131.117188 166.675781 122.003906 183.019531 117.78125 200.925781 C 115.75 209.53125 114.878906 218.328125 115.1875 227.136719 Z M 115.183594 227.136719 " fill-opacity="1" fill-rule="nonzero"/><g clip-path="url(#4a32b35b4a)"><path fill="#ffffff" d="M 282 150.109375 C 276.175781 150.109375 270.339844 149.644531 264.523438 148.71875 C 261.808594 148.285156 259.746094 146.054688 259.523438 143.320312 C 258.886719 135.503906 257.320312 127.773438 254.867188 120.34375 C 254.53125 119.320312 254.203125 118.253906 253.859375 117.0625 C 253.253906 114.980469 253.828125 112.734375 255.359375 111.199219 C 256.890625 109.664062 259.132812 109.078125 261.21875 109.679688 C 287.210938 117.125 315.078125 110.039062 333.953125 91.1875 L 334.167969 90.96875 C 334.1875 90.945312 334.210938 90.925781 334.230469 90.902344 C 341.523438 83.621094 353.386719 83.621094 360.675781 90.902344 C 364.214844 94.449219 366.15625 99.144531 366.15625 104.132812 C 366.15625 109.121094 364.214844 113.816406 360.6875 117.351562 C 360.664062 117.375 360.640625 117.398438 360.617188 117.421875 L 360.394531 117.636719 C 345.820312 132.199219 327.523438 142.398438 307.472656 147.128906 C 299.058594 149.113281 290.539062 150.109375 282 150.109375 Z M 270.902344 137.570312 C 282.21875 138.847656 293.582031 138.167969 304.742188 135.535156 C 322.648438 131.308594 338.992188 122.195312 352.003906 109.183594 C 352.027344 109.160156 352.046875 109.140625 352.066406 109.121094 L 352.28125 108.914062 C 353.546875 107.628906 354.242188 105.933594 354.242188 104.132812 C 354.242188 102.320312 353.535156 100.609375 352.253906 99.320312 C 349.621094 96.695312 345.328125 96.6875 342.675781 99.304688 L 342.464844 99.519531 C 342.445312 99.542969 342.425781 99.5625 342.40625 99.582031 C 326.226562 115.761719 304.363281 124.5 281.902344 124.5 C 277.339844 124.5 272.753906 124.140625 268.183594 123.410156 C 269.394531 128.058594 270.304688 132.792969 270.902344 137.570312 Z M 356.46875 113.148438 L 356.476562 113.148438 Z M 356.46875 113.148438 " fill-opacity="1" fill-rule="nonzero"/></g><g clip-path="url(#f34133d9c3)"><path fill="#ffffff" d="M 27.515625 289.550781 C 22.726562 289.550781 17.9375 287.730469 14.292969 284.089844 C 7.003906 276.792969 7.003906 264.929688 14.285156 257.636719 C 14.308594 257.617188 14.328125 257.59375 14.351562 257.574219 L 14.570312 257.359375 C 29.144531 242.796875 47.445312 232.597656 67.496094 227.863281 C 81.652344 224.523438 96.105469 223.992188 110.449219 226.277344 C 116.269531 227.203125 122.074219 228.613281 127.695312 230.46875 C 130.847656 231.507812 134.078125 232.339844 137.289062 232.945312 C 161.4375 237.53125 186.117188 230.007812 203.300781 212.828125 L 212.8125 203.3125 C 229.996094 186.132812 237.515625 161.457031 232.933594 137.308594 C 232.328125 134.089844 231.496094 130.863281 230.457031 127.703125 C 228.601562 122.085938 227.191406 116.285156 226.261719 110.460938 C 223.980469 96.117188 224.511719 81.667969 227.851562 67.507812 C 232.585938 47.457031 242.785156 29.160156 257.34375 14.585938 L 257.5625 14.363281 C 257.582031 14.339844 257.605469 14.320312 257.628906 14.296875 C 261.164062 10.769531 265.859375 8.828125 270.851562 8.828125 C 275.839844 8.828125 280.535156 10.769531 284.070312 14.296875 C 291.359375 21.597656 291.359375 33.460938 284.078125 40.753906 C 284.058594 40.773438 284.035156 40.796875 284.015625 40.816406 L 283.792969 41.03125 C 264.941406 59.90625 257.855469 87.773438 265.304688 113.765625 C 265.605469 114.800781 265.894531 115.746094 266.183594 116.625 C 268.929688 124.9375 270.683594 133.597656 271.394531 142.355469 C 272.328125 153.917969 271.453125 165.507812 268.785156 176.804688 C 264.050781 196.867188 253.84375 215.175781 239.261719 229.757812 L 229.746094 239.273438 C 215.164062 253.855469 196.855469 264.0625 176.792969 268.796875 C 165.496094 271.464844 153.90625 272.34375 142.347656 271.410156 C 133.585938 270.695312 124.925781 268.941406 116.597656 266.191406 C 115.730469 265.90625 114.789062 265.617188 113.730469 265.3125 C 87.757812 257.871094 59.890625 264.957031 41.019531 283.804688 L 40.804688 284.027344 C 40.78125 284.050781 40.761719 284.070312 40.738281 284.09375 C 37.09375 287.734375 32.304688 289.550781 27.515625 289.550781 Z M 22.6875 266.082031 C 20.066406 268.734375 20.078125 273.027344 22.714844 275.667969 C 25.351562 278.300781 29.644531 278.308594 32.296875 275.6875 L 32.503906 275.472656 C 32.523438 275.453125 32.546875 275.433594 32.566406 275.410156 C 54.5 253.476562 86.867188 245.21875 117.03125 253.863281 C 118.242188 254.214844 119.3125 254.542969 120.324219 254.875 C 127.765625 257.332031 135.492188 258.898438 143.308594 259.535156 C 153.621094 260.367188 163.96875 259.582031 174.058594 257.203125 C 191.964844 252.976562 208.308594 243.863281 221.324219 230.847656 L 230.839844 221.332031 C 243.851562 208.316406 252.964844 191.972656 257.191406 174.066406 C 259.570312 163.980469 260.355469 153.632812 259.523438 143.316406 C 258.886719 135.503906 257.320312 127.773438 254.867188 120.34375 C 254.53125 119.320312 254.203125 118.25 253.859375 117.0625 C 245.210938 86.878906 253.464844 54.511719 275.402344 32.578125 C 275.421875 32.554688 275.441406 32.535156 275.460938 32.515625 L 275.675781 32.308594 C 278.296875 29.652344 278.289062 25.363281 275.652344 22.71875 C 274.371094 21.445312 272.664062 20.738281 270.851562 20.738281 C 269.050781 20.738281 267.351562 21.433594 266.066406 22.703125 L 265.859375 22.914062 C 265.84375 22.933594 265.820312 22.957031 265.800781 22.976562 C 252.789062 35.988281 243.675781 52.332031 239.445312 70.242188 C 236.464844 82.882812 235.988281 95.78125 238.027344 108.585938 C 238.855469 113.78125 240.113281 118.957031 241.769531 123.972656 C 242.972656 127.632812 243.9375 131.371094 244.640625 135.09375 C 249.957031 163.109375 241.207031 191.765625 221.234375 211.734375 L 211.722656 221.246094 C 191.75 241.21875 163.097656 249.964844 135.074219 244.648438 C 131.363281 243.949219 127.621094 242.984375 123.96875 241.78125 C 118.945312 240.125 113.769531 238.867188 108.574219 238.039062 C 95.773438 236 82.871094 236.476562 70.230469 239.457031 C 52.324219 243.683594 35.976562 252.796875 22.964844 265.8125 C 22.945312 265.832031 22.921875 265.851562 22.902344 265.871094 Z M 279.863281 36.542969 L 279.871094 36.542969 Z M 279.863281 36.542969 " fill-opacity="1" fill-rule="nonzero"/></g><path fill="#ffffff" d="M 338.441406 101.074219 C 336.917969 101.074219 335.394531 100.496094 334.230469 99.332031 L 275.648438 40.75 C 273.324219 38.425781 273.324219 34.65625 275.648438 32.328125 C 277.976562 30.003906 281.746094 30.003906 284.074219 32.328125 L 342.652344 90.910156 C 344.976562 93.234375 344.976562 97.007812 342.652344 99.332031 C 341.488281 100.496094 339.964844 101.074219 338.441406 101.074219 Z M 338.441406 101.074219 " fill-opacity="1" fill-rule="nonzero"/><path fill="#ffffff" d="M 311.269531 118.964844 C 309.746094 118.964844 308.222656 118.382812 307.058594 117.222656 L 257.761719 67.925781 C 255.433594 65.597656 255.433594 61.828125 257.761719 59.5 C 260.085938 57.175781 263.859375 57.175781 266.183594 59.5 L 315.480469 108.800781 C 317.804688 111.125 317.804688 114.894531 315.480469 117.222656 C 314.316406 118.382812 312.792969 118.964844 311.269531 118.964844 Z M 311.269531 118.964844 " fill-opacity="1" fill-rule="nonzero"/><path fill="#ffffff" d="M 95.109375 344.410156 C 93.585938 344.410156 92.0625 343.828125 90.898438 342.664062 L 32.316406 284.085938 C 29.992188 281.757812 29.992188 277.988281 32.316406 275.664062 C 34.644531 273.335938 38.414062 273.335938 40.742188 275.664062 L 99.320312 334.242188 C 101.644531 336.566406 101.644531 340.339844 99.320312 342.664062 C 98.15625 343.828125 96.632812 344.410156 95.109375 344.410156 Z M 95.109375 344.410156 " fill-opacity="1" fill-rule="nonzero"/><path fill="#ffffff" d="M 112.996094 317.234375 C 111.472656 317.234375 109.949219 316.65625 108.785156 315.492188 L 59.488281 266.195312 C 57.164062 263.867188 57.164062 260.097656 59.488281 257.773438 C 61.816406 255.445312 65.585938 255.445312 67.910156 257.773438 L 117.210938 307.070312 C 119.535156 309.394531 119.535156 313.167969 117.210938 315.492188 C 116.046875 316.65625 114.523438 317.234375 112.996094 317.234375 Z M 112.996094 317.234375 " fill-opacity="1" fill-rule="nonzero"/><path fill="#ffffff" d="M 212.269531 218.234375 C 210.746094 218.234375 209.21875 217.65625 208.058594 216.492188 L 158.488281 166.925781 C 156.164062 164.597656 156.164062 160.828125 158.488281 158.503906 C 160.816406 156.175781 164.585938 156.175781 166.914062 158.503906 L 216.480469 208.070312 C 218.804688 210.394531 218.804688 214.164062 216.480469 216.492188 C 215.316406 217.65625 213.792969 218.234375 212.269531 218.234375 Z M 212.269531 218.234375 " fill-opacity="1" fill-rule="nonzero"/><path fill="#ffffff" d="M 231.894531 192.800781 C 230.367188 192.800781 228.84375 192.21875 227.679688 191.054688 L 183.925781 147.300781 C 181.601562 144.972656 181.601562 141.203125 183.925781 138.878906 C 186.253906 136.550781 190.027344 136.550781 192.351562 138.878906 L 236.105469 182.632812 C 238.429688 184.957031 238.429688 188.730469 236.105469 191.054688 C 234.941406 192.21875 233.417969 192.800781 231.894531 192.800781 Z M 231.894531 192.800781 " fill-opacity="1" fill-rule="nonzero"/><path fill="#ffffff" d="M 186.832031 237.859375 C 185.308594 237.859375 183.78125 237.277344 182.621094 236.117188 L 138.867188 192.363281 C 136.539062 190.035156 136.539062 186.265625 138.867188 183.941406 C 141.195312 181.613281 144.964844 181.613281 147.289062 183.941406 L 191.042969 227.695312 C 193.367188 230.019531 193.367188 233.789062 191.042969 236.117188 C 189.878906 237.277344 188.355469 237.859375 186.832031 237.859375 Z M 186.832031 237.859375 " fill-opacity="1" fill-rule="nonzero"/></svg>