<svg xmlns="http://www.w3.org/2000/svg" xmlns:xlink="http://www.w3.org/1999/xlink" width="1366" zoomAndPan="magnify" viewBox="0 0 1024.5 576" height="768" preserveAspectRatio="xMidYMid meet" version="1.0"><defs><clipPath id="f73d3582f2"><path d="M 0 0.140625 L 1024 0.140625 L 1024 575.859375 L 0 575.859375 Z M 0 0.140625 " clip-rule="nonzero"/></clipPath><clipPath id="08b94dea09"><path d="M 291.945312 57.710938 L 732.054688 57.710938 L 732.054688 497.824219 L 291.945312 497.824219 Z M 291.945312 57.710938 " clip-rule="nonzero"/></clipPath><clipPath id="e87f0cfd0b"><path d="M 512 57.710938 C 390.464844 57.710938 291.945312 156.234375 291.945312 277.769531 C 291.945312 399.300781 390.464844 497.824219 512 497.824219 C 633.535156 497.824219 732.054688 399.300781 732.054688 277.769531 C 732.054688 156.234375 633.535156 57.710938 512 57.710938 Z M 512 57.710938 " clip-rule="nonzero"/></clipPath><clipPath id="02d6e73261"><path d="M 0.945312 0.710938 L 441.054688 0.710938 L 441.054688 440.824219 L 0.945312 440.824219 Z M 0.945312 0.710938 " clip-rule="nonzero"/></clipPath><clipPath id="5199e0d58e"><path d="M 221 0.710938 C 99.464844 0.710938 0.945312 99.234375 0.945312 220.769531 C 0.945312 342.300781 99.464844 440.824219 221 440.824219 C 342.535156 440.824219 441.054688 342.300781 441.054688 220.769531 C 441.054688 99.234375 342.535156 0.710938 221 0.710938 Z M 221 0.710938 " clip-rule="nonzero"/></clipPath><clipPath id="a6547314ef"><rect x="0" width="442" y="0" height="441"/></clipPath><clipPath id="febde50961"><path d="M 299.105469 64.875 L 724.894531 64.875 L 724.894531 490.660156 L 299.105469 490.660156 Z M 299.105469 64.875 " clip-rule="nonzero"/></clipPath><clipPath id="20445d9b04"><path d="M 512 64.875 C 394.421875 64.875 299.105469 160.191406 299.105469 277.769531 C 299.105469 395.347656 394.421875 490.660156 512 490.660156 C 629.578125 490.660156 724.894531 395.347656 724.894531 277.769531 C 724.894531 160.191406 629.578125 64.875 512 64.875 Z M 512 64.875 " clip-rule="nonzero"/></clipPath><clipPath id="96eb4263c4"><path d="M 0.105469 0.875 L 425.894531 0.875 L 425.894531 426.660156 L 0.105469 426.660156 Z M 0.105469 0.875 " clip-rule="nonzero"/></clipPath><clipPath id="d04e2311fe"><path d="M 213 0.875 C 95.421875 0.875 0.105469 96.191406 0.105469 213.769531 C 0.105469 331.347656 95.421875 426.660156 213 426.660156 C 330.578125 426.660156 425.894531 331.347656 425.894531 213.769531 C 425.894531 96.191406 330.578125 0.875 213 0.875 Z M 213 0.875 " clip-rule="nonzero"/></clipPath><clipPath id="6244d5b6c4"><rect x="0" width="426" y="0" height="427"/></clipPath><clipPath id="f980511857"><path d="M 357.976562 119.964844 L 693.8125 119.964844 L 693.8125 413.820312 L 357.976562 413.820312 Z M 357.976562 119.964844 " clip-rule="nonzero"/></clipPath></defs><g clip-path="url(#f73d3582f2)"><path fill="#ffffff" d="M 0 0.140625 L 1024 0.140625 L 1024 575.859375 L 0 575.859375 Z M 0 0.140625 " fill-opacity="1" fill-rule="nonzero"/></g><g clip-path="url(#08b94dea09)"><g clip-path="url(#e87f0cfd0b)"><g transform="matrix(1, 0, 0, 1, 291, 57)"><g clip-path="url(#a6547314ef)"><g clip-path="url(#02d6e73261)"><g clip-path="url(#5199e0d58e)"><path fill="#975ab6" d="M 0.945312 0.710938 L 441.054688 0.710938 L 441.054688 440.824219 L 0.945312 440.824219 Z M 0.945312 0.710938 " fill-opacity="1" fill-rule="nonzero"/></g></g></g></g></g></g><g clip-path="url(#febde50961)"><g clip-path="url(#20445d9b04)"><g transform="matrix(1, 0, 0, 1, 299, 64)"><g clip-path="url(#6244d5b6c4)"><g clip-path="url(#96eb4263c4)"><g clip-path="url(#d04e2311fe)"><path fill="#ffffff" d="M 0.105469 0.875 L 425.894531 0.875 L 425.894531 426.660156 L 0.105469 426.660156 Z M 0.105469 0.875 " fill-opacity="1" fill-rule="nonzero"/></g></g></g></g></g></g><g clip-path="url(#f980511857)"><path fill="#975ab6" d="M 689.878906 272.792969 L 673.863281 272.792969 C 671.722656 267.152344 668.6875 261.925781 664.808594 257.191406 L 672.839844 243.285156 C 673.898438 241.527344 673.238281 239.0625 671.445312 238.070312 C 671.445312 238.070312 643.457031 221.914062 643.457031 221.914062 C 641.695312 220.855469 639.238281 221.515625 638.246094 223.3125 C 638.246094 223.3125 630.242188 237.175781 630.242188 237.175781 C 624.230469 236.195312 618.1875 236.195312 612.175781 237.175781 C 611.953125 236.964844 603.484375 221.636719 603.277344 222.292969 L 603.277344 207.714844 C 603.277344 205.605469 601.570312 203.902344 599.460938 203.902344 C 594.710938 203.898438 560.15625 203.902344 556.355469 203.902344 L 556.355469 123.785156 C 556.355469 121.679688 554.648438 119.972656 552.539062 119.972656 C 524.457031 119.976562 485.226562 119.96875 457.164062 119.972656 C 455.058594 119.972656 453.351562 121.679688 453.351562 123.785156 L 453.351562 203.902344 C 447.011719 203.90625 415.71875 203.898438 408.71875 203.902344 C 406.613281 203.902344 404.902344 205.605469 404.902344 207.714844 L 404.902344 287.828125 C 399.78125 287.871094 367.671875 287.800781 361.792969 287.828125 C 359.683594 287.828125 357.976562 289.535156 357.976562 291.644531 C 357.976562 316.375 357.976562 386.304688 357.976562 409.910156 C 357.976562 412.015625 359.683594 413.722656 361.792969 413.722656 L 384.679688 413.722656 C 386.789062 413.722656 388.496094 412.015625 388.496094 409.910156 L 388.496094 394.648438 L 489.59375 394.648438 L 489.59375 409.910156 C 489.59375 412.015625 491.300781 413.722656 493.40625 413.722656 L 516.296875 413.722656 C 518.402344 413.722656 520.113281 412.015625 520.113281 409.910156 L 520.113281 394.648438 L 621.207031 394.648438 L 621.207031 409.910156 C 621.207031 412.015625 622.914062 413.722656 625.023438 413.722656 L 647.914062 413.722656 C 650.023438 413.722656 651.726562 412.015625 651.726562 409.910156 C 651.722656 394.769531 651.730469 373.957031 651.726562 358.84375 L 671.445312 347.460938 C 673.238281 346.46875 673.898438 344.003906 672.839844 342.25 C 672.839844 342.25 664.808594 328.335938 664.808594 328.335938 C 668.6875 323.605469 671.722656 318.378906 673.863281 312.738281 L 689.878906 312.738281 C 691.984375 312.738281 693.691406 311.03125 693.691406 308.925781 L 693.691406 276.609375 C 693.691406 274.5 691.988281 272.792969 689.878906 272.792969 Z M 595.648438 223.828125 L 570.972656 238.070312 C 569.179688 239.0625 568.515625 241.527344 569.578125 243.285156 C 569.578125 243.285156 577.609375 257.191406 577.609375 257.191406 C 573.730469 261.925781 570.695312 267.152344 568.554688 272.792969 L 552.539062 272.792969 C 550.429688 272.792969 548.722656 274.5 548.722656 276.609375 L 548.722656 287.832031 L 507.90625 287.832031 L 507.90625 211.53125 L 535.140625 211.53125 L 535.140625 236.328125 C 535.070312 238.90625 537.886719 240.867188 540.285156 239.90625 C 540.285156 239.90625 551.019531 235.914062 551.019531 235.914062 L 561.757812 239.90625 C 564.140625 240.871094 566.976562 238.90625 566.902344 236.328125 C 566.902344 236.328125 566.902344 211.53125 566.902344 211.53125 L 595.648438 211.53125 Z M 644.097656 387.019531 L 365.605469 387.019531 L 365.605469 379.390625 L 644.097656 379.390625 Z M 460.980469 371.757812 L 460.980469 295.460938 L 488.210938 295.460938 L 488.210938 320.257812 C 488.140625 322.832031 490.960938 324.796875 493.355469 323.832031 C 493.355469 323.832031 504.09375 319.84375 504.09375 319.84375 L 514.828125 323.832031 C 517.214844 324.800781 520.046875 322.832031 519.972656 320.257812 C 519.972656 320.257812 519.972656 295.460938 519.972656 295.460938 L 548.722656 295.460938 L 548.722656 371.757812 Z M 504.089844 295.460938 C 504.089844 295.460938 512.339844 295.460938 512.34375 295.460938 L 512.34375 314.769531 C 511.363281 314.496094 505.003906 311.796875 504.09375 311.960938 C 503.210938 311.789062 496.78125 314.511719 495.84375 314.769531 L 495.84375 295.460938 Z M 559.273438 230.839844 C 558.292969 230.570312 551.933594 227.867188 551.019531 228.03125 C 550.132812 227.859375 543.710938 230.582031 542.769531 230.839844 L 542.769531 211.53125 L 559.273438 211.53125 Z M 512.34375 127.601562 L 512.34375 146.910156 C 511.363281 146.640625 505.003906 143.941406 504.09375 144.101562 C 503.210938 143.933594 496.78125 146.652344 495.84375 146.910156 L 495.84375 127.601562 Z M 460.980469 127.601562 L 488.210938 127.601562 L 488.210938 152.398438 C 488.140625 154.976562 490.960938 156.9375 493.355469 155.976562 C 493.355469 155.976562 504.09375 151.984375 504.09375 151.984375 L 514.828125 155.976562 C 517.214844 156.941406 520.046875 154.976562 519.972656 152.398438 C 519.972656 152.398438 519.972656 127.601562 519.972656 127.601562 L 548.722656 127.601562 L 548.722656 203.902344 L 460.980469 203.902344 Z M 457.164062 211.53125 L 463.898438 211.53125 L 463.898438 230.839844 C 462.917969 230.570312 456.558594 227.871094 455.648438 228.03125 C 454.765625 227.859375 448.335938 230.582031 447.398438 230.839844 L 447.398438 211.53125 Z M 412.535156 211.53125 L 439.765625 211.53125 L 439.765625 236.328125 C 439.695312 238.902344 442.519531 240.867188 444.910156 239.90625 C 444.910156 239.90625 455.648438 235.914062 455.648438 235.914062 L 466.382812 239.90625 C 468.769531 240.871094 471.601562 238.902344 471.527344 236.328125 C 471.527344 236.328125 471.527344 211.53125 471.527344 211.53125 L 500.273438 211.53125 L 500.273438 287.832031 L 412.535156 287.832031 Z M 408.71875 295.460938 L 416.96875 295.460938 L 416.96875 314.769531 C 415.992188 314.496094 409.628906 311.796875 408.71875 311.960938 C 407.835938 311.789062 401.410156 314.511719 400.46875 314.769531 L 400.46875 295.460938 Z M 365.605469 295.460938 L 392.839844 295.460938 L 392.839844 320.257812 C 392.765625 322.832031 395.585938 324.796875 397.980469 323.832031 C 397.980469 323.832031 408.71875 319.84375 408.71875 319.84375 L 419.457031 323.832031 C 421.839844 324.800781 424.675781 322.832031 424.597656 320.257812 C 424.597656 320.257812 424.597656 295.460938 424.597656 295.460938 L 453.351562 295.460938 L 453.351562 371.757812 L 365.605469 371.757812 Z M 380.867188 406.09375 L 365.605469 406.09375 L 365.605469 394.648438 L 380.867188 394.648438 Z M 512.480469 406.09375 L 497.222656 406.09375 L 497.222656 394.648438 L 512.480469 394.648438 Z M 644.097656 406.09375 L 628.839844 406.09375 L 628.839844 394.648438 L 644.097656 394.648438 Z M 644.097656 371.757812 L 556.355469 371.757812 L 556.355469 312.738281 L 568.554688 312.738281 C 570.695312 318.378906 573.730469 323.605469 577.609375 328.335938 L 569.578125 342.25 C 568.519531 344.003906 569.179688 346.46875 570.972656 347.460938 C 570.972656 347.460938 598.960938 363.617188 598.960938 363.617188 C 600.71875 364.671875 603.179688 364.019531 604.171875 362.222656 C 604.171875 362.222656 612.175781 348.355469 612.175781 348.355469 C 618.1875 349.339844 624.230469 349.339844 630.242188 348.355469 L 638.246094 362.222656 C 639.402344 364.324219 642.261719 364.664062 644.097656 363.25 Z M 686.0625 305.109375 L 671.160156 305.109375 C 669.507812 305.109375 668.039062 306.175781 667.53125 307.75 C 665.429688 314.25 661.996094 320.171875 657.320312 325.347656 C 656.210938 326.570312 656.019531 328.375 656.847656 329.808594 L 664.324219 342.757812 L 642.945312 355.101562 L 635.5 342.199219 C 634.808594 341.003906 633.539062 340.292969 632.195312 340.292969 C 625.160156 341.652344 618.054688 341.953125 611.019531 340.378906 C 609.386719 340.019531 607.75 340.769531 606.917969 342.199219 L 599.46875 355.101562 L 578.09375 342.757812 L 585.570312 329.808594 C 586.398438 328.375 586.207031 326.570312 585.097656 325.347656 C 580.421875 320.171875 576.988281 314.25 574.886719 307.75 C 574.378906 306.175781 572.910156 305.109375 571.257812 305.109375 L 556.355469 305.109375 L 556.355469 280.421875 L 571.257812 280.421875 C 572.910156 280.421875 574.378906 279.359375 574.886719 277.78125 C 576.988281 271.285156 580.421875 265.359375 585.097656 260.183594 C 586.207031 258.953125 586.398438 257.152344 585.570312 255.71875 L 578.09375 242.773438 L 599.46875 230.429688 L 606.917969 243.332031 C 607.746094 244.761719 609.378906 245.511719 611.019531 245.152344 C 617.777344 243.714844 624.640625 243.714844 631.398438 245.152344 C 633.03125 245.519531 634.667969 244.761719 635.5 243.332031 L 642.945312 230.429688 L 664.324219 242.773438 L 656.847656 255.71875 C 656.019531 257.152344 656.210938 258.953125 657.320312 260.183594 C 661.996094 265.359375 665.429688 271.285156 667.53125 277.78125 C 668.039062 279.359375 669.507812 280.421875 671.160156 280.421875 L 686.0625 280.421875 Z M 686.0625 305.109375 " fill-opacity="1" fill-rule="nonzero"/></g><path fill="#975ab6" d="M 635.480469 267.097656 C 621.453125 258.996094 603.460938 263.828125 595.363281 277.84375 C 582.269531 300.191406 603.488281 327.804688 628.398438 320.894531 C 653.429688 314.457031 657.996094 279.792969 635.480469 267.097656 Z M 639.621094 303.394531 C 624.507812 327.855469 588.355469 306.96875 601.972656 281.660156 C 617.148438 257.234375 653.226562 278.105469 639.621094 303.394531 Z M 639.621094 303.394531 " fill-opacity="1" fill-rule="nonzero"/></svg>