<svg xmlns="http://www.w3.org/2000/svg" xmlns:xlink="http://www.w3.org/1999/xlink" width="1366" zoomAndPan="magnify" viewBox="0 0 1024.5 576" height="768" preserveAspectRatio="xMidYMid meet" version="1.0"><defs><clipPath id="f1a3806472"><path d="M 0 0.140625 L 1024 0.140625 L 1024 575.859375 L 0 575.859375 Z M 0 0.140625 " clip-rule="nonzero"/></clipPath><clipPath id="b963ef2b27"><path d="M 291.945312 57.710938 L 732.054688 57.710938 L 732.054688 497.824219 L 291.945312 497.824219 Z M 291.945312 57.710938 " clip-rule="nonzero"/></clipPath><clipPath id="ae213e9013"><path d="M 512 57.710938 C 390.464844 57.710938 291.945312 156.234375 291.945312 277.769531 C 291.945312 399.300781 390.464844 497.824219 512 497.824219 C 633.535156 497.824219 732.054688 399.300781 732.054688 277.769531 C 732.054688 156.234375 633.535156 57.710938 512 57.710938 Z M 512 57.710938 " clip-rule="nonzero"/></clipPath><clipPath id="804172116d"><path d="M 0.945312 0.710938 L 441.054688 0.710938 L 441.054688 440.824219 L 0.945312 440.824219 Z M 0.945312 0.710938 " clip-rule="nonzero"/></clipPath><clipPath id="4e3afb285d"><path d="M 221 0.710938 C 99.464844 0.710938 0.945312 99.234375 0.945312 220.769531 C 0.945312 342.300781 99.464844 440.824219 221 440.824219 C 342.535156 440.824219 441.054688 342.300781 441.054688 220.769531 C 441.054688 99.234375 342.535156 0.710938 221 0.710938 Z M 221 0.710938 " clip-rule="nonzero"/></clipPath><clipPath id="3f830acd35"><rect x="0" width="442" y="0" height="441"/></clipPath><clipPath id="bb01c2e4ca"><path d="M 299.105469 64.875 L 724.894531 64.875 L 724.894531 490.660156 L 299.105469 490.660156 Z M 299.105469 64.875 " clip-rule="nonzero"/></clipPath><clipPath id="b14302d18e"><path d="M 512 64.875 C 394.421875 64.875 299.105469 160.191406 299.105469 277.769531 C 299.105469 395.347656 394.421875 490.660156 512 490.660156 C 629.578125 490.660156 724.894531 395.347656 724.894531 277.769531 C 724.894531 160.191406 629.578125 64.875 512 64.875 Z M 512 64.875 " clip-rule="nonzero"/></clipPath><clipPath id="f4f5ae7352"><path d="M 0.105469 0.875 L 425.894531 0.875 L 425.894531 426.660156 L 0.105469 426.660156 Z M 0.105469 0.875 " clip-rule="nonzero"/></clipPath><clipPath id="116972c084"><path d="M 213 0.875 C 95.421875 0.875 0.105469 96.191406 0.105469 213.769531 C 0.105469 331.347656 95.421875 426.660156 213 426.660156 C 330.578125 426.660156 425.894531 331.347656 425.894531 213.769531 C 425.894531 96.191406 330.578125 0.875 213 0.875 Z M 213 0.875 " clip-rule="nonzero"/></clipPath><clipPath id="1d85a7963f"><rect x="0" width="426" y="0" height="427"/></clipPath><clipPath id="9f4d6ab1a0"><path d="M 369.636719 134.65625 L 656 134.65625 L 656 421 L 369.636719 421 Z M 369.636719 134.65625 " clip-rule="nonzero"/></clipPath></defs><g clip-path="url(#f1a3806472)"><path fill="#ffffff" d="M 0 0.140625 L 1024 0.140625 L 1024 575.859375 L 0 575.859375 Z M 0 0.140625 " fill-opacity="1" fill-rule="nonzero"/></g><g clip-path="url(#b963ef2b27)"><g clip-path="url(#ae213e9013)"><g transform="matrix(1, 0, 0, 1, 291, 57)"><g clip-path="url(#3f830acd35)"><g clip-path="url(#804172116d)"><g clip-path="url(#4e3afb285d)"><path fill="#975ab6" d="M 0.945312 0.710938 L 441.054688 0.710938 L 441.054688 440.824219 L 0.945312 440.824219 Z M 0.945312 0.710938 " fill-opacity="1" fill-rule="nonzero"/></g></g></g></g></g></g><g clip-path="url(#bb01c2e4ca)"><g clip-path="url(#b14302d18e)"><g transform="matrix(1, 0, 0, 1, 299, 64)"><g clip-path="url(#1d85a7963f)"><g clip-path="url(#f4f5ae7352)"><g clip-path="url(#116972c084)"><path fill="#ffffff" d="M 0.105469 0.875 L 425.894531 0.875 L 425.894531 426.660156 L 0.105469 426.660156 Z M 0.105469 0.875 " fill-opacity="1" fill-rule="nonzero"/></g></g></g></g></g></g><g clip-path="url(#9f4d6ab1a0)"><path fill="#975ab6" d="M 469.609375 281.78125 C 491.699219 281.78125 509.671875 263.8125 509.671875 241.722656 C 509.671875 219.632812 491.699219 201.664062 469.609375 201.664062 C 447.523438 201.664062 429.550781 219.632812 429.550781 241.722656 C 429.550781 263.8125 447.523438 281.78125 469.609375 281.78125 Z M 469.609375 209.773438 C 487.226562 209.773438 501.558594 224.105469 501.558594 241.722656 C 501.558594 259.339844 487.226562 273.671875 469.609375 273.671875 C 451.996094 273.671875 437.664062 259.339844 437.664062 241.722656 C 437.664062 224.105469 451.996094 209.773438 469.609375 209.773438 Z M 457.578125 253.757812 L 457.578125 262.339844 C 457.578125 264.578125 459.394531 266.394531 461.632812 266.394531 L 477.589844 266.394531 C 479.828125 266.394531 481.644531 264.578125 481.644531 262.339844 L 481.644531 253.757812 L 490.226562 253.757812 C 492.464844 253.757812 494.28125 251.941406 494.28125 249.699219 L 494.28125 233.746094 C 494.28125 231.503906 492.464844 229.6875 490.226562 229.6875 L 481.644531 229.6875 L 481.644531 221.109375 C 481.644531 218.867188 479.828125 217.050781 477.589844 217.050781 L 461.632812 217.050781 C 459.394531 217.050781 457.578125 218.867188 457.578125 221.109375 L 457.578125 229.6875 L 448.996094 229.6875 C 446.753906 229.6875 444.941406 231.503906 444.941406 233.746094 L 444.941406 249.699219 C 444.941406 251.941406 446.753906 253.757812 448.996094 253.757812 Z M 453.050781 237.800781 L 461.632812 237.800781 C 463.875 237.800781 465.6875 235.984375 465.6875 233.746094 L 465.6875 225.164062 L 473.535156 225.164062 L 473.535156 233.746094 C 473.535156 235.984375 475.347656 237.800781 477.589844 237.800781 L 486.171875 237.800781 L 486.171875 245.644531 L 477.589844 245.644531 C 475.347656 245.644531 473.535156 247.460938 473.535156 249.699219 L 473.535156 258.28125 L 465.6875 258.28125 L 465.6875 249.699219 C 465.6875 247.460938 463.875 245.644531 461.632812 245.644531 L 453.050781 245.644531 Z M 415.726562 313.238281 L 434.144531 313.238281 C 436.382812 313.238281 438.199219 311.421875 438.199219 309.179688 L 438.199219 290.761719 C 438.199219 288.519531 436.382812 286.707031 434.144531 286.707031 L 415.726562 286.707031 C 413.484375 286.707031 411.667969 288.519531 411.667969 290.761719 L 411.667969 309.179688 C 411.667969 311.421875 413.484375 313.238281 415.726562 313.238281 Z M 419.78125 294.816406 L 430.089844 294.816406 L 430.089844 305.125 L 419.78125 305.125 Z M 415.726562 349.085938 L 434.144531 349.085938 C 436.382812 349.085938 438.199219 347.269531 438.199219 345.027344 L 438.199219 326.609375 C 438.199219 324.371094 436.382812 322.554688 434.144531 322.554688 L 415.726562 322.554688 C 413.484375 322.554688 411.667969 324.371094 411.667969 326.609375 L 411.667969 345.027344 C 411.667969 347.269531 413.484375 349.085938 415.726562 349.085938 Z M 419.78125 330.664062 L 430.089844 330.664062 L 430.089844 340.972656 L 419.78125 340.972656 Z M 415.726562 384.933594 L 434.144531 384.933594 C 436.382812 384.933594 438.199219 383.117188 438.199219 380.878906 L 438.199219 362.457031 C 438.199219 360.21875 436.382812 358.402344 434.144531 358.402344 L 415.726562 358.402344 C 413.484375 358.402344 411.667969 360.21875 411.667969 362.457031 L 411.667969 380.878906 C 411.667969 383.117188 413.484375 384.933594 415.726562 384.933594 Z M 419.78125 366.515625 L 430.089844 366.515625 L 430.089844 376.820312 L 419.78125 376.820312 Z M 446.148438 371.667969 C 446.148438 369.429688 447.960938 367.613281 450.203125 367.613281 L 523.496094 367.613281 C 525.734375 367.613281 527.550781 369.429688 527.550781 371.667969 C 527.550781 373.910156 525.734375 375.722656 523.496094 375.722656 L 450.203125 375.722656 C 447.960938 375.722656 446.148438 373.910156 446.148438 371.667969 Z M 652.671875 394.199219 L 615.609375 357.136719 C 613.554688 355.082031 610.816406 353.949219 607.898438 353.949219 C 607.078125 353.949219 606.277344 354.050781 605.496094 354.222656 L 596.921875 345.648438 C 602.9375 336.566406 606.449219 325.6875 606.449219 314 C 606.449219 289.570312 591.125 268.652344 569.582031 260.355469 L 569.582031 179.042969 C 569.582031 171.695312 563.605469 165.722656 556.261719 165.722656 L 517.839844 165.722656 L 517.839844 158.496094 C 517.839844 156.253906 516.023438 154.4375 513.785156 154.4375 L 493.105469 154.4375 C 491.171875 143.21875 481.375 134.65625 469.609375 134.65625 C 457.847656 134.65625 448.046875 143.21875 446.117188 154.4375 L 425.4375 154.4375 C 423.195312 154.4375 421.378906 156.253906 421.378906 158.496094 L 421.378906 165.722656 L 382.957031 165.722656 C 375.613281 165.722656 369.636719 171.695312 369.636719 179.042969 L 369.636719 407.554688 C 369.636719 414.898438 375.613281 420.875 382.957031 420.875 L 556.261719 420.875 C 563.605469 420.875 569.582031 414.898438 569.582031 407.554688 L 569.582031 367.644531 C 573.488281 366.140625 577.191406 364.222656 580.632812 361.941406 L 589.207031 370.515625 C 589.03125 371.292969 588.933594 372.09375 588.933594 372.914062 C 588.933594 375.832031 590.066406 378.570312 592.121094 380.625 L 629.183594 417.691406 C 631.308594 419.816406 634.101562 420.878906 636.894531 420.878906 C 639.6875 420.878906 642.480469 419.816406 644.605469 417.6875 L 652.671875 409.625 C 654.726562 407.570312 655.859375 404.832031 655.859375 401.914062 C 655.859375 398.992188 654.726562 396.253906 652.671875 394.199219 Z M 598.335938 314 C 598.335938 341.214844 576.199219 363.355469 548.984375 363.355469 C 521.769531 363.355469 499.628906 341.214844 499.628906 314 C 499.628906 286.785156 521.769531 264.644531 548.984375 264.644531 C 576.199219 264.644531 598.335938 286.785156 598.335938 314 Z M 542.941406 192.359375 L 542.941406 256.851562 C 520.230469 259.234375 501.421875 274.898438 494.433594 295.914062 L 450.203125 295.914062 C 447.960938 295.914062 446.148438 297.730469 446.148438 299.972656 C 446.148438 302.210938 447.960938 304.027344 450.203125 304.027344 L 492.386719 304.027344 C 491.816406 307.269531 491.515625 310.601562 491.515625 314 C 491.515625 320.199219 492.507812 326.167969 494.328125 331.765625 L 450.203125 331.765625 C 447.960938 331.765625 446.148438 333.578125 446.148438 335.820312 C 446.148438 338.058594 447.960938 339.875 450.203125 339.875 L 497.679688 339.875 C 506.300781 356.894531 523.140625 369.070312 542.941406 371.148438 L 542.941406 394.234375 L 396.277344 394.234375 L 396.277344 192.359375 Z M 556.261719 173.832031 C 559.136719 173.832031 561.472656 176.167969 561.472656 179.042969 L 561.472656 257.90625 C 558.101562 257.15625 554.617188 256.703125 551.054688 256.574219 L 551.054688 188.304688 C 551.054688 186.066406 549.238281 184.25 547 184.25 L 517.839844 184.25 L 517.839844 173.832031 Z M 449.828125 162.550781 C 452.066406 162.550781 453.882812 160.734375 453.882812 158.496094 C 453.882812 149.824219 460.9375 142.765625 469.609375 142.765625 C 478.28125 142.765625 485.339844 149.824219 485.339844 158.496094 C 485.339844 160.734375 487.152344 162.550781 489.394531 162.550781 L 509.730469 162.550781 L 509.730469 184.25 L 429.492188 184.25 L 429.492188 162.550781 Z M 561.472656 407.554688 C 561.472656 410.425781 559.132812 412.765625 556.261719 412.765625 L 382.957031 412.765625 C 380.085938 412.765625 377.75 410.425781 377.75 407.554688 L 377.75 179.042969 C 377.75 176.167969 380.085938 173.832031 382.957031 173.832031 L 421.378906 173.832031 L 421.378906 184.25 L 392.222656 184.25 C 389.984375 184.25 388.167969 186.066406 388.167969 188.304688 L 388.167969 398.292969 C 388.167969 400.53125 389.984375 402.347656 392.222656 402.347656 L 547 402.347656 C 549.238281 402.347656 551.054688 400.53125 551.054688 398.292969 L 551.054688 371.425781 C 554.617188 371.296875 558.101562 370.847656 561.472656 370.097656 Z M 591.933594 352.132812 L 598.5625 358.761719 L 593.742188 363.578125 L 587.117188 356.953125 C 588.816406 355.441406 590.425781 353.832031 591.933594 352.132812 Z M 646.9375 403.886719 L 638.871094 411.953125 C 637.800781 413.023438 635.992188 413.023438 634.917969 411.953125 L 597.855469 374.890625 C 597.332031 374.367188 597.046875 373.667969 597.046875 372.914062 C 597.046875 372.164062 597.335938 371.460938 597.855469 370.9375 L 605.921875 362.875 C 606.445312 362.351562 607.144531 362.0625 607.898438 362.0625 C 608.648438 362.0625 609.351562 362.351562 609.875 362.875 L 646.9375 399.9375 C 647.460938 400.457031 647.746094 401.160156 647.746094 401.914062 C 647.746094 402.664062 647.457031 403.367188 646.9375 403.886719 Z M 505.394531 314 C 505.394531 338.035156 524.949219 357.589844 548.984375 357.589844 C 573.019531 357.589844 592.574219 338.035156 592.574219 314 C 592.574219 289.964844 573.019531 270.410156 548.984375 270.410156 C 524.949219 270.410156 505.394531 289.964844 505.394531 314 Z M 548.984375 278.519531 C 568.546875 278.519531 584.460938 294.4375 584.460938 314 C 584.460938 333.5625 568.546875 349.480469 548.984375 349.480469 C 529.421875 349.480469 513.503906 333.5625 513.503906 314 C 513.503906 294.4375 529.421875 278.519531 548.984375 278.519531 Z M 464.394531 158.496094 C 464.394531 155.621094 466.738281 153.28125 469.609375 153.28125 C 472.484375 153.28125 474.824219 155.621094 474.824219 158.496094 C 474.824219 161.367188 472.484375 163.710938 469.609375 163.710938 C 466.738281 163.710938 464.394531 161.367188 464.394531 158.496094 Z M 464.394531 158.496094 " fill-opacity="1" fill-rule="evenodd"/></g></svg>