<svg xmlns="http://www.w3.org/2000/svg" xmlns:xlink="http://www.w3.org/1999/xlink" width="1366" zoomAndPan="magnify" viewBox="0 0 1024.5 576" height="768" preserveAspectRatio="xMidYMid meet" version="1.0"><defs><clipPath id="18c9828937"><path d="M 0 0.140625 L 1024 0.140625 L 1024 575.859375 L 0 575.859375 Z M 0 0.140625 " clip-rule="nonzero"/></clipPath><clipPath id="815714502a"><path d="M 291.945312 57.710938 L 732.054688 57.710938 L 732.054688 497.824219 L 291.945312 497.824219 Z M 291.945312 57.710938 " clip-rule="nonzero"/></clipPath><clipPath id="12eb6183f8"><path d="M 512 57.710938 C 390.464844 57.710938 291.945312 156.234375 291.945312 277.769531 C 291.945312 399.300781 390.464844 497.824219 512 497.824219 C 633.535156 497.824219 732.054688 399.300781 732.054688 277.769531 C 732.054688 156.234375 633.535156 57.710938 512 57.710938 Z M 512 57.710938 " clip-rule="nonzero"/></clipPath><clipPath id="c9c44a8ca0"><path d="M 0.945312 0.710938 L 441.054688 0.710938 L 441.054688 440.824219 L 0.945312 440.824219 Z M 0.945312 0.710938 " clip-rule="nonzero"/></clipPath><clipPath id="526ec404eb"><path d="M 221 0.710938 C 99.464844 0.710938 0.945312 99.234375 0.945312 220.769531 C 0.945312 342.300781 99.464844 440.824219 221 440.824219 C 342.535156 440.824219 441.054688 342.300781 441.054688 220.769531 C 441.054688 99.234375 342.535156 0.710938 221 0.710938 Z M 221 0.710938 " clip-rule="nonzero"/></clipPath><clipPath id="af755ea56f"><rect x="0" width="442" y="0" height="441"/></clipPath><clipPath id="18ea84e52a"><path d="M 299.105469 64.875 L 724.894531 64.875 L 724.894531 490.660156 L 299.105469 490.660156 Z M 299.105469 64.875 " clip-rule="nonzero"/></clipPath><clipPath id="37583e90df"><path d="M 512 64.875 C 394.421875 64.875 299.105469 160.191406 299.105469 277.769531 C 299.105469 395.347656 394.421875 490.660156 512 490.660156 C 629.578125 490.660156 724.894531 395.347656 724.894531 277.769531 C 724.894531 160.191406 629.578125 64.875 512 64.875 Z M 512 64.875 " clip-rule="nonzero"/></clipPath><clipPath id="4f2e861bc0"><path d="M 0.105469 0.875 L 425.894531 0.875 L 425.894531 426.660156 L 0.105469 426.660156 Z M 0.105469 0.875 " clip-rule="nonzero"/></clipPath><clipPath id="228265c0bb"><path d="M 213 0.875 C 95.421875 0.875 0.105469 96.191406 0.105469 213.769531 C 0.105469 331.347656 95.421875 426.660156 213 426.660156 C 330.578125 426.660156 425.894531 331.347656 425.894531 213.769531 C 425.894531 96.191406 330.578125 0.875 213 0.875 Z M 213 0.875 " clip-rule="nonzero"/></clipPath><clipPath id="f0f21b5ba6"><rect x="0" width="426" y="0" height="427"/></clipPath><clipPath id="61188b017f"><path d="M 352 124.425781 L 652.511719 124.425781 L 652.511719 425 L 352 425 Z M 352 124.425781 " clip-rule="nonzero"/></clipPath></defs><g clip-path="url(#18c9828937)"><path fill="#ffffff" d="M 0 0.140625 L 1024 0.140625 L 1024 575.859375 L 0 575.859375 Z M 0 0.140625 " fill-opacity="1" fill-rule="nonzero"/></g><g clip-path="url(#815714502a)"><g clip-path="url(#12eb6183f8)"><g transform="matrix(1, 0, 0, 1, 291, 57)"><g clip-path="url(#af755ea56f)"><g clip-path="url(#c9c44a8ca0)"><g clip-path="url(#526ec404eb)"><path fill="#975ab6" d="M 0.945312 0.710938 L 441.054688 0.710938 L 441.054688 440.824219 L 0.945312 440.824219 Z M 0.945312 0.710938 " fill-opacity="1" fill-rule="nonzero"/></g></g></g></g></g></g><g clip-path="url(#18ea84e52a)"><g clip-path="url(#37583e90df)"><g transform="matrix(1, 0, 0, 1, 299, 64)"><g clip-path="url(#f0f21b5ba6)"><g clip-path="url(#4f2e861bc0)"><g clip-path="url(#228265c0bb)"><path fill="#ffffff" d="M 0.105469 0.875 L 425.894531 0.875 L 425.894531 426.660156 L 0.105469 426.660156 Z M 0.105469 0.875 " fill-opacity="1" fill-rule="nonzero"/></g></g></g></g></g></g><g clip-path="url(#61188b017f)"><path fill="#975ab6" d="M 355.796875 200.839844 C 353.722656 200.839844 352.042969 199.160156 352.042969 197.085938 C 352.042969 195.015625 353.722656 193.335938 355.796875 193.335938 L 369.648438 193.335938 C 370.574219 179.589844 376.527344 167.226562 385.6875 158.066406 C 394.847656 148.90625 407.214844 142.949219 420.957031 142.027344 L 420.957031 128.171875 C 420.957031 126.101562 422.636719 124.421875 424.710938 124.421875 C 426.78125 124.421875 428.460938 126.101562 428.460938 128.171875 L 428.460938 142.027344 C 442.207031 142.949219 454.574219 148.90625 463.734375 158.066406 C 472.890625 167.226562 478.847656 179.589844 479.769531 193.335938 L 493.625 193.335938 C 495.695312 193.335938 497.378906 195.015625 497.378906 197.085938 C 497.378906 199.160156 495.695312 200.839844 493.625 200.839844 L 479.769531 200.839844 C 478.847656 214.585938 472.890625 226.949219 463.734375 236.109375 C 454.574219 245.269531 442.207031 251.226562 428.460938 252.148438 L 428.460938 266.003906 C 428.460938 268.074219 426.78125 269.753906 424.710938 269.753906 C 422.636719 269.753906 420.957031 268.074219 420.957031 266.003906 L 420.957031 252.148438 C 407.214844 251.226562 394.847656 245.269531 385.6875 236.109375 C 376.527344 226.949219 370.574219 214.582031 369.648438 200.839844 Z M 433.59375 185.519531 C 432.460938 184.421875 431.019531 183.539062 429.464844 182.9375 L 429.242188 182.859375 C 428.988281 182.765625 428.726562 182.683594 428.464844 182.601562 L 428.464844 180.167969 C 428.464844 178.097656 426.785156 176.417969 424.710938 176.417969 C 422.640625 176.417969 420.957031 178.097656 420.957031 180.167969 L 420.957031 182.566406 C 419.523438 183.039062 418.191406 183.820312 417.085938 184.964844 C 416.996094 185.054688 416.914062 185.152344 416.832031 185.25 C 416.097656 186.070312 415.492188 187.042969 415.0625 188.164062 C 414.195312 190.402344 414.25 192.695312 415.242188 194.789062 C 416.113281 196.625 417.679688 198.222656 419.945312 199.367188 C 421.496094 200.144531 423.171875 200.585938 424.820312 201.015625 C 425.808594 201.273438 426.789062 201.53125 427.5625 201.84375 C 428.175781 202.089844 428.445312 202.308594 428.449219 202.460938 C 428.453125 202.644531 428.351562 202.894531 428.167969 203.160156 C 427.890625 203.558594 427.445312 203.929688 426.867188 204.210938 C 426.296875 204.492188 425.613281 204.664062 424.84375 204.675781 L 424.710938 204.671875 L 424.59375 204.671875 C 423.140625 204.636719 421.394531 204.042969 419.476562 202.605469 C 417.824219 201.367188 415.480469 201.703125 414.242188 203.351562 C 413.003906 205.003906 413.339844 207.347656 414.992188 208.585938 C 417.027344 210.113281 419.039062 211.09375 420.957031 211.636719 L 420.957031 214.007812 C 420.957031 216.078125 422.640625 217.761719 424.710938 217.761719 C 426.785156 217.761719 428.464844 216.078125 428.464844 214.007812 L 428.464844 211.621094 C 429.054688 211.4375 429.617188 211.214844 430.152344 210.953125 C 431.894531 210.101562 433.328125 208.851562 434.324219 207.410156 C 435.40625 205.84375 435.984375 204.035156 435.921875 202.226562 C 435.824219 199.222656 434.125 196.421875 430.347656 194.894531 C 429.195312 194.429688 427.953125 194.105469 426.695312 193.777344 C 425.453125 193.453125 424.1875 193.121094 423.316406 192.679688 C 422.613281 192.328125 422.179688 191.949219 422.011719 191.59375 C 421.917969 191.394531 421.929688 191.140625 422.035156 190.859375 C 422.128906 190.621094 422.238281 190.425781 422.355469 190.277344 L 422.453125 190.183594 C 422.820312 189.800781 423.398438 189.589844 424.050781 189.523438 C 424.179688 189.507812 424.3125 189.5 424.445312 189.496094 C 424.53125 189.503906 424.621094 189.507812 424.710938 189.507812 L 424.878906 189.503906 C 425.46875 189.53125 426.066406 189.65625 426.628906 189.859375 L 426.765625 189.914062 C 427.410156 190.160156 427.972656 190.496094 428.375 190.886719 C 429.855469 192.324219 432.226562 192.292969 433.664062 190.8125 C 435.105469 189.332031 435.074219 186.960938 433.59375 185.519531 Z M 600.367188 189.511719 L 607.765625 193.277344 C 609.359375 194.085938 611.082031 194.402344 612.785156 194.238281 C 614.488281 194.074219 616.125 193.4375 617.539062 192.339844 C 618.960938 191.234375 619.988281 189.800781 620.558594 188.199219 C 621.125 186.609375 621.238281 184.855469 620.835938 183.09375 L 616.917969 165.882812 L 611.886719 143.753906 C 611.582031 142.402344 611.007812 141.1875 610.191406 140.140625 C 609.371094 139.085938 608.339844 138.234375 607.117188 137.613281 C 605.898438 136.992188 604.597656 136.660156 603.261719 136.617188 C 601.929688 136.574219 600.613281 136.820312 599.355469 137.363281 L 578.5 146.320312 L 562.28125 153.285156 C 560.632812 153.996094 559.28125 155.121094 558.320312 156.53125 C 557.382812 157.90625 556.835938 159.542969 556.761719 161.316406 L 556.757812 161.40625 C 556.695312 163.203125 557.136719 164.902344 558 166.363281 C 558.871094 167.832031 560.144531 169.042969 561.742188 169.855469 L 569.554688 173.832031 C 552.210938 200.96875 529.382812 224.402344 501.082031 244.132812 C 471.476562 264.769531 435.875 281.363281 394.285156 293.917969 L 394.285156 293.921875 C 392.679688 294.398438 391.542969 295.921875 391.617188 297.667969 C 391.707031 299.730469 393.453125 301.332031 395.515625 301.246094 C 428.949219 299.6875 473.421875 286.148438 514.171875 263.578125 C 548.285156 244.683594 579.882812 219.425781 600.367188 189.511719 Z M 577.835938 170 C 578.179688 170.429688 578.417969 170.921875 578.550781 171.445312 L 578.558594 171.476562 L 578.570312 171.535156 L 578.578125 171.566406 L 578.589844 171.621094 L 578.605469 171.710938 L 578.609375 171.742188 L 578.617188 171.800781 L 578.625 171.832031 L 578.632812 171.890625 L 578.636719 171.921875 L 578.640625 171.980469 L 578.644531 172.011719 L 578.648438 172.070312 L 578.652344 172.101562 L 578.65625 172.160156 L 578.65625 172.191406 L 578.660156 172.25 L 578.660156 172.460938 L 578.65625 172.523438 L 578.65625 172.550781 L 578.652344 172.613281 L 578.644531 172.707031 L 578.640625 172.734375 L 578.632812 172.796875 L 578.628906 172.824219 L 578.621094 172.886719 L 578.617188 172.914062 L 578.605469 172.976562 L 578.601562 173.003906 L 578.589844 173.070312 C 578.542969 173.3125 578.46875 173.554688 578.375 173.785156 L 578.367188 173.804688 C 578.332031 173.882812 578.292969 173.96875 578.253906 174.046875 L 578.246094 174.058594 L 578.207031 174.132812 L 578.203125 174.144531 L 578.160156 174.21875 L 578.15625 174.230469 L 578.113281 174.300781 L 578.105469 174.3125 C 559.96875 203.800781 535.71875 229.128906 505.363281 250.289062 C 485.175781 264.359375 462.28125 276.585938 436.6875 286.960938 C 460.398438 280.757812 486.121094 270.5625 510.535156 257.042969 C 544.710938 238.113281 576.234375 212.703125 595.929688 182.664062 L 595.953125 182.628906 L 595.96875 182.609375 C 596.246094 182.179688 596.605469 181.824219 597.011719 181.550781 L 597.050781 181.523438 L 597.167969 181.453125 L 597.203125 181.429688 L 597.246094 181.40625 L 597.40625 181.320312 L 597.441406 181.300781 L 597.484375 181.277344 L 597.566406 181.242188 L 597.605469 181.222656 L 597.648438 181.207031 L 597.6875 181.1875 L 597.734375 181.171875 L 597.773438 181.15625 L 597.902344 181.109375 C 598.496094 180.910156 599.140625 180.855469 599.773438 180.972656 L 599.824219 180.980469 L 599.863281 180.988281 L 599.953125 181.007812 L 600.007812 181.019531 L 600.042969 181.03125 L 600.09375 181.042969 L 600.132812 181.054688 L 600.308594 181.109375 L 600.363281 181.128906 L 600.394531 181.140625 L 600.453125 181.164062 L 600.484375 181.175781 L 600.570312 181.210938 L 600.628906 181.234375 L 600.65625 181.246094 L 600.714844 181.277344 L 600.738281 181.289062 L 600.804688 181.320312 L 600.824219 181.332031 L 611.164062 186.59375 C 611.480469 186.753906 611.796875 186.820312 612.078125 186.792969 C 612.355469 186.765625 612.652344 186.640625 612.9375 186.417969 C 613.207031 186.210938 613.394531 185.953125 613.492188 185.679688 C 613.59375 185.394531 613.613281 185.070312 613.539062 184.738281 L 609.621094 167.527344 L 604.589844 145.398438 C 604.527344 145.128906 604.429688 144.90625 604.300781 144.742188 C 604.175781 144.578125 603.980469 144.429688 603.71875 144.296875 C 603.460938 144.167969 603.226562 144.097656 603.027344 144.089844 C 602.820312 144.085938 602.578125 144.136719 602.316406 144.25 L 581.460938 153.210938 L 565.242188 160.175781 C 564.917969 160.3125 564.667969 160.515625 564.503906 160.75 C 564.34375 160.988281 564.246094 161.277344 564.234375 161.59375 L 564.230469 161.640625 C 564.222656 161.984375 564.300781 162.296875 564.449219 162.554688 C 564.59375 162.800781 564.832031 163.015625 565.144531 163.171875 L 576.535156 168.96875 L 576.609375 169.007812 L 576.621094 169.011719 L 576.695312 169.050781 L 576.707031 169.058594 L 576.78125 169.097656 L 576.789062 169.105469 L 576.863281 169.148438 L 576.875 169.152344 L 576.941406 169.199219 L 576.957031 169.207031 L 577.023438 169.25 L 577.035156 169.257812 L 577.097656 169.304688 L 577.113281 169.3125 L 577.175781 169.359375 L 577.25 169.417969 L 577.265625 169.429688 L 577.320312 169.476562 L 577.335938 169.488281 L 577.390625 169.535156 L 577.410156 169.550781 L 577.460938 169.597656 L 577.476562 169.613281 L 577.527344 169.660156 L 577.542969 169.679688 L 577.59375 169.726562 L 577.609375 169.746094 L 577.65625 169.792969 L 577.777344 169.929688 L 577.792969 169.953125 Z M 556.761719 161.316406 C 556.863281 159.441406 558.339844 157.953125 560.175781 157.796875 Z M 406.375 402.214844 L 403.550781 402.214844 C 400.4375 402.214844 397.59375 403.496094 395.527344 405.554688 L 395.519531 405.5625 L 395.515625 405.570312 C 393.453125 407.640625 392.175781 410.480469 392.175781 413.59375 L 392.175781 413.597656 C 392.175781 416.71875 393.453125 419.558594 395.515625 421.621094 L 395.515625 421.632812 C 397.574219 423.695312 400.421875 424.972656 403.550781 424.972656 L 641.007812 424.972656 C 644.128906 424.972656 646.96875 423.695312 649.03125 421.632812 L 649.046875 421.621094 C 651.105469 419.558594 652.386719 416.71875 652.386719 413.597656 L 652.386719 413.59375 C 652.386719 410.460938 651.105469 407.617188 649.046875 405.554688 C 646.984375 403.496094 644.140625 402.214844 641.007812 402.214844 L 638.1875 402.214844 L 638.1875 236.535156 C 638.1875 234.097656 637.191406 231.882812 635.589844 230.285156 C 633.992188 228.683594 631.777344 227.691406 629.339844 227.691406 L 596.320312 227.691406 C 593.882812 227.691406 591.671875 228.683594 590.070312 230.285156 L 590.070312 230.300781 C 588.472656 231.902344 587.476562 234.109375 587.476562 236.535156 L 587.476562 402.214844 L 577.820312 402.214844 L 577.820312 276.730469 C 577.820312 274.292969 576.824219 272.078125 575.226562 270.476562 L 575.210938 270.476562 C 573.609375 268.878906 571.402344 267.882812 568.976562 267.882812 L 535.953125 267.882812 C 533.515625 267.882812 531.300781 268.878906 529.703125 270.476562 C 528.101562 272.078125 527.109375 274.292969 527.109375 276.730469 L 527.109375 402.214844 L 517.453125 402.214844 L 517.453125 316.921875 C 517.453125 314.496094 516.457031 312.289062 514.855469 310.6875 L 514.855469 310.671875 C 513.257812 309.070312 511.046875 308.078125 508.609375 308.078125 L 475.585938 308.078125 C 473.148438 308.078125 470.9375 309.070312 469.335938 310.671875 L 469.335938 310.6875 C 467.734375 312.289062 466.742188 314.496094 466.742188 316.921875 L 466.742188 402.214844 L 457.085938 402.214844 L 457.085938 357.113281 C 457.085938 354.6875 456.089844 352.480469 454.492188 350.878906 L 454.492188 350.863281 C 452.890625 349.265625 450.675781 348.269531 448.242188 348.269531 L 415.21875 348.269531 C 412.78125 348.269531 410.566406 349.265625 408.96875 350.863281 L 408.96875 350.878906 C 407.367188 352.480469 406.375 354.6875 406.375 357.113281 Z M 449.578125 402.214844 L 413.878906 402.214844 L 413.878906 357.113281 C 413.878906 356.742188 414.027344 356.402344 414.265625 356.164062 L 414.273438 356.167969 C 414.515625 355.925781 414.851562 355.773438 415.21875 355.773438 L 448.242188 355.773438 C 448.605469 355.773438 448.941406 355.925781 449.183594 356.167969 L 449.191406 356.164062 C 449.429688 356.402344 449.578125 356.742188 449.578125 357.113281 Z M 509.945312 402.214844 L 474.246094 402.214844 L 474.246094 316.921875 C 474.246094 316.550781 474.394531 316.210938 474.632812 315.96875 L 474.640625 315.976562 C 474.882812 315.734375 475.21875 315.582031 475.585938 315.582031 L 508.609375 315.582031 C 508.972656 315.582031 509.308594 315.734375 509.550781 315.976562 L 509.558594 315.96875 C 509.796875 316.210938 509.945312 316.550781 509.945312 316.921875 Z M 570.316406 402.214844 L 534.613281 402.214844 L 534.613281 276.730469 C 534.613281 276.363281 534.765625 276.027344 535.007812 275.785156 C 535.25 275.542969 535.585938 275.390625 535.953125 275.390625 L 568.976562 275.390625 C 569.347656 275.390625 569.6875 275.539062 569.929688 275.777344 L 569.921875 275.785156 C 570.164062 276.027344 570.316406 276.363281 570.316406 276.730469 Z M 630.679688 402.214844 L 594.980469 402.214844 L 594.980469 236.535156 C 594.980469 236.164062 595.128906 235.824219 595.367188 235.582031 L 595.375 235.589844 C 595.617188 235.347656 595.953125 235.195312 596.320312 235.195312 L 629.339844 235.195312 C 629.707031 235.195312 630.042969 235.347656 630.285156 235.589844 C 630.527344 235.832031 630.679688 236.167969 630.679688 236.535156 Z M 403.550781 417.46875 C 402.492188 417.46875 401.523438 417.03125 400.820312 416.328125 L 400.8125 416.335938 C 400.113281 415.632812 399.679688 414.664062 399.679688 413.597656 L 399.679688 413.59375 C 399.679688 412.523438 400.109375 411.554688 400.804688 410.863281 L 400.820312 410.847656 C 401.511719 410.152344 402.480469 409.722656 403.550781 409.722656 L 641.007812 409.722656 C 642.070312 409.722656 643.039062 410.160156 643.742188 410.863281 C 644.445312 411.566406 644.882812 412.53125 644.882812 413.59375 L 644.882812 413.597656 C 644.882812 414.660156 644.449219 415.625 643.757812 416.328125 L 643.742188 416.34375 C 643.039062 417.039062 642.070312 417.46875 641.007812 417.46875 Z M 448.351562 197.085938 C 448.351562 190.558594 445.707031 184.648438 441.429688 180.367188 C 441.367188 180.304688 441.304688 180.242188 441.246094 180.175781 C 436.996094 176.011719 431.160156 173.445312 424.710938 173.445312 C 418.183594 173.445312 412.269531 176.089844 407.992188 180.367188 C 403.714844 184.648438 401.066406 190.558594 401.066406 197.085938 C 401.066406 203.617188 403.714844 209.527344 407.992188 213.808594 C 412.269531 218.085938 418.179688 220.730469 424.710938 220.730469 C 431.25 220.730469 437.160156 218.089844 441.429688 213.820312 L 441.4375 213.8125 L 441.429688 213.808594 C 445.707031 209.527344 448.351562 203.617188 448.351562 197.085938 Z M 446.734375 175.0625 C 446.660156 174.988281 446.585938 174.917969 446.507812 174.855469 C 440.882812 169.339844 433.183594 165.9375 424.710938 165.9375 C 416.113281 165.9375 408.324219 169.425781 402.6875 175.0625 C 397.050781 180.699219 393.5625 188.488281 393.5625 197.085938 C 393.5625 205.6875 397.050781 213.476562 402.6875 219.113281 C 408.324219 224.75 416.113281 228.238281 424.710938 228.238281 C 433.296875 228.238281 441.085938 224.746094 446.726562 219.105469 L 446.734375 219.113281 C 452.371094 213.476562 455.859375 205.6875 455.859375 197.085938 C 455.859375 188.488281 452.371094 180.699219 446.734375 175.0625 Z M 377.175781 193.335938 L 385.058594 193.335938 C 387.132812 193.335938 388.8125 195.015625 388.8125 197.085938 C 388.8125 199.160156 387.132812 200.839844 385.058594 200.839844 L 377.175781 200.839844 C 378.082031 212.511719 383.191406 223.003906 390.992188 230.804688 C 398.792969 238.605469 409.285156 243.714844 420.957031 244.625 L 420.957031 236.738281 C 420.957031 234.667969 422.636719 232.984375 424.710938 232.984375 C 426.78125 232.984375 428.460938 234.667969 428.460938 236.738281 L 428.460938 244.625 C 440.132812 243.714844 450.628906 238.605469 458.425781 230.804688 C 466.226562 223.003906 471.335938 212.511719 472.246094 200.839844 L 464.359375 200.839844 C 462.289062 200.839844 460.609375 199.160156 460.609375 197.085938 C 460.609375 195.015625 462.289062 193.335938 464.359375 193.335938 L 472.246094 193.335938 C 471.335938 181.664062 466.226562 171.171875 458.425781 163.371094 C 450.628906 155.570312 440.132812 150.460938 428.460938 149.550781 L 428.460938 157.4375 C 428.460938 159.507812 426.78125 161.191406 424.710938 161.191406 C 422.636719 161.191406 420.957031 159.507812 420.957031 157.4375 L 420.957031 149.550781 C 409.285156 150.460938 398.792969 155.570312 390.992188 163.371094 C 383.191406 171.171875 378.082031 181.664062 377.175781 193.335938 Z M 377.175781 193.335938 " fill-opacity="1" fill-rule="evenodd"/></g></svg>