<svg xmlns="http://www.w3.org/2000/svg" xmlns:xlink="http://www.w3.org/1999/xlink" width="1366" zoomAndPan="magnify" viewBox="0 0 1024.5 576" height="768" preserveAspectRatio="xMidYMid meet" version="1.0"><defs><clipPath id="8368a53bb7"><path d="M 0 0.140625 L 1024 0.140625 L 1024 575.859375 L 0 575.859375 Z M 0 0.140625 " clip-rule="nonzero"/></clipPath><clipPath id="8d8a1ebceb"><path d="M 291.945312 57.710938 L 732.054688 57.710938 L 732.054688 497.824219 L 291.945312 497.824219 Z M 291.945312 57.710938 " clip-rule="nonzero"/></clipPath><clipPath id="e4fa634637"><path d="M 512 57.710938 C 390.464844 57.710938 291.945312 156.234375 291.945312 277.769531 C 291.945312 399.300781 390.464844 497.824219 512 497.824219 C 633.535156 497.824219 732.054688 399.300781 732.054688 277.769531 C 732.054688 156.234375 633.535156 57.710938 512 57.710938 Z M 512 57.710938 " clip-rule="nonzero"/></clipPath><clipPath id="a5dd872e42"><path d="M 0.945312 0.710938 L 441.054688 0.710938 L 441.054688 440.824219 L 0.945312 440.824219 Z M 0.945312 0.710938 " clip-rule="nonzero"/></clipPath><clipPath id="68bd171843"><path d="M 221 0.710938 C 99.464844 0.710938 0.945312 99.234375 0.945312 220.769531 C 0.945312 342.300781 99.464844 440.824219 221 440.824219 C 342.535156 440.824219 441.054688 342.300781 441.054688 220.769531 C 441.054688 99.234375 342.535156 0.710938 221 0.710938 Z M 221 0.710938 " clip-rule="nonzero"/></clipPath><clipPath id="ff1a78a289"><rect x="0" width="442" y="0" height="441"/></clipPath><clipPath id="26e9b186e9"><path d="M 299.105469 64.875 L 724.894531 64.875 L 724.894531 490.660156 L 299.105469 490.660156 Z M 299.105469 64.875 " clip-rule="nonzero"/></clipPath><clipPath id="316398de20"><path d="M 512 64.875 C 394.421875 64.875 299.105469 160.191406 299.105469 277.769531 C 299.105469 395.347656 394.421875 490.660156 512 490.660156 C 629.578125 490.660156 724.894531 395.347656 724.894531 277.769531 C 724.894531 160.191406 629.578125 64.875 512 64.875 Z M 512 64.875 " clip-rule="nonzero"/></clipPath><clipPath id="89553e3795"><path d="M 0.105469 0.875 L 425.894531 0.875 L 425.894531 426.660156 L 0.105469 426.660156 Z M 0.105469 0.875 " clip-rule="nonzero"/></clipPath><clipPath id="2eca195541"><path d="M 213 0.875 C 95.421875 0.875 0.105469 96.191406 0.105469 213.769531 C 0.105469 331.347656 95.421875 426.660156 213 426.660156 C 330.578125 426.660156 425.894531 331.347656 425.894531 213.769531 C 425.894531 96.191406 330.578125 0.875 213 0.875 Z M 213 0.875 " clip-rule="nonzero"/></clipPath><clipPath id="7ec8b4d7cb"><rect x="0" width="426" y="0" height="427"/></clipPath><clipPath id="9f237155d6"><path d="M 357.628906 137.03125 L 666.476562 137.03125 L 666.476562 387 L 357.628906 387 Z M 357.628906 137.03125 " clip-rule="nonzero"/></clipPath></defs><g clip-path="url(#8368a53bb7)"><path fill="#ffffff" d="M 0 0.140625 L 1024 0.140625 L 1024 575.859375 L 0 575.859375 Z M 0 0.140625 " fill-opacity="1" fill-rule="nonzero"/></g><g clip-path="url(#8d8a1ebceb)"><g clip-path="url(#e4fa634637)"><g transform="matrix(1, 0, 0, 1, 291, 57)"><g clip-path="url(#ff1a78a289)"><g clip-path="url(#a5dd872e42)"><g clip-path="url(#68bd171843)"><path fill="#975ab6" d="M 0.945312 0.710938 L 441.054688 0.710938 L 441.054688 440.824219 L 0.945312 440.824219 Z M 0.945312 0.710938 " fill-opacity="1" fill-rule="nonzero"/></g></g></g></g></g></g><g clip-path="url(#26e9b186e9)"><g clip-path="url(#316398de20)"><g transform="matrix(1, 0, 0, 1, 299, 64)"><g clip-path="url(#7ec8b4d7cb)"><g clip-path="url(#89553e3795)"><g clip-path="url(#2eca195541)"><path fill="#ffffff" d="M 0.105469 0.875 L 425.894531 0.875 L 425.894531 426.660156 L 0.105469 426.660156 Z M 0.105469 0.875 " fill-opacity="1" fill-rule="nonzero"/></g></g></g></g></g></g><path fill="#975ab6" d="M 429.984375 395.433594 C 419.671875 395.433594 411.277344 403.824219 411.277344 414.140625 C 411.277344 424.453125 419.671875 432.847656 429.984375 432.847656 C 440.300781 432.847656 448.691406 424.453125 448.691406 414.140625 C 448.691406 403.824219 440.300781 395.433594 429.984375 395.433594 Z M 429.984375 424.535156 C 424.253906 424.535156 419.589844 419.871094 419.589844 414.140625 C 419.589844 408.40625 424.253906 403.742188 429.984375 403.742188 C 435.71875 403.742188 440.382812 408.40625 440.382812 414.140625 C 440.382812 419.871094 435.71875 424.535156 429.984375 424.535156 Z M 429.984375 424.535156 " fill-opacity="1" fill-rule="nonzero"/><path fill="#975ab6" d="M 529.769531 395.433594 C 519.453125 395.433594 511.0625 403.824219 511.0625 414.140625 C 511.0625 424.453125 519.453125 432.847656 529.769531 432.847656 C 540.082031 432.847656 548.472656 424.453125 548.472656 414.140625 C 548.476562 403.824219 540.082031 395.433594 529.769531 395.433594 Z M 529.769531 424.535156 C 524.035156 424.535156 519.371094 419.871094 519.371094 414.140625 C 519.371094 408.40625 524.035156 403.742188 529.769531 403.742188 C 535.5 403.742188 540.164062 408.40625 540.164062 414.140625 C 540.164062 419.871094 535.5 424.535156 529.769531 424.535156 Z M 529.769531 424.535156 " fill-opacity="1" fill-rule="nonzero"/><path fill="#975ab6" d="M 612.410156 304.222656 L 614.199219 304.222656 C 615.9375 304.222656 617.351562 305.636719 617.351562 307.375 C 617.351562 309.671875 619.214844 311.53125 621.507812 311.53125 C 623.800781 311.53125 625.664062 309.671875 625.664062 307.375 C 625.664062 302.1875 622.199219 297.792969 617.460938 296.386719 L 617.460938 294.933594 C 617.460938 292.640625 615.597656 290.78125 613.304688 290.78125 C 611.011719 290.78125 609.148438 292.640625 609.148438 294.933594 L 609.148438 296.386719 C 604.410156 297.792969 600.945312 302.1875 600.945312 307.375 L 600.945312 307.621094 C 600.945312 312.09375 603.578125 316.179688 607.648438 318.035156 L 615.519531 321.617188 C 616.632812 322.125 617.351562 323.242188 617.351562 324.464844 C 617.351562 326.382812 615.792969 327.945312 613.871094 327.945312 L 613.792969 327.945312 C 613.632812 327.925781 613.46875 327.914062 613.304688 327.914062 C 613.140625 327.914062 612.976562 327.925781 612.816406 327.945312 L 612.738281 327.945312 C 610.816406 327.945312 609.257812 326.382812 609.257812 324.464844 L 609.257812 324.183594 C 609.257812 321.886719 607.394531 320.027344 605.101562 320.027344 C 602.808594 320.027344 600.945312 321.886719 600.945312 324.183594 L 600.945312 324.464844 C 600.945312 329.714844 604.398438 334.175781 609.148438 335.695312 L 609.148438 337.523438 C 609.148438 339.816406 611.011719 341.675781 613.304688 341.675781 C 615.597656 341.675781 617.460938 339.816406 617.460938 337.523438 L 617.460938 335.695312 C 622.210938 334.175781 625.664062 329.714844 625.664062 324.464844 C 625.664062 319.992188 623.03125 315.90625 618.960938 314.054688 L 611.089844 310.46875 C 609.976562 309.964844 609.257812 308.847656 609.257812 307.621094 L 609.257812 307.375 C 609.257812 305.636719 610.671875 304.222656 612.410156 304.222656 Z M 612.410156 304.222656 " fill-opacity="1" fill-rule="nonzero"/><g clip-path="url(#9f237155d6)"><path fill="#975ab6" d="M 662.1875 137.03125 L 531.726562 137.03125 C 529.433594 137.03125 527.574219 138.894531 527.574219 141.1875 L 527.574219 253.710938 L 400.050781 253.710938 L 399 246.421875 C 398.175781 240.726562 395.328125 235.515625 390.980469 231.746094 C 386.628906 227.976562 381.0625 225.902344 375.308594 225.902344 L 361.8125 225.902344 C 359.519531 225.902344 357.65625 227.765625 357.65625 230.058594 C 357.65625 232.351562 359.519531 234.214844 361.8125 234.214844 L 375.304688 234.214844 C 379.0625 234.214844 382.699219 235.566406 385.539062 238.027344 C 388.378906 240.488281 390.238281 243.890625 390.773438 247.609375 L 407.527344 363.730469 C 408.425781 369.9375 411.527344 375.617188 416.269531 379.726562 C 421.011719 383.832031 427.074219 386.09375 433.347656 386.09375 L 555.257812 386.09375 C 557.550781 386.09375 559.410156 384.230469 559.410156 381.9375 C 559.410156 379.644531 557.550781 377.785156 555.257812 377.785156 L 433.347656 377.785156 C 429.074219 377.785156 424.941406 376.242188 421.710938 373.445312 C 418.480469 370.644531 416.363281 366.777344 415.753906 362.546875 L 414.535156 354.109375 L 553.992188 354.109375 C 555.976562 354.109375 557.683594 352.707031 558.070312 350.761719 L 567.992188 300.554688 C 568.234375 300.597656 568.484375 300.621094 568.738281 300.621094 L 580.46875 300.621094 C 580.410156 300.75 580.347656 300.875 580.285156 301.003906 C 578.308594 305.292969 577.195312 309.847656 576.976562 314.542969 C 576.75 319.40625 577.496094 324.207031 579.191406 328.8125 C 580.890625 333.414062 583.441406 337.550781 586.773438 341.101562 C 589.988281 344.53125 593.792969 347.273438 598.082031 349.246094 C 602.367188 351.226562 606.921875 352.339844 611.617188 352.558594 C 612.1875 352.585938 612.757812 352.597656 613.324219 352.597656 C 617.605469 352.597656 621.824219 351.839844 625.886719 350.34375 C 630.492188 348.644531 634.625 346.09375 638.175781 342.761719 C 641.605469 339.546875 644.347656 335.738281 646.324219 331.453125 C 648.300781 327.167969 649.414062 322.613281 649.632812 317.914062 C 649.863281 313.050781 649.117188 308.25 647.417969 303.648438 C 647.039062 302.613281 646.609375 301.605469 646.144531 300.621094 L 662.1875 300.621094 C 664.480469 300.621094 666.339844 298.757812 666.339844 296.464844 L 666.339844 141.1875 C 666.339844 138.890625 664.480469 137.03125 662.1875 137.03125 Z M 550.578125 345.796875 L 413.335938 345.796875 L 401.25 262.019531 L 567.136719 262.019531 Z M 638.777344 327.972656 C 635.640625 334.777344 630.039062 339.953125 623.011719 342.542969 C 615.980469 345.136719 608.363281 344.835938 601.558594 341.699219 C 594.753906 338.5625 589.582031 332.964844 586.988281 325.933594 C 584.394531 318.90625 584.695312 311.289062 587.832031 304.484375 C 590.96875 297.679688 596.566406 292.503906 603.597656 289.910156 C 606.761719 288.746094 610.042969 288.164062 613.320312 288.164062 C 617.320312 288.164062 621.308594 289.03125 625.046875 290.757812 C 631.851562 293.894531 637.027344 299.492188 639.621094 306.523438 C 642.214844 313.550781 641.914062 321.167969 638.777344 327.972656 Z M 658.03125 292.308594 L 641.539062 292.308594 C 641.273438 292.308594 641.015625 292.335938 640.761719 292.382812 C 640.460938 292.035156 640.15625 291.691406 639.835938 291.355469 C 636.621094 287.925781 632.816406 285.1875 628.53125 283.210938 C 624.242188 281.234375 619.6875 280.121094 614.992188 279.898438 C 610.125 279.671875 605.328125 280.417969 600.722656 282.117188 C 596.121094 283.8125 591.984375 286.363281 588.433594 289.695312 C 587.546875 290.527344 586.707031 291.402344 585.910156 292.308594 L 569.621094 292.308594 L 576.273438 258.671875 C 576.511719 257.453125 576.195312 256.1875 575.40625 255.226562 C 574.765625 254.449219 573.871094 253.9375 572.894531 253.769531 L 572.894531 250.4375 C 572.894531 248.144531 571.03125 246.285156 568.738281 246.285156 L 549.226562 246.285156 C 546.933594 246.285156 545.070312 248.144531 545.070312 250.4375 L 545.070312 253.710938 L 535.882812 253.710938 L 535.882812 145.34375 L 658.03125 145.34375 Z M 658.03125 292.308594 " fill-opacity="1" fill-rule="nonzero"/></g><path fill="#975ab6" d="M 549.226562 199.835938 L 568.738281 199.835938 C 571.03125 199.835938 572.890625 197.976562 572.890625 195.683594 L 572.890625 176.171875 C 572.890625 173.875 571.03125 172.015625 568.738281 172.015625 L 549.226562 172.015625 C 546.929688 172.015625 545.070312 173.875 545.070312 176.171875 L 545.070312 195.683594 C 545.070312 197.976562 546.929688 199.835938 549.226562 199.835938 Z M 553.378906 180.324219 L 564.582031 180.324219 L 564.582031 191.527344 L 553.378906 191.527344 Z M 553.378906 180.324219 " fill-opacity="1" fill-rule="nonzero"/><path fill="#975ab6" d="M 581.882812 174.070312 L 644.726562 174.070312 L 644.726562 182.378906 L 581.882812 182.378906 Z M 581.882812 174.070312 " fill-opacity="1" fill-rule="nonzero"/><path fill="#975ab6" d="M 581.882812 189.265625 L 615.359375 189.265625 L 615.359375 197.578125 L 581.882812 197.578125 Z M 581.882812 189.265625 " fill-opacity="1" fill-rule="nonzero"/><path fill="#975ab6" d="M 549.226562 236.972656 L 568.738281 236.972656 C 571.03125 236.972656 572.890625 235.109375 572.890625 232.816406 L 572.890625 213.304688 C 572.890625 211.011719 571.03125 209.148438 568.738281 209.148438 L 549.226562 209.148438 C 546.929688 209.148438 545.070312 211.011719 545.070312 213.304688 L 545.070312 232.816406 C 545.070312 235.109375 546.929688 236.972656 549.226562 236.972656 Z M 553.378906 217.460938 L 564.582031 217.460938 L 564.582031 228.660156 L 553.378906 228.660156 Z M 553.378906 217.460938 " fill-opacity="1" fill-rule="nonzero"/><path fill="#975ab6" d="M 581.882812 211.203125 L 644.726562 211.203125 L 644.726562 219.511719 L 581.882812 219.511719 Z M 581.882812 211.203125 " fill-opacity="1" fill-rule="nonzero"/><path fill="#975ab6" d="M 581.882812 226.402344 L 615.359375 226.402344 L 615.359375 234.710938 L 581.882812 234.710938 Z M 581.882812 226.402344 " fill-opacity="1" fill-rule="nonzero"/><path fill="#975ab6" d="M 581.882812 248.339844 L 644.726562 248.339844 L 644.726562 256.648438 L 581.882812 256.648438 Z M 581.882812 248.339844 " fill-opacity="1" fill-rule="nonzero"/><path fill="#975ab6" d="M 588.105469 263.535156 L 615.359375 263.535156 L 615.359375 271.84375 L 588.105469 271.84375 Z M 588.105469 263.535156 " fill-opacity="1" fill-rule="nonzero"/></svg>