<svg xmlns="http://www.w3.org/2000/svg" xmlns:xlink="http://www.w3.org/1999/xlink" width="1366" zoomAndPan="magnify" viewBox="0 0 1024.5 576" height="768" preserveAspectRatio="xMidYMid meet" version="1.0"><defs><clipPath id="af85a5e7d8"><path d="M 0 0.140625 L 1024 0.140625 L 1024 575.859375 L 0 575.859375 Z M 0 0.140625 " clip-rule="nonzero"/></clipPath><clipPath id="51d1ec0e84"><path d="M 291.945312 57.710938 L 732.054688 57.710938 L 732.054688 497.824219 L 291.945312 497.824219 Z M 291.945312 57.710938 " clip-rule="nonzero"/></clipPath><clipPath id="d35aca20aa"><path d="M 512 57.710938 C 390.464844 57.710938 291.945312 156.234375 291.945312 277.769531 C 291.945312 399.300781 390.464844 497.824219 512 497.824219 C 633.535156 497.824219 732.054688 399.300781 732.054688 277.769531 C 732.054688 156.234375 633.535156 57.710938 512 57.710938 Z M 512 57.710938 " clip-rule="nonzero"/></clipPath><clipPath id="d24b392209"><path d="M 0.945312 0.710938 L 441.054688 0.710938 L 441.054688 440.824219 L 0.945312 440.824219 Z M 0.945312 0.710938 " clip-rule="nonzero"/></clipPath><clipPath id="4c2124aa47"><path d="M 221 0.710938 C 99.464844 0.710938 0.945312 99.234375 0.945312 220.769531 C 0.945312 342.300781 99.464844 440.824219 221 440.824219 C 342.535156 440.824219 441.054688 342.300781 441.054688 220.769531 C 441.054688 99.234375 342.535156 0.710938 221 0.710938 Z M 221 0.710938 " clip-rule="nonzero"/></clipPath><clipPath id="0fd793a194"><rect x="0" width="442" y="0" height="441"/></clipPath><clipPath id="0f49bd6d88"><path d="M 299.105469 64.875 L 724.894531 64.875 L 724.894531 490.660156 L 299.105469 490.660156 Z M 299.105469 64.875 " clip-rule="nonzero"/></clipPath><clipPath id="8df7073546"><path d="M 512 64.875 C 394.421875 64.875 299.105469 160.191406 299.105469 277.769531 C 299.105469 395.347656 394.421875 490.660156 512 490.660156 C 629.578125 490.660156 724.894531 395.347656 724.894531 277.769531 C 724.894531 160.191406 629.578125 64.875 512 64.875 Z M 512 64.875 " clip-rule="nonzero"/></clipPath><clipPath id="1ed749cb43"><path d="M 0.105469 0.875 L 425.894531 0.875 L 425.894531 426.660156 L 0.105469 426.660156 Z M 0.105469 0.875 " clip-rule="nonzero"/></clipPath><clipPath id="9df2500524"><path d="M 213 0.875 C 95.421875 0.875 0.105469 96.191406 0.105469 213.769531 C 0.105469 331.347656 95.421875 426.660156 213 426.660156 C 330.578125 426.660156 425.894531 331.347656 425.894531 213.769531 C 425.894531 96.191406 330.578125 0.875 213 0.875 Z M 213 0.875 " clip-rule="nonzero"/></clipPath><clipPath id="2149433ae3"><rect x="0" width="426" y="0" height="427"/></clipPath><clipPath id="d88b455437"><path d="M 362.519531 254 L 557 254 L 557 414.929688 L 362.519531 414.929688 Z M 362.519531 254 " clip-rule="nonzero"/></clipPath><clipPath id="d13dd60b72"><path d="M 463 318 L 481 318 L 481 414.929688 L 463 414.929688 Z M 463 318 " clip-rule="nonzero"/></clipPath><clipPath id="655b435717"><path d="M 491 318 L 509 318 L 509 414.929688 L 491 414.929688 Z M 491 318 " clip-rule="nonzero"/></clipPath><clipPath id="b480762972"><path d="M 400 366 L 409 366 L 409 414.929688 L 400 414.929688 Z M 400 366 " clip-rule="nonzero"/></clipPath><clipPath id="bf9357a688"><path d="M 410 112.828125 L 557 112.828125 L 557 183 L 410 183 Z M 410 112.828125 " clip-rule="nonzero"/></clipPath><clipPath id="8631bd3bc1"><path d="M 547 264 L 661.625 264 L 661.625 414.929688 L 547 414.929688 Z M 547 264 " clip-rule="nonzero"/></clipPath></defs><g clip-path="url(#af85a5e7d8)"><path fill="#ffffff" d="M 0 0.140625 L 1024 0.140625 L 1024 575.859375 L 0 575.859375 Z M 0 0.140625 " fill-opacity="1" fill-rule="nonzero"/></g><g clip-path="url(#51d1ec0e84)"><g clip-path="url(#d35aca20aa)"><g transform="matrix(1, 0, 0, 1, 291, 57)"><g clip-path="url(#0fd793a194)"><g clip-path="url(#d24b392209)"><g clip-path="url(#4c2124aa47)"><path fill="#975ab6" d="M 0.945312 0.710938 L 441.054688 0.710938 L 441.054688 440.824219 L 0.945312 440.824219 Z M 0.945312 0.710938 " fill-opacity="1" fill-rule="nonzero"/></g></g></g></g></g></g><g clip-path="url(#0f49bd6d88)"><g clip-path="url(#8df7073546)"><g transform="matrix(1, 0, 0, 1, 299, 64)"><g clip-path="url(#2149433ae3)"><g clip-path="url(#1ed749cb43)"><g clip-path="url(#9df2500524)"><path fill="#ffffff" d="M 0.105469 0.875 L 425.894531 0.875 L 425.894531 426.660156 L 0.105469 426.660156 Z M 0.105469 0.875 " fill-opacity="1" fill-rule="nonzero"/></g></g></g></g></g></g><g clip-path="url(#d88b455437)"><path fill="#975ab6" d="M 552.019531 415.1875 L 366.667969 415.1875 C 364.421875 415.1875 362.585938 413.351562 362.585938 411.105469 L 362.585938 344.261719 C 362.585938 324.25 375.179688 306.144531 393.898438 299.199219 L 454.816406 276.464844 L 454.816406 260.0625 C 454.816406 257.8125 456.65625 255.976562 458.902344 255.976562 C 461.148438 255.976562 462.988281 257.8125 462.988281 260.0625 L 462.988281 279.257812 C 462.988281 280.957031 461.898438 282.457031 460.332031 283.066406 L 396.753906 306.824219 C 381.167969 312.609375 370.753906 327.652344 370.753906 344.261719 L 370.753906 407.019531 L 552.019531 407.019531 C 554.265625 407.019531 556.105469 408.859375 556.105469 411.105469 C 556.105469 413.351562 554.265625 415.1875 552.019531 415.1875 Z M 551.40625 299.0625 C 550.929688 299.0625 550.386719 298.996094 549.910156 298.792969 L 509.339844 283.136719 C 507.777344 282.523438 506.753906 281.027344 506.753906 279.324219 L 506.753906 258.765625 C 506.753906 256.519531 508.59375 254.683594 510.839844 254.683594 C 513.085938 254.683594 514.921875 256.519531 514.921875 258.765625 L 514.921875 276.464844 L 552.835938 291.167969 C 554.945312 291.984375 555.96875 294.367188 555.152344 296.476562 C 554.605469 298.042969 553.042969 299.0625 551.40625 299.0625 Z M 551.40625 299.0625 " fill-opacity="1" fill-rule="nonzero"/></g><path fill="#975ab6" d="M 506.550781 329.832031 C 505.527344 329.832031 504.578125 329.492188 503.828125 328.808594 L 483.40625 310.703125 C 483.339844 310.636719 483.269531 310.566406 483.203125 310.5 L 455.976562 282.183594 C 454.410156 280.550781 454.476562 277.960938 456.113281 276.398438 C 457.746094 274.832031 460.332031 274.898438 461.898438 276.535156 L 488.988281 304.714844 L 506.140625 319.960938 L 533.777344 286.8125 C 535.207031 285.109375 537.792969 284.835938 539.5625 286.265625 C 541.332031 287.695312 541.539062 290.28125 540.109375 292.054688 L 509.816406 328.46875 C 509.136719 329.285156 508.117188 329.832031 506.957031 329.898438 C 506.753906 329.832031 506.617188 329.832031 506.550781 329.832031 Z M 506.550781 329.832031 " fill-opacity="1" fill-rule="nonzero"/><path fill="#975ab6" d="M 465.710938 329.832031 C 465.640625 329.832031 465.503906 329.832031 465.4375 329.832031 C 464.347656 329.761719 463.328125 329.21875 462.578125 328.402344 L 431.472656 291.03125 C 430.042969 289.332031 430.246094 286.742188 432.015625 285.246094 C 433.71875 283.816406 436.304688 284.019531 437.800781 285.789062 L 466.1875 319.894531 L 483.269531 304.714844 L 507.84375 276.601562 C 509.339844 274.898438 511.925781 274.761719 513.628906 276.191406 C 515.332031 277.691406 515.46875 280.277344 514.039062 281.980469 L 489.261719 310.296875 C 489.125 310.429688 489.058594 310.566406 488.921875 310.636719 L 468.5 328.742188 C 467.683594 329.421875 466.730469 329.832031 465.710938 329.832031 Z M 465.710938 329.832031 " fill-opacity="1" fill-rule="nonzero"/><g clip-path="url(#d13dd60b72)"><path fill="#975ab6" d="M 467.480469 415.1875 C 467.34375 415.1875 467.136719 415.1875 467.003906 415.1875 C 464.757812 414.917969 463.191406 412.875 463.394531 410.628906 L 472.109375 336.367188 L 465.980469 324.046875 C 464.960938 322.003906 465.777344 319.550781 467.820312 318.597656 C 469.863281 317.578125 472.3125 318.394531 473.265625 320.4375 L 479.933594 333.847656 C 480.277344 334.527344 480.410156 335.34375 480.34375 336.160156 L 471.496094 411.648438 C 471.289062 413.625 469.519531 415.1875 467.480469 415.1875 Z M 467.480469 415.1875 " fill-opacity="1" fill-rule="nonzero"/></g><g clip-path="url(#655b435717)"><path fill="#975ab6" d="M 504.710938 415.1875 C 502.671875 415.1875 500.902344 413.691406 500.628906 411.582031 L 491.78125 336.09375 C 491.710938 335.277344 491.847656 334.527344 492.1875 333.777344 L 498.859375 320.371094 C 499.878906 318.328125 502.328125 317.511719 504.304688 318.53125 C 506.277344 319.550781 507.164062 322.003906 506.140625 323.976562 L 500.015625 336.296875 L 508.726562 410.558594 C 509 412.804688 507.367188 414.847656 505.121094 415.121094 C 505.054688 415.121094 504.917969 415.1875 504.710938 415.1875 Z M 504.710938 415.1875 " fill-opacity="1" fill-rule="nonzero"/></g><path fill="#975ab6" d="M 495.929688 339.699219 L 476.328125 339.699219 C 474.082031 339.699219 472.242188 337.863281 472.242188 335.617188 C 472.242188 333.371094 474.082031 331.53125 476.328125 331.53125 L 495.929688 331.53125 C 498.179688 331.53125 500.015625 333.371094 500.015625 335.617188 C 500.015625 337.863281 498.179688 339.699219 495.929688 339.699219 Z M 495.929688 339.699219 " fill-opacity="1" fill-rule="nonzero"/><g clip-path="url(#b480762972)"><path fill="#975ab6" d="M 404.582031 415.121094 C 402.335938 415.121094 400.5 413.28125 400.5 411.035156 L 400.5 370.261719 C 400.5 368.015625 402.335938 366.179688 404.582031 366.179688 C 406.828125 366.179688 408.667969 368.015625 408.667969 370.261719 L 408.667969 411.035156 C 408.667969 413.351562 406.828125 415.121094 404.582031 415.121094 Z M 404.582031 415.121094 " fill-opacity="1" fill-rule="nonzero"/></g><path fill="#975ab6" d="M 535.886719 182.734375 L 431.675781 182.734375 C 429.429688 182.734375 427.589844 180.898438 427.589844 178.652344 C 427.589844 176.40625 429.429688 174.566406 431.675781 174.566406 L 535.886719 174.566406 C 538.132812 174.566406 539.972656 176.40625 539.972656 178.652344 C 539.972656 180.898438 538.132812 182.734375 535.886719 182.734375 Z M 535.886719 182.734375 " fill-opacity="1" fill-rule="nonzero"/><g clip-path="url(#bf9357a688)"><path fill="#975ab6" d="M 431.742188 182.734375 C 430.652344 182.734375 429.566406 182.328125 428.746094 181.441406 C 428.203125 180.828125 422.894531 174.90625 411.1875 150.539062 C 410.300781 148.632812 410.914062 146.386719 412.683594 145.296875 C 414.453125 144.207031 455.976562 118.410156 482.929688 112.964844 C 483.476562 112.828125 484.019531 112.828125 484.5625 112.964844 C 511.519531 118.410156 553.109375 144.207031 554.878906 145.296875 C 556.648438 146.386719 557.328125 148.632812 556.375 150.539062 C 544.738281 174.90625 539.425781 180.828125 538.816406 181.441406 C 537.25 183.074219 534.664062 183.144531 533.027344 181.578125 C 531.394531 180.011719 531.328125 177.492188 532.824219 175.859375 C 532.960938 175.722656 537.519531 170.484375 547.324219 150.402344 C 537.25 144.34375 505.121094 125.828125 483.679688 121.199219 C 462.238281 125.828125 430.109375 144.34375 420.101562 150.402344 C 430.042969 170.6875 434.601562 175.859375 434.601562 175.929688 C 436.167969 177.5625 436.097656 180.148438 434.464844 181.714844 C 433.71875 182.394531 432.765625 182.734375 431.742188 182.734375 Z M 431.742188 182.734375 " fill-opacity="1" fill-rule="nonzero"/></g><path fill="#975ab6" d="M 483.746094 215.476562 C 452.777344 215.476562 427.589844 198.933594 427.589844 178.652344 C 427.589844 176.40625 429.429688 174.566406 431.675781 174.566406 C 433.921875 174.566406 435.757812 176.40625 435.757812 178.652344 C 435.757812 185.660156 440.660156 192.742188 449.101562 198.117188 C 458.359375 204.039062 470.679688 207.238281 483.746094 207.238281 C 496.816406 207.238281 509.136719 203.972656 518.394531 198.050781 C 526.902344 192.671875 531.804688 185.527344 531.804688 178.582031 C 531.804688 176.335938 533.640625 174.5 535.886719 174.5 C 538.132812 174.5 539.972656 176.335938 539.972656 178.582031 C 539.972656 198.933594 514.785156 215.476562 483.746094 215.476562 Z M 483.746094 215.476562 " fill-opacity="1" fill-rule="nonzero"/><path fill="#975ab6" d="M 483.746094 270.542969 C 468.910156 270.542969 454.886719 264.757812 444.335938 254.273438 C 433.71875 243.722656 427.863281 229.632812 427.863281 214.660156 L 427.863281 182.257812 C 427.863281 180.011719 429.699219 178.175781 431.945312 178.175781 C 434.195312 178.175781 436.03125 180.011719 436.03125 182.257812 L 436.03125 214.660156 C 436.03125 227.457031 441 239.503906 450.121094 248.488281 C 459.175781 257.542969 471.289062 262.441406 484.019531 262.375 C 510.15625 262.238281 531.464844 240.796875 531.464844 214.660156 L 531.464844 182.257812 C 531.464844 180.011719 533.300781 178.175781 535.546875 178.175781 C 537.792969 178.175781 539.632812 180.011719 539.632812 182.257812 L 539.632812 214.660156 C 539.632812 245.289062 514.71875 270.339844 484.085938 270.542969 C 484.019531 270.542969 483.882812 270.542969 483.746094 270.542969 Z M 483.746094 270.542969 " fill-opacity="1" fill-rule="nonzero"/><path fill="#975ab6" d="M 483.816406 164.492188 C 475.171875 164.492188 468.160156 157.480469 468.160156 148.835938 C 468.160156 140.191406 475.171875 133.179688 483.816406 133.179688 C 492.460938 133.179688 499.472656 140.191406 499.472656 148.835938 C 499.472656 157.480469 492.390625 164.492188 483.816406 164.492188 Z M 483.816406 141.417969 C 479.664062 141.417969 476.328125 144.753906 476.328125 148.90625 C 476.328125 153.058594 479.664062 156.390625 483.816406 156.390625 C 487.96875 156.390625 491.304688 153.058594 491.304688 148.90625 C 491.304688 144.753906 487.898438 141.417969 483.816406 141.417969 Z M 483.816406 141.417969 " fill-opacity="1" fill-rule="nonzero"/><path fill="#975ab6" d="M 384.027344 313.289062 C 382.460938 313.289062 380.964844 312.40625 380.285156 310.839844 L 374.359375 297.15625 C 373.542969 295.320312 373.542969 293.277344 374.292969 291.441406 C 375.042969 289.601562 376.472656 288.105469 378.308594 287.355469 L 410.847656 273.605469 C 414.589844 272.039062 419.015625 273.742188 420.648438 277.554688 L 426.570312 291.167969 C 427.453125 293.210938 426.5 295.660156 424.460938 296.546875 C 422.417969 297.429688 419.96875 296.476562 419.082031 294.433594 L 413.433594 281.433594 L 382.121094 294.640625 L 387.769531 307.640625 C 388.65625 309.683594 387.703125 312.132812 385.660156 313.019531 C 385.117188 313.222656 384.570312 313.289062 384.027344 313.289062 Z M 384.027344 313.289062 " fill-opacity="1" fill-rule="nonzero"/><g clip-path="url(#8631bd3bc1)"><path fill="#975ab6" d="M 657.253906 415.1875 L 551.40625 415.1875 C 549.160156 415.1875 547.324219 413.351562 547.324219 411.105469 L 547.324219 268.839844 C 547.324219 266.59375 549.160156 264.757812 551.40625 264.757812 L 576.523438 264.757812 C 578.769531 264.757812 580.609375 266.59375 580.609375 268.839844 L 580.609375 273.46875 C 580.609375 274.761719 581.699219 275.921875 583.058594 275.921875 L 625.671875 275.921875 C 626.964844 275.921875 628.121094 274.832031 628.121094 273.46875 L 628.121094 268.839844 C 628.121094 266.59375 629.957031 264.757812 632.203125 264.757812 L 657.320312 264.757812 C 659.566406 264.757812 661.40625 266.59375 661.40625 268.839844 L 661.40625 411.105469 C 661.339844 413.351562 659.5 415.1875 657.253906 415.1875 Z M 555.492188 407.019531 L 653.167969 407.019531 L 653.167969 272.925781 L 636.222656 272.925781 L 636.222656 273.46875 C 636.222656 279.324219 631.457031 284.089844 625.601562 284.089844 L 582.992188 284.089844 C 577.136719 284.089844 572.371094 279.324219 572.371094 273.46875 L 572.371094 272.925781 L 555.421875 272.925781 L 555.421875 407.019531 Z M 555.492188 407.019531 " fill-opacity="1" fill-rule="nonzero"/></g><path fill="#975ab6" d="M 625.671875 284.089844 L 583.058594 284.089844 C 577.207031 284.089844 572.441406 279.324219 572.441406 273.46875 L 572.441406 264.210938 C 572.441406 258.359375 577.207031 253.59375 583.058594 253.59375 L 625.671875 253.59375 C 631.523438 253.59375 636.289062 258.359375 636.289062 264.210938 L 636.289062 273.46875 C 636.289062 279.324219 631.523438 284.089844 625.671875 284.089844 Z M 583.058594 261.695312 C 581.699219 261.695312 580.609375 262.785156 580.609375 264.144531 L 580.609375 273.402344 C 580.609375 274.761719 581.699219 275.851562 583.058594 275.851562 L 625.671875 275.851562 C 627.03125 275.851562 628.121094 274.761719 628.121094 273.402344 L 628.121094 264.144531 C 628.121094 262.785156 627.03125 261.695312 625.671875 261.695312 Z M 583.058594 261.695312 " fill-opacity="1" fill-rule="nonzero"/><path fill="#975ab6" d="M 568.015625 313.019531 C 566.925781 313.019531 565.90625 312.609375 565.15625 311.792969 L 562.027344 308.660156 C 560.460938 307.097656 560.460938 304.507812 562.027344 302.875 C 563.589844 301.242188 566.179688 301.308594 567.8125 302.875 L 568.085938 303.148438 L 576.320312 294.910156 C 577.886719 293.347656 580.472656 293.347656 582.105469 294.910156 C 583.671875 296.476562 583.671875 299.0625 582.105469 300.699219 L 571.011719 311.792969 C 570.125 312.609375 569.105469 313.019531 568.015625 313.019531 Z M 568.015625 313.019531 " fill-opacity="1" fill-rule="nonzero"/><path fill="#975ab6" d="M 643.84375 307.4375 L 596.128906 307.4375 C 593.882812 307.4375 592.042969 305.597656 592.042969 303.351562 C 592.042969 301.105469 593.882812 299.269531 596.128906 299.269531 L 643.84375 299.269531 C 646.089844 299.269531 647.929688 301.105469 647.929688 303.351562 C 647.929688 305.597656 646.089844 307.4375 643.84375 307.4375 Z M 643.84375 307.4375 " fill-opacity="1" fill-rule="nonzero"/><path fill="#975ab6" d="M 568.015625 337.386719 C 566.925781 337.386719 565.90625 336.976562 565.15625 336.160156 L 562.027344 333.03125 C 560.460938 331.464844 560.460938 328.878906 562.027344 327.246094 C 563.589844 325.609375 566.179688 325.679688 567.8125 327.246094 L 568.085938 327.515625 L 576.320312 319.28125 C 577.886719 317.714844 580.472656 317.714844 582.105469 319.28125 C 583.738281 320.847656 583.671875 323.433594 582.105469 325.066406 L 571.011719 336.160156 C 570.125 336.976562 569.105469 337.386719 568.015625 337.386719 Z M 568.015625 337.386719 " fill-opacity="1" fill-rule="nonzero"/><path fill="#975ab6" d="M 643.84375 331.804688 L 596.128906 331.804688 C 593.882812 331.804688 592.042969 329.96875 592.042969 327.722656 C 592.042969 325.472656 593.882812 323.636719 596.128906 323.636719 L 643.84375 323.636719 C 646.089844 323.636719 647.929688 325.472656 647.929688 327.722656 C 647.929688 329.96875 646.089844 331.804688 643.84375 331.804688 Z M 643.84375 331.804688 " fill-opacity="1" fill-rule="nonzero"/><path fill="#975ab6" d="M 568.015625 361.753906 C 566.925781 361.753906 565.90625 361.347656 565.15625 360.53125 L 562.027344 357.398438 C 560.460938 355.832031 560.460938 353.246094 562.027344 351.613281 C 563.589844 350.046875 566.179688 350.046875 567.8125 351.613281 L 568.085938 351.886719 L 576.320312 343.648438 C 577.886719 342.082031 580.472656 342.082031 582.105469 343.648438 C 583.671875 345.214844 583.671875 347.800781 582.105469 349.433594 L 571.011719 360.53125 C 570.125 361.347656 569.105469 361.753906 568.015625 361.753906 Z M 568.015625 361.753906 " fill-opacity="1" fill-rule="nonzero"/><path fill="#975ab6" d="M 643.84375 356.242188 L 596.128906 356.242188 C 593.882812 356.242188 592.042969 354.402344 592.042969 352.15625 C 592.042969 349.910156 593.882812 348.074219 596.128906 348.074219 L 643.84375 348.074219 C 646.089844 348.074219 647.929688 349.910156 647.929688 352.15625 C 647.929688 354.402344 646.089844 356.242188 643.84375 356.242188 Z M 643.84375 356.242188 " fill-opacity="1" fill-rule="nonzero"/><path fill="#975ab6" d="M 568.015625 386.125 C 566.925781 386.125 565.90625 385.714844 565.15625 384.898438 L 562.027344 381.765625 C 560.460938 380.203125 560.460938 377.613281 562.027344 375.980469 C 563.589844 374.347656 566.179688 374.414062 567.8125 375.980469 L 568.085938 376.253906 L 576.320312 368.015625 C 577.886719 366.453125 580.472656 366.453125 582.105469 368.015625 C 583.671875 369.582031 583.671875 372.167969 582.105469 373.804688 L 571.011719 384.898438 C 570.125 385.714844 569.105469 386.125 568.015625 386.125 Z M 568.015625 386.125 " fill-opacity="1" fill-rule="nonzero"/><path fill="#975ab6" d="M 643.84375 380.609375 L 596.128906 380.609375 C 593.882812 380.609375 592.042969 378.773438 592.042969 376.527344 C 592.042969 374.28125 593.882812 372.441406 596.128906 372.441406 L 643.84375 372.441406 C 646.089844 372.441406 647.929688 374.28125 647.929688 376.527344 C 647.929688 378.773438 646.089844 380.609375 643.84375 380.609375 Z M 643.84375 380.609375 " fill-opacity="1" fill-rule="nonzero"/></svg>