<svg xmlns="http://www.w3.org/2000/svg" xmlns:xlink="http://www.w3.org/1999/xlink" width="1366" zoomAndPan="magnify" viewBox="0 0 1024.5 576" height="768" preserveAspectRatio="xMidYMid meet" version="1.0"><defs><clipPath id="65e217bb7b"><path d="M 0 0.140625 L 1024 0.140625 L 1024 575.859375 L 0 575.859375 Z M 0 0.140625 " clip-rule="nonzero"/></clipPath><clipPath id="91de85b18b"><path d="M 291.945312 57.710938 L 732.054688 57.710938 L 732.054688 497.824219 L 291.945312 497.824219 Z M 291.945312 57.710938 " clip-rule="nonzero"/></clipPath><clipPath id="a6bd81445e"><path d="M 512 57.710938 C 390.464844 57.710938 291.945312 156.234375 291.945312 277.769531 C 291.945312 399.300781 390.464844 497.824219 512 497.824219 C 633.535156 497.824219 732.054688 399.300781 732.054688 277.769531 C 732.054688 156.234375 633.535156 57.710938 512 57.710938 Z M 512 57.710938 " clip-rule="nonzero"/></clipPath><clipPath id="d74e586f8d"><path d="M 0.945312 0.710938 L 441.054688 0.710938 L 441.054688 440.824219 L 0.945312 440.824219 Z M 0.945312 0.710938 " clip-rule="nonzero"/></clipPath><clipPath id="d4075b5052"><path d="M 221 0.710938 C 99.464844 0.710938 0.945312 99.234375 0.945312 220.769531 C 0.945312 342.300781 99.464844 440.824219 221 440.824219 C 342.535156 440.824219 441.054688 342.300781 441.054688 220.769531 C 441.054688 99.234375 342.535156 0.710938 221 0.710938 Z M 221 0.710938 " clip-rule="nonzero"/></clipPath><clipPath id="cc6a6d2689"><rect x="0" width="442" y="0" height="441"/></clipPath><clipPath id="6610d7c1f0"><path d="M 299.105469 64.875 L 724.894531 64.875 L 724.894531 490.660156 L 299.105469 490.660156 Z M 299.105469 64.875 " clip-rule="nonzero"/></clipPath><clipPath id="b100f8a4c4"><path d="M 512 64.875 C 394.421875 64.875 299.105469 160.191406 299.105469 277.769531 C 299.105469 395.347656 394.421875 490.660156 512 490.660156 C 629.578125 490.660156 724.894531 395.347656 724.894531 277.769531 C 724.894531 160.191406 629.578125 64.875 512 64.875 Z M 512 64.875 " clip-rule="nonzero"/></clipPath><clipPath id="404b0a1d76"><path d="M 0.105469 0.875 L 425.894531 0.875 L 425.894531 426.660156 L 0.105469 426.660156 Z M 0.105469 0.875 " clip-rule="nonzero"/></clipPath><clipPath id="044b244871"><path d="M 213 0.875 C 95.421875 0.875 0.105469 96.191406 0.105469 213.769531 C 0.105469 331.347656 95.421875 426.660156 213 426.660156 C 330.578125 426.660156 425.894531 331.347656 425.894531 213.769531 C 425.894531 96.191406 330.578125 0.875 213 0.875 Z M 213 0.875 " clip-rule="nonzero"/></clipPath><clipPath id="298a5b98ae"><rect x="0" width="426" y="0" height="427"/></clipPath><clipPath id="047a9ecf99"><path d="M 0.753906 110.152344 L 182.957031 110.152344 L 182.957031 324.472656 L 0.753906 324.472656 Z M 0.753906 110.152344 " clip-rule="nonzero"/></clipPath><clipPath id="c3deac712a"><path d="M 96.789062 2.925781 L 311.109375 2.925781 L 311.109375 217.242188 L 96.789062 217.242188 Z M 96.789062 2.925781 " clip-rule="nonzero"/></clipPath><clipPath id="e13d9c40b7"><rect x="0" width="314" y="0" height="325"/></clipPath></defs><g clip-path="url(#65e217bb7b)"><path fill="#ffffff" d="M 0 0.140625 L 1024 0.140625 L 1024 575.859375 L 0 575.859375 Z M 0 0.140625 " fill-opacity="1" fill-rule="nonzero"/></g><g clip-path="url(#91de85b18b)"><g clip-path="url(#a6bd81445e)"><g transform="matrix(1, 0, 0, 1, 291, 57)"><g clip-path="url(#cc6a6d2689)"><g clip-path="url(#d74e586f8d)"><g clip-path="url(#d4075b5052)"><path fill="#975ab6" d="M 0.945312 0.710938 L 441.054688 0.710938 L 441.054688 440.824219 L 0.945312 440.824219 Z M 0.945312 0.710938 " fill-opacity="1" fill-rule="nonzero"/></g></g></g></g></g></g><g clip-path="url(#6610d7c1f0)"><g clip-path="url(#b100f8a4c4)"><g transform="matrix(1, 0, 0, 1, 299, 64)"><g clip-path="url(#298a5b98ae)"><g clip-path="url(#404b0a1d76)"><g clip-path="url(#044b244871)"><path fill="#ffffff" d="M 0.105469 0.875 L 425.894531 0.875 L 425.894531 426.660156 L 0.105469 426.660156 Z M 0.105469 0.875 " fill-opacity="1" fill-rule="nonzero"/></g></g></g></g></g></g><g transform="matrix(1, 0, 0, 1, 356, 114)"><g clip-path="url(#e13d9c40b7)"><g clip-path="url(#047a9ecf99)"><path fill="#975ab6" d="M 90.121094 110.304688 C 94.839844 109.335938 97.785156 113.414062 101.363281 115.78125 C 124.75 131.261719 149.949219 141.308594 177.855469 145.472656 C 184.1875 147.933594 182.636719 158.609375 182.503906 164.296875 C 181.804688 193.488281 178.648438 237.199219 164.296875 262.738281 C 151.15625 286.125 121.246094 311.082031 97.25 322.8125 C 93.175781 324.800781 92.050781 325.316406 87.589844 323.476562 C 67.078125 314.996094 36.582031 288.6875 24.050781 270.367188 C 5.015625 242.542969 1.980469 198.949219 1.003906 165.792969 C 0.886719 161.777344 0.488281 154.527344 1.058594 150.847656 C 2.125 143.925781 13.914062 144.128906 19.476562 142.84375 C 40.773438 137.921875 59.828125 130.035156 78.25 118.371094 C 80.683594 116.828125 88.3125 110.675781 90.121094 110.304688 Z M 168.519531 157.550781 C 141.035156 153.308594 114.40625 141.867188 91.929688 125.679688 C 69.035156 141.636719 42.738281 153.28125 14.988281 157.550781 C 15.285156 176.304688 16.390625 195.449219 19.042969 214.054688 C 20.125 221.664062 21.554688 230.023438 23.597656 237.414062 C 32.761719 270.53125 62.800781 293.417969 91.253906 309.824219 C 119.941406 294.730469 150.566406 270.226562 159.796875 237.804688 C 165.660156 217.222656 167.933594 188.746094 168.542969 167.285156 C 168.632812 164.050781 168.4375 160.785156 168.515625 157.550781 Z M 168.519531 157.550781 " fill-opacity="1" fill-rule="nonzero"/></g><path fill="#975ab6" d="M 116.730469 207.347656 C 120.675781 207.847656 123.179688 209.742188 124.125 213.660156 C 123.210938 226.023438 125.457031 240.390625 124.15625 252.511719 C 123.796875 255.886719 121.453125 258.828125 117.9375 259.253906 C 103.425781 261.003906 85.429688 257.9375 70.546875 259.21875 C 65.925781 260.671875 59.96875 258.269531 59.339844 253.023438 C 57.875 240.878906 60.359375 225.707031 59.464844 213.246094 C 60.308594 209.546875 63.175781 207.839844 66.777344 207.347656 C 66.667969 196.082031 65.710938 184.972656 74.796875 176.734375 C 86.199219 166.398438 104.160156 168.371094 112.503906 181.414062 C 117.859375 189.78125 116.589844 197.859375 116.726562 207.351562 Z M 108.203125 207.398438 L 108.203125 193.191406 C 108.203125 185.597656 99.234375 178.554688 91.976562 178.46875 C 84.601562 178.382812 75.300781 185.511719 75.300781 193.191406 L 75.300781 207.398438 Z M 96.738281 246.28125 L 94.863281 234.121094 C 99.507812 230.886719 100.132812 223.613281 94.242188 221.609375 C 85.914062 218.769531 81.609375 229.132812 88.558594 234.042969 L 86.769531 246.28125 Z M 96.738281 246.28125 " fill-opacity="1" fill-rule="nonzero"/><g clip-path="url(#c3deac712a)"><path fill="#975ab6" d="M 303.429688 126.921875 C 307.636719 126.921875 311.078125 123.476562 311.078125 119.269531 L 311.078125 100.773438 C 311.078125 96.566406 307.636719 93.125 303.429688 93.125 L 295.484375 93.125 C 291.277344 93.125 286.824219 89.832031 285.585938 85.808594 L 278.808594 69.355469 C 276.820312 65.648438 277.625 60.179688 280.597656 57.207031 L 286.222656 51.585938 C 289.195312 48.609375 289.199219 43.742188 286.222656 40.765625 L 273.144531 27.6875 C 270.167969 24.710938 265.300781 24.710938 262.324219 27.6875 L 256.699219 33.308594 C 253.726562 36.285156 248.253906 37.089844 244.550781 35.097656 L 228.097656 28.320312 C 224.074219 27.085938 220.785156 22.628906 220.785156 18.421875 L 220.785156 10.480469 C 220.785156 6.273438 217.34375 2.828125 213.136719 2.828125 L 194.636719 2.828125 C 190.429688 2.828125 186.988281 6.273438 186.988281 10.480469 L 186.988281 18.421875 C 186.988281 22.628906 183.695312 27.085938 179.675781 28.320312 L 163.222656 35.097656 C 159.515625 37.089844 154.046875 36.28125 151.074219 33.308594 L 145.453125 27.683594 C 142.476562 24.707031 137.609375 24.707031 134.632812 27.683594 L 121.554688 40.761719 C 118.578125 43.738281 118.578125 48.605469 121.554688 51.582031 L 127.179688 57.203125 C 130.15625 60.179688 130.957031 65.648438 128.96875 69.355469 L 122.191406 85.808594 C 120.953125 89.832031 116.5 93.121094 112.292969 93.121094 L 104.351562 93.121094 C 100.144531 93.121094 96.703125 96.5625 96.703125 100.769531 L 96.703125 119.269531 C 96.703125 123.476562 100.144531 126.921875 104.351562 126.921875 L 112.292969 126.921875 C 116.5 126.921875 120.953125 130.210938 122.191406 134.230469 L 128.972656 150.6875 C 130.964844 154.394531 130.15625 159.863281 127.183594 162.835938 L 121.558594 168.460938 C 118.582031 171.433594 118.582031 176.300781 121.558594 179.277344 L 134.632812 192.355469 C 137.609375 195.332031 142.476562 195.328125 145.453125 192.355469 L 151.078125 186.730469 C 154.054688 183.757812 159.519531 182.953125 163.226562 184.945312 L 179.679688 191.722656 C 183.703125 192.957031 186.992188 197.410156 186.992188 201.621094 L 186.992188 209.5625 C 186.992188 213.769531 190.433594 217.214844 194.640625 217.214844 L 213.136719 217.214844 C 217.34375 217.214844 220.789062 213.769531 220.789062 209.5625 L 220.789062 201.617188 C 220.789062 197.410156 224.078125 192.957031 228.097656 191.71875 L 244.554688 184.945312 C 248.257812 182.953125 253.726562 183.753906 256.699219 186.730469 L 262.328125 192.355469 C 265.300781 195.332031 270.171875 195.328125 273.144531 192.355469 L 286.222656 179.277344 C 289.199219 176.304688 289.199219 171.433594 286.222656 168.457031 L 280.601562 162.835938 C 277.625 159.859375 276.824219 154.390625 278.8125 150.6875 L 285.585938 134.230469 C 286.824219 130.210938 291.277344 126.921875 295.488281 126.921875 Z M 203.886719 154.121094 C 179.53125 154.121094 159.789062 134.375 159.789062 110.023438 C 159.789062 85.664062 179.53125 65.921875 203.886719 65.921875 C 228.242188 65.921875 247.988281 85.664062 247.988281 110.023438 C 247.988281 134.375 228.242188 154.121094 203.886719 154.121094 Z M 203.886719 154.121094 " fill-opacity="1" fill-rule="nonzero"/></g></g></g></svg>