<svg xmlns="http://www.w3.org/2000/svg" xmlns:xlink="http://www.w3.org/1999/xlink" width="1366" zoomAndPan="magnify" viewBox="0 0 1024.5 576" height="768" preserveAspectRatio="xMidYMid meet" version="1.0"><defs><clipPath id="991a8e2672"><path d="M 0 0.140625 L 1024 0.140625 L 1024 575.859375 L 0 575.859375 Z M 0 0.140625 " clip-rule="nonzero"/></clipPath><clipPath id="2f90e07fd2"><path d="M 291.945312 57.710938 L 732.054688 57.710938 L 732.054688 497.824219 L 291.945312 497.824219 Z M 291.945312 57.710938 " clip-rule="nonzero"/></clipPath><clipPath id="bd76c807d2"><path d="M 512 57.710938 C 390.464844 57.710938 291.945312 156.234375 291.945312 277.769531 C 291.945312 399.300781 390.464844 497.824219 512 497.824219 C 633.535156 497.824219 732.054688 399.300781 732.054688 277.769531 C 732.054688 156.234375 633.535156 57.710938 512 57.710938 Z M 512 57.710938 " clip-rule="nonzero"/></clipPath><clipPath id="79c85ec781"><path d="M 0.945312 0.710938 L 441.054688 0.710938 L 441.054688 440.824219 L 0.945312 440.824219 Z M 0.945312 0.710938 " clip-rule="nonzero"/></clipPath><clipPath id="1800a4ec05"><path d="M 221 0.710938 C 99.464844 0.710938 0.945312 99.234375 0.945312 220.769531 C 0.945312 342.300781 99.464844 440.824219 221 440.824219 C 342.535156 440.824219 441.054688 342.300781 441.054688 220.769531 C 441.054688 99.234375 342.535156 0.710938 221 0.710938 Z M 221 0.710938 " clip-rule="nonzero"/></clipPath><clipPath id="0bd85d91a9"><rect x="0" width="442" y="0" height="441"/></clipPath><clipPath id="7aa48955aa"><path d="M 299.105469 64.875 L 724.894531 64.875 L 724.894531 490.660156 L 299.105469 490.660156 Z M 299.105469 64.875 " clip-rule="nonzero"/></clipPath><clipPath id="29d8b631b8"><path d="M 512 64.875 C 394.421875 64.875 299.105469 160.191406 299.105469 277.769531 C 299.105469 395.347656 394.421875 490.660156 512 490.660156 C 629.578125 490.660156 724.894531 395.347656 724.894531 277.769531 C 724.894531 160.191406 629.578125 64.875 512 64.875 Z M 512 64.875 " clip-rule="nonzero"/></clipPath><clipPath id="83b7659ef5"><path d="M 0.105469 0.875 L 425.894531 0.875 L 425.894531 426.660156 L 0.105469 426.660156 Z M 0.105469 0.875 " clip-rule="nonzero"/></clipPath><clipPath id="ac039f9a6a"><path d="M 213 0.875 C 95.421875 0.875 0.105469 96.191406 0.105469 213.769531 C 0.105469 331.347656 95.421875 426.660156 213 426.660156 C 330.578125 426.660156 425.894531 331.347656 425.894531 213.769531 C 425.894531 96.191406 330.578125 0.875 213 0.875 Z M 213 0.875 " clip-rule="nonzero"/></clipPath><clipPath id="d1027909ea"><rect x="0" width="426" y="0" height="427"/></clipPath><clipPath id="475cbe016b"><path d="M 381 128.496094 L 643 128.496094 L 643 426.847656 L 381 426.847656 Z M 381 128.496094 " clip-rule="nonzero"/></clipPath></defs><g clip-path="url(#991a8e2672)"><path fill="#ffffff" d="M 0 0.140625 L 1024 0.140625 L 1024 575.859375 L 0 575.859375 Z M 0 0.140625 " fill-opacity="1" fill-rule="nonzero"/></g><g clip-path="url(#2f90e07fd2)"><g clip-path="url(#bd76c807d2)"><g transform="matrix(1, 0, 0, 1, 291, 57)"><g clip-path="url(#0bd85d91a9)"><g clip-path="url(#79c85ec781)"><g clip-path="url(#1800a4ec05)"><path fill="#975ab6" d="M 0.945312 0.710938 L 441.054688 0.710938 L 441.054688 440.824219 L 0.945312 440.824219 Z M 0.945312 0.710938 " fill-opacity="1" fill-rule="nonzero"/></g></g></g></g></g></g><g clip-path="url(#7aa48955aa)"><g clip-path="url(#29d8b631b8)"><g transform="matrix(1, 0, 0, 1, 299, 64)"><g clip-path="url(#d1027909ea)"><g clip-path="url(#83b7659ef5)"><g clip-path="url(#ac039f9a6a)"><path fill="#ffffff" d="M 0.105469 0.875 L 425.894531 0.875 L 425.894531 426.660156 L 0.105469 426.660156 Z M 0.105469 0.875 " fill-opacity="1" fill-rule="nonzero"/></g></g></g></g></g></g><g clip-path="url(#475cbe016b)"><path fill="#975ab6" d="M 630.5 346.863281 L 582.921875 346.863281 C 565.253906 346.863281 562.164062 358.230469 562.164062 371.914062 L 562.164062 414.675781 L 406.730469 414.675781 C 399.421875 414.675781 393.476562 408.726562 393.476562 401.417969 L 393.476562 213.820312 L 630.5 213.820312 Z M 428.109375 166.199219 L 453.824219 166.199219 L 453.824219 190.359375 C 453.824219 197.472656 448.070312 203.226562 440.957031 203.226562 C 433.863281 203.226562 428.109375 197.472656 428.109375 190.359375 Z M 572.65625 166.199219 L 598.371094 166.199219 L 598.371094 190.359375 C 598.371094 197.472656 592.621094 203.226562 585.523438 203.226562 C 578.410156 203.226562 572.65625 197.472656 572.65625 190.359375 Z M 617.265625 165.289062 L 598.371094 165.289062 L 598.371094 141.359375 C 598.371094 134.246094 592.621094 128.496094 585.523438 128.496094 C 578.410156 128.496094 572.65625 134.246094 572.65625 141.359375 L 572.65625 165.289062 L 453.824219 165.289062 L 453.824219 141.359375 C 453.824219 134.246094 448.070312 128.496094 440.957031 128.496094 C 433.863281 128.496094 428.109375 134.246094 428.109375 141.359375 L 428.109375 165.289062 L 406.730469 165.289062 C 392.621094 165.289062 381.113281 176.773438 381.113281 190.90625 L 381.113281 401.417969 C 381.113281 415.53125 392.621094 427.035156 406.730469 427.035156 L 562.707031 427.035156 L 575.066406 414.675781 L 630.5 359.222656 L 642.882812 346.863281 L 642.882812 190.90625 C 642.882812 176.773438 631.375 165.289062 617.265625 165.289062 " fill-opacity="1" fill-rule="nonzero"/></g><path fill="#975ab6" d="M 455.28125 240.3125 L 412.890625 240.3125 L 412.890625 282.722656 L 455.28125 282.722656 L 455.28125 240.3125 " fill-opacity="1" fill-rule="nonzero"/><path fill="#975ab6" d="M 507.410156 240.3125 L 465 240.3125 L 465 282.722656 L 507.410156 282.722656 L 507.410156 240.3125 " fill-opacity="1" fill-rule="nonzero"/><path fill="#975ab6" d="M 559.519531 240.3125 L 517.109375 240.3125 L 517.109375 282.722656 L 559.519531 282.722656 L 559.519531 240.3125 " fill-opacity="1" fill-rule="nonzero"/><path fill="#975ab6" d="M 611.628906 240.3125 L 569.238281 240.3125 L 569.238281 282.722656 L 611.628906 282.722656 L 611.628906 240.3125 " fill-opacity="1" fill-rule="nonzero"/><path fill="#975ab6" d="M 455.28125 292.441406 L 412.890625 292.441406 L 412.890625 334.832031 L 455.28125 334.832031 L 455.28125 292.441406 " fill-opacity="1" fill-rule="nonzero"/><path fill="#975ab6" d="M 507.410156 292.441406 L 465 292.441406 L 465 334.832031 L 507.410156 334.832031 L 507.410156 292.441406 " fill-opacity="1" fill-rule="nonzero"/><path fill="#975ab6" d="M 559.519531 292.441406 L 517.109375 292.441406 L 517.109375 334.832031 L 559.519531 334.832031 L 559.519531 292.441406 " fill-opacity="1" fill-rule="nonzero"/><path fill="#975ab6" d="M 611.628906 292.441406 L 569.238281 292.441406 L 569.238281 334.832031 L 611.628906 334.832031 L 611.628906 292.441406 " fill-opacity="1" fill-rule="nonzero"/><path fill="#975ab6" d="M 455.28125 344.546875 L 412.890625 344.546875 L 412.890625 386.9375 L 455.28125 386.9375 L 455.28125 344.546875 " fill-opacity="1" fill-rule="nonzero"/><path fill="#975ab6" d="M 507.410156 344.546875 L 465 344.546875 L 465 386.9375 L 507.410156 386.9375 L 507.410156 344.546875 " fill-opacity="1" fill-rule="nonzero"/></svg>