<svg xmlns="http://www.w3.org/2000/svg" xmlns:xlink="http://www.w3.org/1999/xlink" width="1080" zoomAndPan="magnify" viewBox="0 0 810 424.499987" height="566" preserveAspectRatio="xMidYMid meet" version="1.0"><defs><clipPath id="9f91d94647"><path d="M 199 35.222656 L 610.859375 35.222656 L 610.859375 388 L 199 388 Z M 199 35.222656 " clip-rule="nonzero"/></clipPath></defs><g clip-path="url(#9f91d94647)"><path fill="#975ab6" d="M 398.628906 387.074219 L 236.671875 387.085938 C 227.011719 387.089844 216.125 388.757812 207.914062 382.550781 C 204.429688 379.917969 200.730469 374.769531 200.167969 370.335938 C 198.839844 359.925781 199.839844 355.472656 203.769531 346.496094 L 232.515625 285.820312 C 235.121094 280.890625 237.636719 275.691406 241.09375 271.296875 C 236.890625 263.621094 238.074219 254.511719 238.066406 246.097656 L 238.0625 69.097656 C 238.070312 65.339844 237.753906 61.128906 238.683594 57.464844 C 242.429688 42.730469 254.285156 35.3125 268.785156 35.300781 L 412.78125 35.292969 L 544.5625 35.289062 C 558.714844 35.363281 570.546875 44.839844 572.707031 59.105469 C 573.023438 61.1875 572.863281 63.417969 572.859375 65.519531 L 572.867188 254.953125 C 572.871094 259.574219 572.875 263.816406 571.210938 268.199219 C 570.464844 270.164062 569.660156 270.125 570.800781 271.914062 L 578.175781 284.976562 L 594.582031 319.402344 C 598.308594 327.1875 611.035156 350.398438 611.132812 358.132812 L 611.15625 365.515625 C 611.128906 376.433594 604.039062 384.941406 593.046875 386.675781 C 590.28125 387.113281 587.332031 387.046875 584.539062 387.054688 Z M 266.996094 47.707031 C 261.601562 48.25 257.382812 49.867188 253.8125 54.105469 C 249.324219 59.433594 250.648438 67.121094 250.648438 73.570312 L 250.636719 249.953125 C 250.648438 270.972656 253.300781 269.8125 271.082031 269.824219 L 544.976562 269.824219 L 552.433594 269.769531 C 553.371094 269.671875 554.109375 269.460938 554.890625 268.953125 L 555.1875 268.765625 C 557.617188 267.210938 559.234375 265.003906 559.988281 262.230469 L 560.0625 261.96875 C 560.5 260.328125 560.28125 258.226562 560.277344 256.527344 L 560.238281 62.683594 C 559.992188 55.769531 555.207031 49.609375 548.28125 48.136719 C 544.589844 47.351562 540.335938 47.683594 536.570312 47.683594 L 273.734375 47.679688 C 271.511719 47.683594 269.210938 47.574219 266.996094 47.707031 Z M 249.535156 280.574219 L 216.40625 349.320312 C 215.871094 350.398438 215.59375 351.671875 214.753906 352.535156 L 347.601562 352.515625 C 353.773438 352.488281 351.789062 353.324219 352.792969 347.710938 C 355.023438 335.285156 360.234375 326.851562 373.519531 326.6875 L 438.253906 326.765625 C 451.558594 327.394531 456.734375 335.902344 458.84375 348.496094 C 459.023438 349.570312 458.980469 351.703125 459.53125 352.542969 L 537.410156 352.539062 L 595.773438 352.253906 C 595.171875 351.402344 594.945312 349.96875 594.503906 348.984375 L 572.496094 302.164062 C 568.96875 294.9375 565.535156 287.648438 561.492188 280.6875 C 552.363281 283.199219 542.621094 282.359375 533.222656 282.359375 L 257.925781 282.308594 C 255.183594 282.167969 252.21875 281.191406 249.535156 280.574219 Z M 373.398438 339.285156 L 368.308594 339.710938 L 364.492188 352.34375 L 438.078125 352.539062 L 443.890625 352.503906 C 444.90625 352.496094 446.058594 352.597656 447.054688 352.40625 L 446.984375 352.207031 C 441.957031 337.28125 444.316406 339.253906 428.773438 339.246094 Z M 212.023438 365.140625 L 211.511719 365.511719 C 211.90625 369.441406 215.734375 373.027344 219.378906 374.21875 L 219.601562 374.296875 C 220.847656 374.703125 222.410156 374.597656 223.714844 374.597656 L 583.089844 374.601562 C 585.734375 374.597656 588.636719 374.84375 591.226562 374.296875 L 591.566406 374.230469 C 593.410156 373.847656 594.933594 372.84375 596.339844 371.625 C 598.144531 369.792969 599.074219 368.214844 599.652344 365.6875 C 597.398438 364.96875 594.859375 365.140625 592.519531 365.128906 Z M 212.023438 365.140625 " fill-opacity="1" fill-rule="nonzero"/></g><path fill="#975ab6" d="M 534.753906 257.054688 L 278.582031 256.980469 C 262.824219 257.019531 263.046875 251.996094 263.019531 238.871094 L 263.066406 71.65625 C 263.210938 66.582031 265.453125 62.261719 270.695312 60.679688 L 271.070312 60.570312 C 271.449219 60.453125 271.824219 60.339844 272.222656 60.289062 L 276.261719 60.125 L 534.890625 60.144531 C 536.589844 60.15625 538.277344 60.0625 539.890625 60.6875 L 540.242188 60.828125 C 550.117188 64.683594 548 75.667969 548.003906 84.097656 L 547.988281 242.867188 C 547.960938 248.464844 547.855469 252.71875 542.261719 255.84375 L 541.960938 256.007812 C 541.15625 256.472656 540.355469 256.703125 539.425781 256.824219 Z M 311.179688 72.652344 L 275.691406 72.671875 L 275.691406 241.425781 C 275.699219 242.320312 275.558594 243.621094 275.851562 244.449219 L 499.714844 244.40625 L 535.347656 244.433594 L 535.363281 78.667969 C 535.363281 76.710938 535.507812 74.644531 535.304688 72.699219 Z M 311.179688 72.652344 " fill-opacity="1" fill-rule="nonzero"/><path fill="#975ab6" d="M 549.015625 304.421875 C 544.953125 304.796875 540.773438 304.613281 536.695312 304.613281 L 265.269531 304.554688 C 263.71875 304.523438 261.421875 304.511719 260.085938 303.621094 L 259.097656 302.8125 C 254.175781 298.347656 256.28125 293.042969 262.285156 292.152344 L 542.335938 292.273438 C 544.589844 292.277344 547.441406 291.988281 549.609375 292.550781 L 549.851562 292.621094 C 556.960938 294.511719 555.316406 302.761719 549.015625 304.421875 Z M 549.015625 304.421875 " fill-opacity="1" fill-rule="nonzero"/><path fill="#975ab6" d="M 544.289062 321.421875 L 266.824219 321.457031 C 263.90625 321.460938 260.769531 321.710938 257.878906 321.421875 C 252.945312 320.925781 249.863281 314.660156 253.707031 311.023438 C 256.742188 308.148438 262.476562 309.042969 266.367188 309.046875 L 552.28125 309.058594 C 559.605469 309.363281 564.125 321.578125 549.4375 321.46875 Z M 544.289062 321.421875 " fill-opacity="1" fill-rule="nonzero"/></svg>