<svg xmlns="http://www.w3.org/2000/svg" xmlns:xlink="http://www.w3.org/1999/xlink" width="1080" zoomAndPan="magnify" viewBox="0 0 810 424.499987" height="566" preserveAspectRatio="xMidYMid meet" version="1.0"><defs><clipPath id="daac975ff7"><path d="M 248.082031 22 L 561 22 L 561 380 L 248.082031 380 Z M 248.082031 22 " clip-rule="nonzero"/></clipPath></defs><g clip-path="url(#daac975ff7)"><path fill="#975ab6" d="M 405.554688 53.191406 C 406.46875 53.191406 407.269531 53.613281 408.289062 54.378906 C 425.777344 67.636719 445.175781 78.09375 465.921875 85.453125 C 485.285156 92.320312 506.5625 96.746094 529.148438 98.605469 L 529.203125 98.605469 C 530.699219 98.75 531.863281 100.007812 531.882812 101.554688 C 532.375 135.4375 527.621094 169.589844 517.726562 203.109375 C 500.078125 262.929688 465.339844 310.417969 414.464844 344.222656 C 407.066406 349.140625 402.09375 349.433594 394.753906 345.371094 C 328.066406 308.375 290.488281 249.722656 279.832031 166.039062 C 277.28125 146.054688 276.445312 125.5625 277.28125 103.394531 C 277.371094 100.84375 279.285156 98.730469 281.816406 98.40625 C 306.152344 95.089844 331.964844 90.972656 356.539062 80.1875 C 371.820312 73.484375 386.484375 65.289062 400.089844 55.871094 C 402.734375 54.03125 404.246094 53.191406 405.554688 53.191406 Z M 560.425781 99.769531 C 560.28125 94.050781 559.878906 88.003906 557.203125 82.683594 C 554.066406 76.472656 548.695312 72.246094 540.734375 69.75 C 534.324219 67.746094 527.199219 67.183594 520.933594 66.671875 L 520.824219 66.671875 C 490.476562 64.230469 460.914062 53.683594 435.300781 36.160156 C 434.5 35.613281 433.699219 35.070312 432.898438 34.503906 C 425.066406 29.074219 416.960938 23.445312 407.085938 22.972656 C 395.992188 22.425781 386.230469 28.765625 377.613281 34.375 C 376.886719 34.832031 376.175781 35.289062 375.480469 35.761719 C 355.554688 48.566406 333.824219 57.820312 310.871094 63.25 C 300.78125 65.632812 289.960938 67.238281 276.808594 68.3125 C 264.367188 69.3125 255.625 74.960938 251.542969 84.632812 C 248.683594 91.375 248.300781 98.605469 248.136719 106.054688 C 248.007812 111.738281 247.992188 117.441406 248.0625 122.976562 C 248.847656 187.023438 262.273438 241.085938 287.992188 283.695312 C 298.15625 300.542969 310.816406 316.445312 325.609375 330.964844 C 339.453125 344.550781 355.191406 356.976562 372.421875 367.90625 C 381.984375 373.96875 392.367188 379.527344 403.589844 379.527344 C 404.246094 379.527344 404.902344 379.507812 405.554688 379.472656 C 415.410156 378.886719 424.226562 373.96875 432.277344 368.722656 C 453.097656 355.152344 472.1875 338.121094 489.019531 318.066406 C 505.449219 298.464844 519.367188 276.460938 530.332031 252.65625 C 551.554688 206.640625 561.957031 153.78125 560.425781 99.769531 " fill-opacity="1" fill-rule="nonzero"/></g><path fill="#975ab6" d="M 471.570312 170.464844 C 471.296875 172.175781 470.019531 173.507812 468.800781 174.726562 C 443.519531 200.011719 418.289062 225.332031 393.023438 250.613281 C 390.875 252.761719 388.160156 255.09375 385.210938 254.421875 C 383.570312 254.039062 382.292969 252.800781 381.109375 251.617188 C 367.484375 237.972656 353.859375 224.347656 340.234375 210.703125 C 338.648438 209.117188 336.957031 207.277344 336.957031 205.039062 C 336.972656 202.851562 338.613281 201.050781 340.164062 199.5 C 344.277344 195.328125 348.394531 191.175781 352.511719 187.003906 C 354.152344 185.347656 356.046875 183.582031 358.378906 183.488281 C 360.964844 183.363281 363.113281 185.328125 364.933594 187.167969 C 372.148438 194.402344 379.363281 201.632812 386.574219 208.847656 C 405.683594 189.699219 424.792969 170.539062 443.898438 151.394531 C 445.539062 149.753906 447.398438 148.023438 449.710938 147.933594 C 452.261719 147.839844 454.355469 149.789062 456.160156 151.59375 C 460.148438 155.621094 464.15625 159.664062 468.164062 163.707031 C 470.003906 165.582031 472.007812 167.878906 471.570312 170.464844 Z M 508.800781 122.429688 C 508.765625 119.550781 506.582031 117.128906 503.703125 116.894531 C 503.703125 116.875 503.683594 116.875 503.664062 116.875 C 469.421875 114.050781 437.5625 103.777344 409.328125 82.394531 C 405.320312 79.367188 402.367188 81.152344 398.980469 83.484375 C 388.195312 90.953125 376.867188 97.273438 364.917969 102.519531 C 345.882812 110.863281 325.828125 114.125 304.96875 116.929688 C 302.238281 117.292969 300.179688 119.550781 300.070312 122.304688 C 299.324219 140.265625 299.90625 157.222656 302.054688 174.109375 C 310.308594 238.917969 339.707031 288.339844 395.007812 319.03125 C 401.949219 322.875 407.269531 322.511719 414.0625 317.992188 C 454.992188 290.796875 483.007812 252.980469 497.4375 204.074219 C 505.269531 177.53125 509.222656 150.320312 508.800781 122.429688 " fill-opacity="1" fill-rule="nonzero"/></svg>