<svg xmlns="http://www.w3.org/2000/svg" xmlns:xlink="http://www.w3.org/1999/xlink" width="500" zoomAndPan="magnify" viewBox="0 0 375 374.999991" height="500" preserveAspectRatio="xMidYMid meet" version="1.0"><defs><clipPath id="62503dea17"><path d="M 31.328125 96 L 102 96 L 102 209 L 31.328125 209 Z M 31.328125 96 " clip-rule="nonzero"/></clipPath></defs><path fill="#ffffff" d="M 161.867188 19.546875 C 182.078125 20.832031 191.054688 43.722656 192.664062 60.640625 C 194.453125 79.457031 191.550781 97.476562 183.960938 114.695312 C 178.457031 127.175781 168.058594 142.652344 153.867188 146.019531 C 149.496094 147.050781 145.269531 146.746094 141.183594 145.105469 C 125.988281 138.988281 119.261719 118.214844 117.460938 103.605469 C 114.453125 79.117188 119.648438 52.996094 135.058594 33.640625 C 141.234375 25.902344 151.640625 18.902344 161.867188 19.546875 Z M 161.867188 19.546875 " fill-opacity="1" fill-rule="nonzero"/><path fill="#ffffff" d="M 223.113281 68.445312 C 231.300781 58.613281 244.738281 51.804688 257.414062 57.160156 C 269.175781 62.117188 275.582031 74.171875 277.699219 86.191406 C 280.695312 103.257812 277.761719 119.589844 271.523438 136.078125 C 265.511719 151.972656 249.515625 178.523438 228.03125 171.800781 C 215.148438 167.773438 207.972656 150.136719 205.65625 138.292969 C 200.804688 113.488281 206.78125 88.046875 223.113281 68.445312 Z M 223.113281 68.445312 " fill-opacity="1" fill-rule="nonzero"/><g clip-path="url(#62503dea17)"><path fill="#ffffff" d="M 31.328125 147.964844 L 31.328125 137.234375 C 31.917969 128.699219 33.886719 120.921875 37.234375 113.898438 C 45.519531 96.511719 64.121094 90.113281 79.695312 102.992188 C 90.746094 112.128906 97.214844 125.0625 99.808594 139.070312 C 102.414062 153.097656 101.160156 167.117188 96.042969 181.128906 C 92.480469 190.886719 86.425781 201.414062 77.316406 206.011719 C 59.675781 214.921875 44.957031 194.953125 39.300781 181.355469 C 34.882812 170.734375 32.226562 159.605469 31.328125 147.964844 Z M 31.328125 147.964844 " fill-opacity="1" fill-rule="nonzero"/></g><path fill="#ffffff" d="M 304.132812 250.386719 C 289.933594 254.679688 279.652344 244.027344 274.609375 232.28125 C 264.613281 208.945312 267.0625 182.175781 280.921875 160.976562 C 288.480469 149.433594 303.050781 136.910156 318.039062 140.289062 C 339.792969 145.183594 343.683594 173.515625 340.839844 191.449219 C 337.78125 210.777344 325.382812 243.96875 304.132812 250.386719 Z M 304.132812 250.386719 " fill-opacity="1" fill-rule="nonzero"/><path fill="#ffffff" d="M 176.953125 174.84375 C 211.125 181.136719 223.027344 210.03125 239.265625 236.113281 C 245.363281 245.90625 252.9375 254.285156 261.992188 261.253906 C 266.738281 264.90625 269.117188 266.738281 269.132812 266.746094 C 279.542969 275.675781 286.554688 286.699219 290.167969 299.816406 C 296.636719 323.289062 284.308594 345.183594 260.265625 351.292969 C 241.664062 356.011719 223.339844 348.722656 204.199219 341.460938 C 183.65625 333.667969 162.726562 332.59375 141.417969 338.234375 C 128.738281 341.59375 112.550781 348.300781 97.332031 349.988281 C 79.132812 352.007812 62.476562 346.222656 50.816406 332.046875 C 42.726562 322.207031 39.308594 310.695312 40.859375 297.996094 C 43.03125 280.132812 53.800781 263.304688 68.011719 252.601562 C 69.445312 251.523438 72.4375 249.679688 76.980469 247.0625 C 93.847656 237.355469 104.972656 223.757812 116.003906 208.03125 C 128.039062 190.886719 144.414062 175.402344 166.738281 174.546875 C 171.464844 174.363281 174.871094 174.464844 176.953125 174.84375 Z M 176.953125 174.84375 " fill-opacity="1" fill-rule="nonzero"/></svg>