<svg xmlns="http://www.w3.org/2000/svg" xmlns:xlink="http://www.w3.org/1999/xlink" width="1440" zoomAndPan="magnify" viewBox="0 0 1080 607.499987" height="810" preserveAspectRatio="xMidYMid meet" version="1.0"><defs><clipPath id="d17ea65361"><path d="M 310.136719 14.183594 L 785.246094 14.183594 L 785.246094 575.472656 L 310.136719 575.472656 Z M 310.136719 14.183594 " clip-rule="nonzero"/></clipPath><clipPath id="40f5fb7aff"><path d="M 401.148438 157 L 676 157 L 676 438.484375 L 401.148438 438.484375 Z M 401.148438 157 " clip-rule="nonzero"/></clipPath><clipPath id="394aa6527f"><path d="M 550.367188 202.394531 L 561.609375 202.394531 L 561.609375 213.636719 L 550.367188 213.636719 Z M 550.367188 202.394531 " clip-rule="nonzero"/></clipPath></defs><g clip-path="url(#d17ea65361)"><rect x="-108" width="1296" fill="#ffffff" y="-60.749999" height="728.999984" fill-opacity="1"/><rect x="-108" width="1296" fill="#9856d8" y="-60.749999" height="728.999984" fill-opacity="1"/></g><g clip-path="url(#40f5fb7aff)"><path fill="#ffffff" d="M 660.46875 181.46875 C 650.316406 168.449219 635.457031 162.046875 617.472656 162.921875 C 611.769531 153.027344 599.839844 158.425781 593.996094 161.144531 C 593.316406 161.460938 592.660156 161.765625 592.027344 162.023438 C 591.28125 162.363281 590.507812 162.675781 589.6875 162.980469 C 584.851562 164.984375 578.796875 167.476562 576.550781 173.226562 C 575.144531 176.84375 575.519531 181.0625 577.707031 185.78125 L 577.988281 186.398438 C 580.203125 191.210938 583.234375 194.140625 586.910156 195.113281 C 587.847656 195.359375 588.75 195.453125 589.6875 195.453125 C 594.558594 195.453125 599.054688 192.242188 602.800781 189.585938 C 603.527344 189.082031 604.207031 188.589844 604.898438 188.121094 C 605.460938 187.746094 606.078125 187.335938 606.710938 186.902344 C 611.113281 184 618.351562 179.246094 619.605469 172.417969 C 633.773438 172.160156 644.953125 177.160156 652.882812 187.335938 C 668.464844 207.3125 667.773438 241.539062 660.527344 264.828125 C 654.507812 284.277344 644.414062 299.757812 637.214844 309.125 C 633.117188 308.035156 628.5625 309.253906 625.5625 312.660156 C 612.542969 327.484375 580.332031 346.242188 563.84375 355.023438 C 547.488281 346.242188 515.640625 327.484375 502.617188 312.660156 C 499.679688 309.3125 495.253906 308.070312 491.226562 309.066406 C 484.011719 299.664062 473.953125 284.21875 467.972656 264.828125 C 460.664062 241.316406 460.03125 206.972656 475.863281 187.019531 C 483.578125 177.3125 494.316406 172.417969 507.769531 172.382812 C 508.988281 179.222656 516.257812 184 520.660156 186.867188 C 521.292969 187.277344 521.914062 187.675781 522.476562 188.085938 C 523.167969 188.554688 523.882812 189.058594 524.574219 189.550781 C 528.285156 192.207031 532.804688 195.429688 537.675781 195.429688 C 538.589844 195.429688 539.523438 195.300781 540.460938 195.078125 C 544.171875 194.117188 547.171875 191.175781 549.382812 186.398438 L 549.699219 185.746094 C 551.890625 181.027344 552.265625 176.808594 550.859375 173.191406 C 548.613281 167.417969 542.546875 164.949219 537.710938 162.957031 C 536.925781 162.605469 536.152344 162.304688 535.367188 161.988281 C 534.746094 161.707031 534.09375 161.425781 533.402344 161.109375 C 527.558594 158.425781 515.640625 152.992188 509.925781 162.863281 C 492.59375 162.328125 478.261719 168.601562 468.34375 181.097656 C 455.324219 197.511719 447.292969 230.671875 458.816406 267.695312 C 465.347656 288.679688 475.992188 305.070312 483.695312 315.09375 C 481.636719 319.144531 482.140625 324.238281 485.324219 327.894531 C 505.839844 351.277344 556.46875 377.246094 558.597656 378.335938 L 559.3125 378.710938 C 560.941406 398.980469 555.53125 415.113281 543.929688 423.800781 C 534.527344 430.816406 522.441406 431.753906 511.550781 426.296875 C 495.570312 418.277344 486.039062 398.359375 486.015625 372.9375 C 486.015625 372.878906 486.015625 372.84375 486.015625 372.820312 C 486.015625 372.820312 486.015625 372.785156 486.015625 372.785156 C 485.980469 354.894531 479.011719 340.878906 466.871094 334.285156 C 457.972656 329.484375 447.855469 329.730469 439.8125 334.976562 C 431.25 340.5625 426.566406 350.902344 426.53125 363.734375 C 412.269531 366.101562 401.347656 378.523438 401.347656 393.453125 C 401.347656 410.089844 414.894531 423.613281 431.496094 423.613281 C 448.113281 423.613281 461.660156 410.054688 461.660156 393.453125 C 461.660156 378.40625 450.546875 365.914062 436.121094 363.664062 C 436.15625 354.179688 439.308594 346.746094 445.042969 342.996094 C 450.078125 339.71875 456.542969 339.601562 462.28125 342.71875 C 471.214844 347.554688 476.367188 358.511719 476.367188 372.820312 C 476.367188 402.445312 487.605469 425.042969 507.171875 434.878906 C 513.144531 437.875 519.539062 439.339844 525.847656 439.339844 C 534.304688 439.339844 542.617188 436.695312 549.605469 431.472656 C 563.84375 420.828125 570.613281 401.8125 568.867188 378.40625 L 568.960938 378.335938 C 571.117188 377.246094 622.34375 351.277344 642.859375 327.894531 C 645.984375 324.332031 646.511719 319.367188 644.601562 315.339844 C 652.355469 305.351562 663.125 288.832031 669.671875 267.695312 C 681.101562 230.976562 673.265625 197.921875 660.46875 181.46875 Z M 609.523438 168.390625 L 609.734375 168.824219 C 611.019531 171.542969 609.054688 173.90625 601.429688 178.90625 C 600.742188 179.339844 600.085938 179.785156 599.5 180.183594 C 598.75 180.6875 598 181.25 597.214844 181.773438 C 594.722656 183.554688 591 186.246094 589.382812 185.804688 C 588.785156 185.652344 587.789062 184.65625 586.691406 182.3125 L 586.410156 181.714844 C 585.695312 180.183594 584.980469 178.0625 585.507812 176.714844 C 586.257812 174.785156 590.039062 173.226562 593.375 171.859375 C 594.253906 171.507812 595.097656 171.132812 595.90625 170.792969 C 596.558594 170.511719 597.273438 170.171875 598 169.855469 C 606.617188 165.886719 608.492188 166.144531 609.453125 168.167969 M 517.605469 168.789062 L 517.851562 168.226562 C 518.296875 167.324219 518.882812 166.765625 520.171875 166.765625 C 521.785156 166.765625 524.503906 167.664062 529.316406 169.890625 C 530.027344 170.230469 530.742188 170.546875 531.398438 170.828125 C 532.21875 171.203125 533.085938 171.542969 533.929688 171.882812 C 537.242188 173.25 541.023438 174.820312 541.796875 176.75 C 542.335938 178.097656 541.585938 180.21875 540.859375 181.75 L 540.578125 182.371094 C 539.523438 184.679688 538.496094 185.6875 537.898438 185.839844 C 536.269531 186.269531 532.558594 183.554688 530.0625 181.808594 C 529.28125 181.25 528.53125 180.722656 527.78125 180.21875 C 527.160156 179.808594 526.503906 179.375 525.847656 178.941406 C 518.261719 173.90625 516.328125 171.578125 517.605469 168.789062 Z M 452.070312 393.453125 C 452.070312 404.785156 442.832031 414.023438 431.496094 414.023438 C 420.164062 414.023438 410.925781 404.785156 410.925781 393.453125 C 410.925781 382.117188 420.164062 372.878906 431.496094 372.878906 C 442.832031 372.878906 452.070312 382.117188 452.070312 393.453125 Z M 452.070312 393.453125 " fill-opacity="1" fill-rule="nonzero"/></g><path fill="#ffffff" d="M 573.210938 246.902344 C 577.519531 248.492188 581.292969 247.21875 584.511719 244.253906 C 589.066406 240.039062 590.847656 234.664062 590.097656 228.519531 C 589.628906 224.804688 588.070312 221.550781 584.757812 219.523438 C 583.480469 218.742188 581.890625 218.460938 580.425781 217.933594 C 579.863281 217.933594 579.300781 217.933594 578.703125 217.933594 C 578.550781 217.992188 578.386719 218.0625 578.234375 218.085938 C 576.140625 218.367188 574.300781 219.210938 572.671875 220.496094 C 567.183594 224.769531 564.652344 232.640625 566.65625 239.3125 C 567.710938 242.78125 569.675781 245.589844 573.210938 246.902344 Z M 573.210938 246.902344 " fill-opacity="1" fill-rule="nonzero"/><path fill="#ffffff" d="M 546.738281 217.933594 C 546.175781 217.933594 545.613281 217.933594 545.015625 217.933594 C 544.921875 217.96875 544.792969 218.0625 544.699219 218.0625 C 541.796875 218.402344 539.523438 219.839844 537.839844 222.183594 C 535.460938 225.484375 534.769531 229.230469 535.308594 233.167969 C 536.023438 238.46875 538.367188 242.875 543.015625 245.8125 C 547.863281 248.867188 553.574219 247.839844 556.820312 243.246094 C 559.535156 239.441406 559.96875 235.167969 558.996094 230.730469 C 557.875 225.671875 555.320312 221.585938 550.578125 219.1875 C 549.382812 218.589844 548.015625 218.34375 546.738281 217.933594 Z M 546.738281 217.933594 " fill-opacity="1" fill-rule="nonzero"/><path fill="#ffffff" d="M 540.554688 265.730469 C 543.238281 258.398438 539.710938 249.089844 532.875 245.214844 C 526.878906 241.820312 520.359375 243.9375 517.792969 250.179688 C 517.289062 251.433594 517.078125 252.777344 516.703125 254.089844 C 516.703125 255.179688 516.703125 256.246094 516.703125 257.335938 C 516.761719 257.554688 516.820312 257.765625 516.855469 257.988281 C 517.511719 262.601562 519.480469 266.539062 523.039062 269.570312 C 525.472656 271.664062 528.285156 272.941406 531.527344 272.753906 C 536.082031 272.472656 539.023438 269.886719 540.554688 265.730469 Z M 540.554688 265.730469 " fill-opacity="1" fill-rule="nonzero"/><path fill="#ffffff" d="M 550.953125 258.023438 C 549.382812 260.332031 548.578125 262.976562 547.980469 265.671875 C 547.207031 269.417969 545.953125 272.976562 543.484375 275.941406 C 541.609375 278.152344 539.523438 280.191406 537.429688 282.214844 C 534.246094 285.273438 531.960938 288.796875 531.492188 293.292969 C 531.1875 296.453125 531.996094 299.230469 534.492188 301.253906 C 537.898438 304.066406 541.960938 304.90625 546.175781 304.101562 C 553.167969 302.753906 560.15625 301.980469 567.242188 302.449219 C 571.398438 302.730469 575.554688 303.222656 579.640625 303.949219 C 582.859375 304.511719 585.882812 304.417969 588.914062 303.316406 C 593.28125 301.757812 595.683594 298.351562 595.4375 293.890625 C 595.285156 291.019531 594.464844 288.304688 592.683594 286.019531 C 591.164062 284.054688 589.476562 282.214844 587.625 280.566406 C 583.070312 276.40625 579.980469 271.503906 578.855469 265.355469 C 578.574219 263.890625 578.105469 262.449219 577.578125 261.046875 C 575.332031 255.027344 569.933594 251.304688 563.527344 251.304688 C 558.191406 251.339844 553.949219 253.585938 550.953125 258.023438 Z M 550.953125 258.023438 " fill-opacity="1" fill-rule="nonzero"/><path fill="#ffffff" d="M 587.566406 270.039062 C 590.8125 273.28125 595.964844 273.65625 600.308594 271.035156 C 606.207031 267.507812 609.710938 259.863281 608.457031 253.117188 C 607.894531 249.96875 606.582031 247.183594 603.832031 245.34375 C 600.027344 242.757812 596.058594 243.0625 592.285156 245.378906 C 586.667969 248.84375 584.230469 254.148438 583.914062 259.921875 C 584.007812 264.171875 584.980469 267.414062 587.566406 270.039062 Z M 587.566406 270.039062 " fill-opacity="1" fill-rule="nonzero"/><path fill="#ffffff" d="M 440.277344 393.453125 C 440.277344 394.613281 440.042969 395.734375 439.601562 396.8125 C 439.15625 397.878906 438.523438 398.828125 437.703125 399.660156 C 436.882812 400.476562 435.933594 401.109375 434.859375 401.554688 C 433.78125 402 432.667969 402.222656 431.496094 402.222656 C 430.339844 402.222656 429.214844 402 428.148438 401.554688 C 427.070312 401.109375 426.121094 400.476562 425.292969 399.660156 C 424.472656 398.828125 423.839844 397.878906 423.394531 396.8125 C 422.949219 395.734375 422.726562 394.613281 422.726562 393.453125 C 422.726562 392.292969 422.949219 391.167969 423.394531 390.09375 C 423.839844 389.015625 424.472656 388.066406 425.292969 387.246094 C 426.121094 386.425781 427.070312 385.792969 428.148438 385.351562 C 429.214844 384.90625 430.339844 384.683594 431.496094 384.683594 C 432.667969 384.683594 433.78125 384.90625 434.859375 385.351562 C 435.933594 385.792969 436.882812 386.425781 437.703125 387.246094 C 438.523438 388.066406 439.15625 389.015625 439.601562 390.09375 C 440.042969 391.167969 440.277344 392.292969 440.277344 393.453125 Z M 440.277344 393.453125 " fill-opacity="1" fill-rule="nonzero"/><g clip-path="url(#394aa6527f)"><path fill="#ffffff" d="M 705.546875 221.386719 C 697.503906 211.070312 685.726562 205.988281 671.464844 206.679688 C 666.933594 198.835938 657.484375 203.121094 652.859375 205.273438 C 652.308594 205.519531 651.792969 205.765625 651.300781 205.964844 C 650.703125 206.234375 650.082031 206.492188 649.4375 206.738281 C 645.597656 208.320312 640.796875 210.296875 639.015625 214.851562 C 637.90625 217.722656 638.199219 221.070312 639.929688 224.804688 L 640.152344 225.296875 C 641.910156 229.113281 644.308594 231.433594 647.238281 232.207031 C 647.976562 232.40625 648.699219 232.476562 649.4375 232.476562 C 653.300781 232.476562 656.863281 229.921875 659.835938 227.828125 C 660.398438 227.429688 660.949219 227.03125 661.488281 226.65625 C 661.933594 226.363281 662.4375 226.035156 662.925781 225.695312 C 666.417969 223.390625 672.152344 219.628906 673.148438 214.210938 C 684.390625 214.011719 693.242188 217.96875 699.53125 226.035156 C 711.882812 241.878906 711.34375 269.007812 705.59375 287.472656 C 700.816406 302.894531 692.820312 315.164062 687.105469 322.589844 C 683.863281 321.722656 680.257812 322.695312 677.878906 325.386719 C 667.550781 337.144531 642.015625 352.015625 628.949219 358.96875 C 615.972656 352.015625 590.730469 337.144531 580.414062 325.386719 C 578.082031 322.742188 574.570312 321.746094 571.375 322.542969 C 565.660156 315.09375 557.6875 302.835938 552.945312 287.472656 C 547.148438 268.832031 546.65625 241.609375 559.195312 225.789062 C 565.308594 218.097656 573.832031 214.210938 584.5 214.1875 C 585.460938 219.605469 591.234375 223.390625 594.722656 225.671875 C 595.214844 225.988281 595.707031 226.316406 596.152344 226.632812 C 596.699219 227.007812 597.261719 227.40625 597.8125 227.804688 C 600.753906 229.898438 604.347656 232.453125 608.210938 232.453125 C 608.925781 232.453125 609.664062 232.347656 610.414062 232.183594 C 613.351562 231.410156 615.726562 229.078125 617.484375 225.296875 L 617.730469 224.78125 C 619.464844 221.035156 619.769531 217.699219 618.65625 214.828125 C 616.863281 210.25 612.0625 208.296875 608.234375 206.714844 C 607.613281 206.433594 606.992188 206.1875 606.371094 205.941406 C 605.878906 205.71875 605.355469 205.496094 604.816406 205.25 C 600.191406 203.121094 590.730469 198.8125 586.199219 206.632812 C 572.464844 206.210938 561.105469 211.1875 553.238281 221.09375 C 542.910156 234.113281 536.550781 260.390625 545.683594 289.746094 C 550.859375 306.382812 559.300781 319.367188 565.414062 327.320312 C 563.773438 330.539062 564.171875 334.566406 566.703125 337.472656 C 582.964844 356.007812 623.105469 376.589844 624.789062 377.457031 L 625.351562 377.761719 C 626.640625 393.816406 622.367188 406.613281 613.152344 413.5 C 605.703125 419.070312 596.128906 419.808594 587.484375 415.476562 C 574.816406 409.121094 567.265625 393.324219 567.242188 373.183594 C 567.242188 373.125 567.242188 373.101562 567.242188 373.078125 C 567.242188 373.078125 567.242188 373.054688 567.242188 373.054688 C 567.21875 358.875 561.703125 347.761719 552.078125 342.542969 C 545.015625 338.722656 536.996094 338.921875 530.613281 343.078125 C 523.835938 347.519531 520.125 355.703125 520.101562 365.878906 C 508.789062 367.761719 500.125 377.609375 500.125 389.4375 C 500.125 402.632812 510.863281 413.347656 524.035156 413.347656 C 537.195312 413.347656 547.945312 402.609375 547.945312 389.4375 C 547.945312 377.515625 539.128906 367.609375 527.699219 365.832031 C 527.722656 358.300781 530.214844 352.410156 534.769531 349.449219 C 538.753906 346.851562 543.882812 346.746094 548.4375 349.226562 C 555.507812 353.054688 559.59375 361.746094 559.59375 373.078125 C 559.59375 396.566406 568.503906 414.480469 584.019531 422.28125 C 588.75 424.65625 593.820312 425.828125 598.820312 425.828125 C 605.53125 425.828125 612.121094 423.71875 617.660156 419.585938 C 628.949219 411.144531 634.320312 396.074219 632.929688 377.515625 L 633.011719 377.457031 C 634.707031 376.589844 675.328125 356.007812 691.589844 337.472656 C 694.0625 334.648438 694.484375 330.703125 692.972656 327.519531 C 699.109375 319.589844 707.65625 306.5 712.84375 289.746094 C 721.90625 260.636719 715.699219 234.429688 705.546875 221.386719 Z M 665.152344 211.011719 L 665.328125 211.363281 C 666.347656 213.519531 664.789062 215.402344 658.746094 219.363281 C 658.195312 219.699219 657.683594 220.050781 657.214844 220.367188 C 656.617188 220.765625 656.019531 221.210938 655.398438 221.632812 C 653.417969 223.050781 650.480469 225.167969 649.191406 224.828125 C 648.722656 224.699219 647.929688 223.917969 647.0625 222.054688 L 646.839844 221.585938 C 646.265625 220.367188 645.703125 218.695312 646.125 217.628906 C 646.722656 216.09375 649.707031 214.851562 652.355469 213.765625 C 653.054688 213.496094 653.722656 213.191406 654.367188 212.921875 C 654.882812 212.699219 655.457031 212.429688 656.019531 212.183594 C 662.855469 209.035156 664.34375 209.234375 665.105469 210.847656 M 592.285156 211.339844 L 592.484375 210.894531 C 592.835938 210.179688 593.304688 209.726562 594.324219 209.726562 C 595.613281 209.726562 597.765625 210.449219 601.570312 212.207031 C 602.144531 212.476562 602.707031 212.722656 603.234375 212.945312 C 603.878906 213.25 604.570312 213.519531 605.238281 213.789062 C 607.859375 214.875 610.855469 216.117188 611.476562 217.652344 C 611.886719 218.71875 611.300781 220.402344 610.726562 221.609375 L 610.503906 222.101562 C 609.664062 223.941406 608.855469 224.722656 608.375 224.851562 C 607.085938 225.203125 604.148438 223.050781 602.167969 221.65625 C 601.546875 221.210938 600.949219 220.789062 600.355469 220.402344 C 599.863281 220.074219 599.347656 219.722656 598.820312 219.386719 C 592.8125 215.402344 591.28125 213.542969 592.285156 211.339844 Z M 540.34375 389.4375 C 540.34375 398.429688 533.015625 405.746094 524.035156 405.746094 C 515.042969 405.746094 507.722656 398.429688 507.722656 389.4375 C 507.722656 380.457031 515.042969 373.125 524.035156 373.125 C 533.015625 373.125 540.34375 380.457031 540.34375 389.4375 Z M 540.34375 389.4375 " fill-opacity="1" fill-rule="nonzero"/></g></svg>