<svg xmlns="http://www.w3.org/2000/svg" xmlns:xlink="http://www.w3.org/1999/xlink" width="500" zoomAndPan="magnify" viewBox="0 0 375 374.999991" height="500" preserveAspectRatio="xMidYMid meet" version="1.0"><defs><clipPath id="41dcb96280"><path d="M 5.167969 43 L 369.667969 43 L 369.667969 333 L 5.167969 333 Z M 5.167969 43 " clip-rule="nonzero"/></clipPath></defs><g clip-path="url(#41dcb96280)"><path fill="#ffffff" d="M 260.273438 74.921875 C 274.203125 81.199219 284.640625 87.660156 292.597656 94.816406 C 307.042969 107.820312 317.699219 124.15625 342.375 145.777344 C 352.578125 154.707031 356.820312 165.390625 357.265625 176.355469 C 357.738281 187.320312 354.136719 198.539062 348.171875 207.445312 C 342.203125 216.375 333.964844 222.789062 325.722656 224.824219 C 317.859375 226.746094 309.902344 224.585938 301.6875 216.964844 C 297.542969 180.023438 292.785156 142.484375 281.507812 111.84375 C 276.304688 97.628906 268.992188 85.457031 260.273438 74.921875 Z M 114.871094 74.921875 C 106.179688 85.457031 98.839844 97.628906 93.628906 111.84375 C 82.378906 142.480469 77.621094 180.023438 73.472656 216.964844 C 65.257812 224.585938 57.273438 226.746094 49.417969 224.824219 C 41.195312 222.785156 32.957031 216.375 26.964844 207.445312 C 20.996094 198.539062 17.417969 187.316406 17.871094 176.355469 C 18.34375 165.390625 22.582031 154.710938 32.789062 145.777344 C 57.464844 124.160156 68.101562 107.820312 82.5625 94.816406 C 90.507812 87.660156 100.972656 81.199219 114.871094 74.921875 Z M 187.574219 55.074219 C 196.265625 55.144531 206.566406 57.183594 216.445312 59.578125 C 243.371094 66.066406 259.378906 86.363281 270.246094 115.957031 C 281.09375 145.472656 286.0625 183.378906 290.277344 221.152344 C 290.277344 244.285156 288.980469 269.058594 276.238281 287.578125 C 263.925781 305.40625 240.667969 318.910156 193.589844 319.949219 L 193.589844 285.140625 C 211.777344 282.609375 219.996094 268.84375 219.996094 258.894531 C 219.996094 245.660156 205.480469 240.308594 187.554688 240.308594 C 169.648438 240.308594 155.109375 245.660156 155.109375 258.894531 C 155.109375 268.84375 163.351562 282.609375 181.539062 285.140625 L 181.539062 319.949219 C 134.484375 318.882812 111.226562 305.40625 98.9375 287.578125 C 86.171875 269.058594 84.894531 244.285156 84.867188 221.152344 C 89.089844 183.378906 94.082031 145.472656 104.902344 115.957031 C 115.773438 86.363281 131.804688 66.066406 158.730469 59.578125 C 168.605469 57.1875 178.90625 55.148438 187.574219 55.074219 Z M 187.554688 43.046875 C 176.421875 44.066406 164.984375 45.390625 155.4375 47.992188 C 111.625 59.957031 90.382812 71.605469 74.496094 85.882812 C 58.582031 100.214844 48.539062 115.984375 24.859375 136.726562 C 12.261719 147.785156 6.460938 161.972656 5.867188 175.820312 C 5.273438 189.699219 9.65625 203.246094 16.972656 214.167969 C 24.289062 225.078125 34.613281 233.539062 46.574219 236.5 C 55.074219 238.582031 64.359375 237.445312 72.980469 232.6875 C 73.5 253.316406 76.152344 275.714844 89.035156 294.429688 C 104.429688 316.753906 134.148438 332.132812 187.546875 332.132812 L 187.570312 332.085938 L 187.621094 332.132812 C 241.019531 332.132812 270.738281 316.757812 286.132812 294.429688 C 299.011719 275.71875 301.640625 253.316406 302.1875 232.6875 C 310.808594 237.445312 320.070312 238.585938 328.59375 236.5 C 340.550781 233.539062 350.875 225.082031 358.171875 214.167969 C 365.488281 203.253906 369.871094 189.699219 369.300781 175.820312 C 368.707031 161.972656 362.910156 147.78125 350.28125 136.726562 C 326.601562 115.980469 316.558594 100.214844 300.644531 85.882812 C 284.78125 71.605469 263.515625 59.957031 219.703125 47.992188 C 210.160156 45.390625 198.726562 44.066406 187.617188 43.046875 L 187.566406 43.117188 Z M 187.554688 43.046875 " fill-opacity="1" fill-rule="evenodd"/></g><path fill="#ffffff" d="M 133.601562 172.15625 C 125.457031 172.15625 118.851562 179.757812 118.875 189.160156 C 118.875 198.53125 125.457031 206.164062 133.601562 206.164062 C 141.773438 206.164062 148.378906 198.53125 148.378906 189.160156 C 148.378906 179.757812 141.773438 172.15625 133.601562 172.15625 Z M 133.601562 172.15625 " fill-opacity="1" fill-rule="evenodd"/><path fill="#ffffff" d="M 241.496094 172.15625 C 249.644531 172.15625 256.25 179.757812 256.25 189.160156 C 256.25 198.53125 249.644531 206.164062 241.496094 206.164062 C 233.347656 206.164062 226.742188 198.53125 226.742188 189.160156 C 226.742188 179.757812 233.347656 172.15625 241.496094 172.15625 Z M 241.496094 172.15625 " fill-opacity="1" fill-rule="evenodd"/></svg>