<svg xmlns="http://www.w3.org/2000/svg" xmlns:xlink="http://www.w3.org/1999/xlink" width="756" zoomAndPan="magnify" viewBox="0 0 567 56.999997" height="76" preserveAspectRatio="xMidYMid meet" version="1.0"><defs><clipPath id="c158d5909f"><path d="M 0.640625 1 L 39.761719 1 L 39.761719 39 L 0.640625 39 Z M 0.640625 1 " clip-rule="nonzero"/></clipPath><clipPath id="be073939f2"><path d="M 79.113281 1 L 118.867188 1 L 118.867188 39 L 79.113281 39 Z M 79.113281 1 " clip-rule="nonzero"/></clipPath><clipPath id="1855a386d2"><path d="M 119 1 L 158.417969 1 L 158.417969 39 L 119 39 Z M 119 1 " clip-rule="nonzero"/></clipPath><clipPath id="9386a22023"><path d="M 159 1 L 197.972656 1 L 197.972656 39 L 159 39 Z M 159 1 " clip-rule="nonzero"/></clipPath><clipPath id="a072238a8c"><path d="M 198 1 L 237.523438 1 L 237.523438 39 L 198 39 Z M 198 1 " clip-rule="nonzero"/></clipPath><clipPath id="36f643a734"><path d="M 240 1 L 279.695312 1 L 279.695312 39 L 240 39 Z M 240 1 " clip-rule="nonzero"/></clipPath><clipPath id="7fa9416d4b"><path d="M 282 1 L 321.5 1 L 321.5 39 L 282 39 Z M 282 1 " clip-rule="nonzero"/></clipPath><clipPath id="0fde408bf2"><path d="M 361 1 L 400.601562 1 L 400.601562 39 L 361 39 Z M 361 1 " clip-rule="nonzero"/></clipPath><clipPath id="1191b6a312"><path d="M 440 1 L 479.707031 1 L 479.707031 39 L 440 39 Z M 440 1 " clip-rule="nonzero"/></clipPath><clipPath id="807f23c817"><path d="M 522 1 L 561.28125 1 L 561.28125 39 L 522 39 Z M 522 1 " clip-rule="nonzero"/></clipPath><clipPath id="ddf7b6af6a"><rect x="0" width="562" y="0" height="40"/></clipPath></defs><g transform="matrix(1, 0, 0, 1, 2, 8)"><g clip-path="url(#ddf7b6af6a)"><g clip-path="url(#c158d5909f)"><path fill="#5170ff" d="M 22.539062 11.96875 C 23.609375 8.542969 28.542969 5.25 31.851562 6.570312 C 37.542969 8.828125 32.457031 20.292969 25.632812 17.953125 C 22.726562 16.972656 21.789062 14.429688 22.539062 11.96875 Z M 10.808594 12.933594 C 10.585938 12.121094 10.53125 11.53125 9.425781 10.070312 C 5.375 4.777344 0.0078125 6.839844 0.933594 12.503906 C 2.433594 21.648438 11.824219 19.730469 10.808594 12.933594 Z M 15.0625 14.253906 C 18.445312 15.125 21.238281 12.585938 21.78125 8.960938 C 22.101562 7.089844 20.558594 0.800781 16.195312 1.128906 C 12.296875 1.441406 10.371094 7.855469 12.164062 11.40625 C 12.808594 12.65625 13.699219 13.914062 15.0625 14.253906 Z M 30.65625 19.40625 C 26.992188 20.878906 26.578125 25.589844 29.34375 27.695312 C 33.964844 31.199219 39.550781 26.082031 39.378906 22.496094 C 39.210938 19.246094 35.464844 17.492188 30.65625 19.40625 Z M 25.484375 23.269531 C 26.777344 26.582031 28.0625 31.164062 26.855469 34.511719 C 25.222656 38.988281 20.253906 39.898438 16.910156 37.402344 C 12.53125 34.136719 13.441406 34.742188 8.960938 34.921875 C 1.886719 35.257812 0.417969 28.570312 4.9375 23.207031 C 8.980469 18.417969 17.472656 13.726562 22.210938 17.8125 C 24.199219 19.523438 24.832031 21.59375 25.484375 23.269531 Z M 21.628906 24.625 C 20.601562 23.859375 19.65625 23.664062 17.964844 24.351562 C 16.980469 24.726562 16.519531 25.394531 16.429688 24.636719 C 16.214844 19.953125 8.730469 20.703125 11.921875 26.527344 C 12.699219 27.945312 13.539062 29.382812 14.492188 31.011719 C 14.539062 31.148438 14.769531 31.199219 14.929688 31.15625 C 18.515625 29.023438 21.550781 29.175781 22.296875 26.554688 C 22.476562 25.859375 22.253906 25.144531 21.628906 24.625 Z M 21.628906 24.625 " fill-opacity="1" fill-rule="nonzero"/></g><path fill="#5170ff" d="M 62.089844 11.96875 C 63.160156 8.542969 68.09375 5.25 71.402344 6.570312 C 77.09375 8.828125 72.011719 20.292969 65.1875 17.953125 C 62.277344 16.972656 61.34375 14.429688 62.089844 11.96875 Z M 50.359375 12.933594 C 50.136719 12.121094 50.085938 11.53125 48.976562 10.070312 C 44.929688 4.777344 39.558594 6.839844 40.484375 12.503906 C 41.984375 21.648438 51.378906 19.730469 50.359375 12.933594 Z M 54.617188 14.253906 C 57.996094 15.125 60.789062 12.585938 61.332031 8.960938 C 61.652344 7.089844 60.109375 0.800781 55.75 1.128906 C 51.851562 1.441406 49.925781 7.855469 51.71875 11.40625 C 52.359375 12.65625 53.25 13.914062 54.617188 14.253906 Z M 70.207031 19.40625 C 66.542969 20.878906 66.132812 25.589844 68.898438 27.695312 C 73.519531 31.199219 79.101562 26.082031 78.933594 22.496094 C 78.761719 19.246094 75.015625 17.492188 70.207031 19.40625 Z M 65.035156 23.269531 C 66.328125 26.582031 67.613281 31.164062 66.410156 34.511719 C 64.777344 38.988281 59.808594 39.898438 56.460938 37.402344 C 52.082031 34.136719 52.992188 34.742188 48.515625 34.921875 C 41.441406 35.257812 39.96875 28.570312 44.492188 23.207031 C 48.53125 18.417969 57.023438 13.726562 61.761719 17.8125 C 63.75 19.523438 64.382812 21.59375 65.035156 23.269531 Z M 61.179688 24.625 C 60.15625 23.859375 59.210938 23.664062 57.515625 24.351562 C 56.535156 24.726562 56.070312 25.394531 55.980469 24.636719 C 55.765625 19.953125 48.28125 20.703125 51.476562 26.527344 C 52.253906 27.945312 53.089844 29.382812 54.046875 31.011719 C 54.089844 31.148438 54.320312 31.199219 54.480469 31.15625 C 58.066406 29.023438 61.101562 29.175781 61.851562 26.554688 C 62.027344 25.859375 61.804688 25.144531 61.179688 24.625 Z M 61.179688 24.625 " fill-opacity="1" fill-rule="nonzero"/><g clip-path="url(#be073939f2)"><path fill="#5170ff" d="M 101.644531 11.96875 C 102.714844 8.542969 107.648438 5.25 110.957031 6.570312 C 116.648438 8.828125 111.5625 20.292969 104.738281 17.953125 C 101.832031 16.972656 100.894531 14.429688 101.644531 11.96875 Z M 89.914062 12.933594 C 89.691406 12.121094 89.636719 11.53125 88.53125 10.070312 C 84.480469 4.777344 79.109375 6.839844 80.039062 12.503906 C 81.535156 21.648438 90.929688 19.730469 89.914062 12.933594 Z M 94.167969 14.253906 C 97.550781 15.125 100.339844 12.585938 100.886719 8.960938 C 101.207031 7.089844 99.664062 0.800781 95.300781 1.128906 C 91.402344 1.441406 89.476562 7.855469 91.269531 11.40625 C 91.910156 12.65625 92.804688 13.914062 94.167969 14.253906 Z M 109.761719 19.40625 C 106.09375 20.878906 105.683594 25.589844 108.449219 27.695312 C 113.070312 31.199219 118.65625 26.082031 118.484375 22.496094 C 118.316406 19.246094 114.570312 17.492188 109.761719 19.40625 Z M 104.585938 23.269531 C 105.878906 26.582031 107.164062 31.164062 105.960938 34.511719 C 104.328125 38.988281 99.359375 39.898438 96.015625 37.402344 C 91.636719 34.136719 92.542969 34.742188 88.066406 34.921875 C 80.992188 35.257812 79.519531 28.570312 84.042969 23.207031 C 88.085938 18.417969 96.578125 13.726562 101.3125 17.8125 C 103.304688 19.523438 103.9375 21.59375 104.585938 23.269531 Z M 100.734375 24.625 C 99.707031 23.859375 98.761719 23.664062 97.066406 24.351562 C 96.085938 24.726562 95.621094 25.394531 95.53125 24.636719 C 95.320312 19.953125 87.835938 20.703125 91.027344 26.527344 C 91.804688 27.945312 92.644531 29.382812 93.597656 31.011719 C 93.640625 31.148438 93.875 31.199219 94.035156 31.15625 C 97.621094 29.023438 100.652344 29.175781 101.402344 26.554688 C 101.582031 25.859375 101.359375 25.144531 100.734375 24.625 Z M 100.734375 24.625 " fill-opacity="1" fill-rule="nonzero"/></g><g clip-path="url(#1855a386d2)"><path fill="#5170ff" d="M 141.195312 11.96875 C 142.265625 8.542969 147.199219 5.25 150.507812 6.570312 C 156.199219 8.828125 151.117188 20.292969 144.292969 17.953125 C 141.382812 16.972656 140.445312 14.429688 141.195312 11.96875 Z M 129.464844 12.933594 C 129.242188 12.121094 129.1875 11.53125 128.082031 10.070312 C 124.03125 4.777344 118.664062 6.839844 119.589844 12.503906 C 121.089844 21.648438 130.484375 19.730469 129.464844 12.933594 Z M 133.71875 14.253906 C 137.101562 15.125 139.894531 12.585938 140.4375 8.960938 C 140.757812 7.089844 139.214844 0.800781 134.851562 1.128906 C 130.957031 1.441406 129.027344 7.855469 130.820312 11.40625 C 131.464844 12.65625 132.355469 13.914062 133.71875 14.253906 Z M 149.3125 19.40625 C 145.648438 20.878906 145.238281 25.589844 148.003906 27.695312 C 152.621094 31.199219 158.207031 26.082031 158.039062 22.496094 C 157.867188 19.246094 154.121094 17.492188 149.3125 19.40625 Z M 144.140625 23.269531 C 145.433594 26.582031 146.71875 31.164062 145.511719 34.511719 C 143.882812 38.988281 138.914062 39.898438 135.566406 37.402344 C 131.1875 34.136719 132.097656 34.742188 127.617188 34.921875 C 120.546875 35.257812 119.074219 28.570312 123.597656 23.207031 C 127.636719 18.417969 136.128906 13.726562 140.867188 17.8125 C 142.855469 19.523438 143.488281 21.59375 144.140625 23.269531 Z M 140.285156 24.625 C 139.261719 23.859375 138.316406 23.664062 136.621094 24.351562 C 135.636719 24.726562 135.175781 25.394531 135.085938 24.636719 C 134.871094 19.953125 127.386719 20.703125 130.582031 26.527344 C 131.355469 27.945312 132.195312 29.382812 133.148438 31.011719 C 133.195312 31.148438 133.425781 31.199219 133.585938 31.15625 C 137.171875 29.023438 140.207031 29.175781 140.953125 26.554688 C 141.132812 25.859375 140.910156 25.144531 140.285156 24.625 Z M 140.285156 24.625 " fill-opacity="1" fill-rule="nonzero"/></g><g clip-path="url(#9386a22023)"><path fill="#5170ff" d="M 180.75 11.96875 C 181.820312 8.542969 186.75 5.25 190.0625 6.570312 C 195.753906 8.828125 190.667969 20.292969 183.84375 17.953125 C 180.933594 16.972656 180 14.429688 180.75 11.96875 Z M 169.019531 12.933594 C 168.792969 12.121094 168.742188 11.53125 167.636719 10.070312 C 163.585938 4.777344 158.214844 6.839844 159.144531 12.503906 C 160.640625 21.648438 170.035156 19.730469 169.019531 12.933594 Z M 173.273438 14.253906 C 176.652344 15.125 179.445312 12.585938 179.988281 8.960938 C 180.3125 7.089844 178.769531 0.800781 174.40625 1.128906 C 170.507812 1.441406 168.582031 7.855469 170.375 11.40625 C 171.015625 12.65625 171.90625 13.914062 173.273438 14.253906 Z M 188.867188 19.40625 C 185.199219 20.878906 184.789062 25.589844 187.554688 27.695312 C 192.175781 31.199219 197.757812 26.082031 197.589844 22.496094 C 197.421875 19.246094 193.671875 17.492188 188.867188 19.40625 Z M 183.691406 23.269531 C 184.984375 26.582031 186.269531 31.164062 185.066406 34.511719 C 183.433594 38.988281 178.464844 39.898438 175.121094 37.402344 C 170.738281 34.136719 171.648438 34.742188 167.171875 34.921875 C 160.097656 35.257812 158.625 28.570312 163.148438 23.207031 C 167.1875 18.417969 175.679688 13.726562 180.417969 17.8125 C 182.40625 19.523438 183.039062 21.59375 183.691406 23.269531 Z M 179.839844 24.625 C 178.8125 23.859375 177.867188 23.664062 176.171875 24.351562 C 175.191406 24.726562 174.726562 25.394531 174.636719 24.636719 C 174.421875 19.953125 166.9375 20.703125 170.132812 26.527344 C 170.910156 27.945312 171.746094 29.382812 172.703125 31.011719 C 172.746094 31.148438 172.980469 31.199219 173.140625 31.15625 C 176.726562 29.023438 179.757812 29.175781 180.507812 26.554688 C 180.6875 25.859375 180.460938 25.144531 179.839844 24.625 Z M 179.839844 24.625 " fill-opacity="1" fill-rule="nonzero"/></g><g clip-path="url(#a072238a8c)"><path fill="#5170ff" d="M 220.300781 11.96875 C 221.371094 8.542969 226.304688 5.25 229.613281 6.570312 C 235.304688 8.828125 230.21875 20.292969 223.394531 17.953125 C 220.488281 16.972656 219.550781 14.429688 220.300781 11.96875 Z M 208.570312 12.933594 C 208.347656 12.121094 208.292969 11.53125 207.1875 10.070312 C 203.136719 4.777344 197.769531 6.839844 198.695312 12.503906 C 200.195312 21.648438 209.585938 19.730469 208.570312 12.933594 Z M 212.824219 14.253906 C 216.207031 15.125 219 12.585938 219.542969 8.960938 C 219.863281 7.089844 218.320312 0.800781 213.957031 1.128906 C 210.058594 1.441406 208.132812 7.855469 209.925781 11.40625 C 210.566406 12.65625 211.460938 13.914062 212.824219 14.253906 Z M 228.417969 19.40625 C 224.75 20.878906 224.339844 25.589844 227.105469 27.695312 C 231.726562 31.199219 237.3125 26.082031 237.140625 22.496094 C 236.972656 19.246094 233.226562 17.492188 228.417969 19.40625 Z M 223.246094 23.269531 C 224.539062 26.582031 225.820312 31.164062 224.617188 34.511719 C 222.984375 38.988281 218.015625 39.898438 214.671875 37.402344 C 210.292969 34.136719 211.203125 34.742188 206.722656 34.921875 C 199.648438 35.257812 198.179688 28.570312 202.699219 23.207031 C 206.742188 18.417969 215.234375 13.726562 219.96875 17.8125 C 221.960938 19.523438 222.59375 21.59375 223.246094 23.269531 Z M 219.390625 24.625 C 218.363281 23.859375 217.417969 23.664062 215.722656 24.351562 C 214.742188 24.726562 214.277344 25.394531 214.191406 24.636719 C 213.976562 19.953125 206.492188 20.703125 209.683594 26.527344 C 210.460938 27.945312 211.300781 29.382812 212.253906 31.011719 C 212.300781 31.148438 212.53125 31.199219 212.691406 31.15625 C 216.277344 29.023438 219.308594 29.175781 220.058594 26.554688 C 220.238281 25.859375 220.015625 25.144531 219.390625 24.625 Z M 219.390625 24.625 " fill-opacity="1" fill-rule="nonzero"/></g><g clip-path="url(#36f643a734)"><path fill="#5170ff" d="M 262.472656 11.96875 C 263.542969 8.542969 268.476562 5.25 271.785156 6.570312 C 277.476562 8.828125 272.390625 20.292969 265.566406 17.953125 C 262.660156 16.972656 261.722656 14.429688 262.472656 11.96875 Z M 250.742188 12.933594 C 250.519531 12.121094 250.464844 11.53125 249.359375 10.070312 C 245.308594 4.777344 239.941406 6.839844 240.867188 12.503906 C 242.367188 21.648438 251.757812 19.730469 250.742188 12.933594 Z M 254.996094 14.253906 C 258.378906 15.125 261.171875 12.585938 261.714844 8.960938 C 262.035156 7.089844 260.492188 0.800781 256.128906 1.128906 C 252.230469 1.441406 250.304688 7.855469 252.097656 11.40625 C 252.742188 12.65625 253.632812 13.914062 254.996094 14.253906 Z M 270.589844 19.40625 C 266.925781 20.878906 266.511719 25.589844 269.277344 27.695312 C 273.898438 31.199219 279.484375 26.082031 279.3125 22.496094 C 279.144531 19.246094 275.398438 17.492188 270.589844 19.40625 Z M 265.417969 23.269531 C 266.710938 26.582031 267.996094 31.164062 266.789062 34.511719 C 265.15625 38.988281 260.1875 39.898438 256.84375 37.402344 C 252.464844 34.136719 253.375 34.742188 248.894531 34.921875 C 241.820312 35.257812 240.351562 28.570312 244.871094 23.207031 C 248.914062 18.417969 257.40625 13.726562 262.140625 17.8125 C 264.132812 19.523438 264.765625 21.59375 265.417969 23.269531 Z M 261.5625 24.625 C 260.535156 23.859375 259.589844 23.664062 257.894531 24.351562 C 256.914062 24.726562 256.453125 25.394531 256.363281 24.636719 C 256.148438 19.953125 248.664062 20.703125 251.855469 26.527344 C 252.632812 27.945312 253.472656 29.382812 254.425781 31.011719 C 254.472656 31.148438 254.703125 31.199219 254.863281 31.15625 C 258.449219 29.023438 261.484375 29.175781 262.230469 26.554688 C 262.410156 25.859375 262.1875 25.144531 261.5625 24.625 Z M 261.5625 24.625 " fill-opacity="1" fill-rule="nonzero"/></g><g clip-path="url(#7fa9416d4b)"><path fill="#5170ff" d="M 304.273438 11.96875 C 305.34375 8.542969 310.277344 5.25 313.589844 6.570312 C 319.277344 8.828125 314.195312 20.292969 307.371094 17.953125 C 304.460938 16.972656 303.527344 14.429688 304.273438 11.96875 Z M 292.542969 12.933594 C 292.320312 12.121094 292.269531 11.53125 291.164062 10.070312 C 287.113281 4.777344 281.742188 6.839844 282.671875 12.503906 C 284.167969 21.648438 293.5625 19.730469 292.542969 12.933594 Z M 296.800781 14.253906 C 300.179688 15.125 302.972656 12.585938 303.515625 8.960938 C 303.839844 7.089844 302.292969 0.800781 297.933594 1.128906 C 294.035156 1.441406 292.109375 7.855469 293.902344 11.40625 C 294.542969 12.65625 295.433594 13.914062 296.800781 14.253906 Z M 312.394531 19.40625 C 308.726562 20.878906 308.316406 25.589844 311.082031 27.695312 C 315.703125 31.199219 321.285156 26.082031 321.117188 22.496094 C 320.949219 19.246094 317.199219 17.492188 312.394531 19.40625 Z M 307.21875 23.269531 C 308.511719 26.582031 309.796875 31.164062 308.59375 34.511719 C 306.960938 38.988281 301.992188 39.898438 298.644531 37.402344 C 294.265625 34.136719 295.175781 34.742188 290.699219 34.921875 C 283.625 35.257812 282.152344 28.570312 286.675781 23.207031 C 290.714844 18.417969 299.207031 13.726562 303.945312 17.8125 C 305.933594 19.523438 306.566406 21.59375 307.21875 23.269531 Z M 303.367188 24.625 C 302.339844 23.859375 301.394531 23.664062 299.699219 24.351562 C 298.71875 24.726562 298.253906 25.394531 298.164062 24.636719 C 297.949219 19.953125 290.464844 20.703125 293.660156 26.527344 C 294.4375 27.945312 295.273438 29.382812 296.230469 31.011719 C 296.273438 31.148438 296.503906 31.199219 296.667969 31.15625 C 300.253906 29.023438 303.285156 29.175781 304.035156 26.554688 C 304.210938 25.859375 303.988281 25.144531 303.367188 24.625 Z M 303.367188 24.625 " fill-opacity="1" fill-rule="nonzero"/></g><path fill="#5170ff" d="M 343.828125 11.96875 C 344.898438 8.542969 349.832031 5.25 353.140625 6.570312 C 358.832031 8.828125 353.746094 20.292969 346.921875 17.953125 C 344.015625 16.972656 343.078125 14.429688 343.828125 11.96875 Z M 332.097656 12.933594 C 331.875 12.121094 331.820312 11.53125 330.714844 10.070312 C 326.664062 4.777344 321.292969 6.839844 322.222656 12.503906 C 323.722656 21.648438 333.113281 19.730469 332.097656 12.933594 Z M 336.351562 14.253906 C 339.734375 15.125 342.523438 12.585938 343.070312 8.960938 C 343.390625 7.089844 341.847656 0.800781 337.484375 1.128906 C 333.585938 1.441406 331.660156 7.855469 333.453125 11.40625 C 334.09375 12.65625 334.988281 13.914062 336.351562 14.253906 Z M 351.945312 19.40625 C 348.277344 20.878906 347.867188 25.589844 350.632812 27.695312 C 355.253906 31.199219 360.839844 26.082031 360.667969 22.496094 C 360.5 19.246094 356.753906 17.492188 351.945312 19.40625 Z M 346.769531 23.269531 C 348.066406 26.582031 349.347656 31.164062 348.144531 34.511719 C 346.511719 38.988281 341.542969 39.898438 338.199219 37.402344 C 333.820312 34.136719 334.730469 34.742188 330.25 34.921875 C 323.175781 35.257812 321.703125 28.570312 326.226562 23.207031 C 330.269531 18.417969 338.761719 13.726562 343.496094 17.8125 C 345.488281 19.523438 346.121094 21.59375 346.769531 23.269531 Z M 342.917969 24.625 C 341.890625 23.859375 340.945312 23.664062 339.25 24.351562 C 338.269531 24.726562 337.804688 25.394531 337.71875 24.636719 C 337.503906 19.953125 330.019531 20.703125 333.210938 26.527344 C 333.988281 27.945312 334.828125 29.382812 335.78125 31.011719 C 335.824219 31.148438 336.058594 31.199219 336.21875 31.15625 C 339.804688 29.023438 342.835938 29.175781 343.585938 26.554688 C 343.765625 25.859375 343.542969 25.144531 342.917969 24.625 Z M 342.917969 24.625 " fill-opacity="1" fill-rule="nonzero"/><g clip-path="url(#0fde408bf2)"><path fill="#5170ff" d="M 383.378906 11.96875 C 384.449219 8.542969 389.382812 5.25 392.691406 6.570312 C 398.382812 8.828125 393.300781 20.292969 386.476562 17.953125 C 383.566406 16.972656 382.628906 14.429688 383.378906 11.96875 Z M 371.648438 12.933594 C 371.425781 12.121094 371.371094 11.53125 370.265625 10.070312 C 366.21875 4.777344 360.847656 6.839844 361.773438 12.503906 C 363.273438 21.648438 372.667969 19.730469 371.648438 12.933594 Z M 375.90625 14.253906 C 379.285156 15.125 382.078125 12.585938 382.621094 8.960938 C 382.941406 7.089844 381.398438 0.800781 377.039062 1.128906 C 373.140625 1.441406 371.210938 7.855469 373.003906 11.40625 C 373.648438 12.65625 374.539062 13.914062 375.90625 14.253906 Z M 391.496094 19.40625 C 387.832031 20.878906 387.421875 25.589844 390.1875 27.695312 C 394.808594 31.199219 400.390625 26.082031 400.222656 22.496094 C 400.050781 19.246094 396.304688 17.492188 391.496094 19.40625 Z M 386.324219 23.269531 C 387.617188 26.582031 388.902344 31.164062 387.695312 34.511719 C 386.066406 38.988281 381.097656 39.898438 377.75 37.402344 C 373.371094 34.136719 374.28125 34.742188 369.804688 34.921875 C 362.730469 35.257812 361.257812 28.570312 365.78125 23.207031 C 369.820312 18.417969 378.3125 13.726562 383.050781 17.8125 C 385.039062 19.523438 385.671875 21.59375 386.324219 23.269531 Z M 382.46875 24.625 C 381.445312 23.859375 380.5 23.664062 378.804688 24.351562 C 377.824219 24.726562 377.359375 25.394531 377.269531 24.636719 C 377.054688 19.953125 369.570312 20.703125 372.765625 26.527344 C 373.539062 27.945312 374.378906 29.382812 375.332031 31.011719 C 375.378906 31.148438 375.609375 31.199219 375.769531 31.15625 C 379.355469 29.023438 382.390625 29.175781 383.140625 26.554688 C 383.316406 25.859375 383.09375 25.144531 382.46875 24.625 Z M 382.46875 24.625 " fill-opacity="1" fill-rule="nonzero"/></g><path fill="#5170ff" d="M 422.933594 11.96875 C 424.003906 8.542969 428.933594 5.25 432.246094 6.570312 C 437.9375 8.828125 432.851562 20.292969 426.027344 17.953125 C 423.121094 16.972656 422.183594 14.429688 422.933594 11.96875 Z M 411.203125 12.933594 C 410.980469 12.121094 410.925781 11.53125 409.820312 10.070312 C 405.769531 4.777344 400.398438 6.839844 401.328125 12.503906 C 402.824219 21.648438 412.21875 19.730469 411.203125 12.933594 Z M 415.457031 14.253906 C 418.835938 15.125 421.628906 12.585938 422.171875 8.960938 C 422.496094 7.089844 420.953125 0.800781 416.589844 1.128906 C 412.691406 1.441406 410.765625 7.855469 412.558594 11.40625 C 413.199219 12.65625 414.09375 13.914062 415.457031 14.253906 Z M 431.050781 19.40625 C 427.382812 20.878906 426.972656 25.589844 429.738281 27.695312 C 434.359375 31.199219 439.941406 26.082031 439.773438 22.496094 C 439.605469 19.246094 435.859375 17.492188 431.050781 19.40625 Z M 425.875 23.269531 C 427.167969 26.582031 428.453125 31.164062 427.25 34.511719 C 425.617188 38.988281 420.648438 39.898438 417.304688 37.402344 C 412.921875 34.136719 413.832031 34.742188 409.355469 34.921875 C 402.28125 35.257812 400.808594 28.570312 405.332031 23.207031 C 409.375 18.417969 417.867188 13.726562 422.601562 17.8125 C 424.589844 19.523438 425.222656 21.59375 425.875 23.269531 Z M 422.023438 24.625 C 420.996094 23.859375 420.050781 23.664062 418.355469 24.351562 C 417.375 24.726562 416.910156 25.394531 416.820312 24.636719 C 416.609375 19.953125 409.125 20.703125 412.316406 26.527344 C 413.09375 27.945312 413.929688 29.382812 414.886719 31.011719 C 414.929688 31.148438 415.164062 31.199219 415.324219 31.15625 C 418.910156 29.023438 421.941406 29.175781 422.691406 26.554688 C 422.871094 25.859375 422.648438 25.144531 422.023438 24.625 Z M 422.023438 24.625 " fill-opacity="1" fill-rule="nonzero"/><g clip-path="url(#1191b6a312)"><path fill="#5170ff" d="M 462.484375 11.96875 C 463.554688 8.542969 468.488281 5.25 471.796875 6.570312 C 477.488281 8.828125 472.402344 20.292969 465.578125 17.953125 C 462.671875 16.972656 461.734375 14.429688 462.484375 11.96875 Z M 450.753906 12.933594 C 450.53125 12.121094 450.476562 11.53125 449.371094 10.070312 C 445.320312 4.777344 439.953125 6.839844 440.878906 12.503906 C 442.378906 21.648438 451.769531 19.730469 450.753906 12.933594 Z M 455.007812 14.253906 C 458.390625 15.125 461.183594 12.585938 461.726562 8.960938 C 462.046875 7.089844 460.503906 0.800781 456.140625 1.128906 C 452.242188 1.441406 450.316406 7.855469 452.109375 11.40625 C 452.753906 12.65625 453.644531 13.914062 455.007812 14.253906 Z M 470.601562 19.40625 C 466.933594 20.878906 466.523438 25.589844 469.289062 27.695312 C 473.910156 31.199219 479.496094 26.082031 479.324219 22.496094 C 479.15625 19.246094 475.410156 17.492188 470.601562 19.40625 Z M 465.429688 23.269531 C 466.722656 26.582031 468.007812 31.164062 466.800781 34.511719 C 465.167969 38.988281 460.199219 39.898438 456.855469 37.402344 C 452.476562 34.136719 453.386719 34.742188 448.90625 34.921875 C 441.832031 35.257812 440.363281 28.570312 444.882812 23.207031 C 448.925781 18.417969 457.417969 13.726562 462.152344 17.8125 C 464.144531 19.523438 464.777344 21.59375 465.429688 23.269531 Z M 461.574219 24.625 C 460.546875 23.859375 459.601562 23.664062 457.90625 24.351562 C 456.925781 24.726562 456.464844 25.394531 456.375 24.636719 C 456.160156 19.953125 448.675781 20.703125 451.867188 26.527344 C 452.644531 27.945312 453.484375 29.382812 454.4375 31.011719 C 454.484375 31.148438 454.714844 31.199219 454.875 31.15625 C 458.460938 29.023438 461.492188 29.175781 462.242188 26.554688 C 462.421875 25.859375 462.199219 25.144531 461.574219 24.625 Z M 461.574219 24.625 " fill-opacity="1" fill-rule="nonzero"/></g><path fill="#5170ff" d="M 502.035156 11.96875 C 503.105469 8.542969 508.039062 5.25 511.347656 6.570312 C 517.039062 8.828125 511.957031 20.292969 505.132812 17.953125 C 502.222656 16.972656 501.289062 14.429688 502.035156 11.96875 Z M 490.304688 12.933594 C 490.082031 12.121094 490.03125 11.53125 488.921875 10.070312 C 484.875 4.777344 479.503906 6.839844 480.429688 12.503906 C 481.929688 21.648438 491.324219 19.730469 490.304688 12.933594 Z M 494.5625 14.253906 C 497.941406 15.125 500.734375 12.585938 501.277344 8.960938 C 501.597656 7.089844 500.054688 0.800781 495.695312 1.128906 C 491.796875 1.441406 489.871094 7.855469 491.664062 11.40625 C 492.304688 12.65625 493.195312 13.914062 494.5625 14.253906 Z M 510.152344 19.40625 C 506.488281 20.878906 506.078125 25.589844 508.84375 27.695312 C 513.464844 31.199219 519.046875 26.082031 518.878906 22.496094 C 518.707031 19.246094 514.960938 17.492188 510.152344 19.40625 Z M 504.980469 23.269531 C 506.273438 26.582031 507.558594 31.164062 506.355469 34.511719 C 504.722656 38.988281 499.753906 39.898438 496.40625 37.402344 C 492.027344 34.136719 492.9375 34.742188 488.460938 34.921875 C 481.386719 35.257812 479.914062 28.570312 484.4375 23.207031 C 488.476562 18.417969 496.96875 13.726562 501.707031 17.8125 C 503.695312 19.523438 504.328125 21.59375 504.980469 23.269531 Z M 501.125 24.625 C 500.101562 23.859375 499.15625 23.664062 497.460938 24.351562 C 496.480469 24.726562 496.015625 25.394531 495.925781 24.636719 C 495.710938 19.953125 488.226562 20.703125 491.421875 26.527344 C 492.199219 27.945312 493.035156 29.382812 493.992188 31.011719 C 494.035156 31.148438 494.265625 31.199219 494.425781 31.15625 C 498.011719 29.023438 501.046875 29.175781 501.796875 26.554688 C 501.972656 25.859375 501.75 25.144531 501.125 24.625 Z M 501.125 24.625 " fill-opacity="1" fill-rule="nonzero"/><g clip-path="url(#807f23c817)"><path fill="#5170ff" d="M 544.207031 11.96875 C 545.277344 8.542969 550.210938 5.25 553.523438 6.570312 C 559.210938 8.828125 554.128906 20.292969 547.304688 17.953125 C 544.394531 16.972656 543.460938 14.429688 544.207031 11.96875 Z M 532.476562 12.933594 C 532.253906 12.121094 532.203125 11.53125 531.097656 10.070312 C 527.046875 4.777344 521.675781 6.839844 522.605469 12.503906 C 524.101562 21.648438 533.496094 19.730469 532.476562 12.933594 Z M 536.734375 14.253906 C 540.113281 15.125 542.90625 12.585938 543.449219 8.960938 C 543.773438 7.089844 542.226562 0.800781 537.867188 1.128906 C 533.96875 1.441406 532.042969 7.855469 533.835938 11.40625 C 534.476562 12.65625 535.367188 13.914062 536.734375 14.253906 Z M 552.328125 19.40625 C 548.660156 20.878906 548.25 25.589844 551.015625 27.695312 C 555.636719 31.199219 561.21875 26.082031 561.050781 22.496094 C 560.882812 19.246094 557.132812 17.492188 552.328125 19.40625 Z M 547.152344 23.269531 C 548.445312 26.582031 549.730469 31.164062 548.527344 34.511719 C 546.894531 38.988281 541.925781 39.898438 538.578125 37.402344 C 534.199219 34.136719 535.109375 34.742188 530.632812 34.921875 C 523.558594 35.257812 522.085938 28.570312 526.609375 23.207031 C 530.648438 18.417969 539.140625 13.726562 543.878906 17.8125 C 545.867188 19.523438 546.5 21.59375 547.152344 23.269531 Z M 543.296875 24.625 C 542.273438 23.859375 541.328125 23.664062 539.632812 24.351562 C 538.652344 24.726562 538.1875 25.394531 538.097656 24.636719 C 537.882812 19.953125 530.398438 20.703125 533.59375 26.527344 C 534.371094 27.945312 535.207031 29.382812 536.164062 31.011719 C 536.207031 31.148438 536.4375 31.199219 536.601562 31.15625 C 540.1875 29.023438 543.21875 29.175781 543.96875 26.554688 C 544.144531 25.859375 543.921875 25.144531 543.296875 24.625 Z M 543.296875 24.625 " fill-opacity="1" fill-rule="nonzero"/></g></g></g></svg>