<svg xmlns="http://www.w3.org/2000/svg" xmlns:xlink="http://www.w3.org/1999/xlink" width="1080" zoomAndPan="magnify" viewBox="0 0 810 424.499987" height="566" preserveAspectRatio="xMidYMid meet" version="1.0"><defs><clipPath id="f76eb6ae7a"><path d="M 217 31.636719 L 593 31.636719 L 593 391 L 217 391 Z M 217 31.636719 " clip-rule="nonzero"/></clipPath></defs><g clip-path="url(#f76eb6ae7a)"><path fill="#975ab6" d="M 543.734375 195.511719 L 543.734375 163.601562 C 543.734375 90.804688 481.464844 31.636719 404.996094 31.636719 C 328.523438 31.636719 266.253906 90.804688 266.253906 163.601562 L 266.253906 195.511719 C 264.574219 195.753906 262.90625 196.070312 261.253906 196.460938 C 259.601562 196.855469 257.96875 197.316406 256.359375 197.855469 C 254.746094 198.390625 253.160156 199 251.605469 199.675781 C 250.046875 200.355469 248.523438 201.101562 247.03125 201.917969 C 245.542969 202.730469 244.089844 203.609375 242.675781 204.554688 C 241.265625 205.496094 239.898438 206.5 238.574219 207.566406 C 237.253906 208.632812 235.980469 209.753906 234.757812 210.933594 C 233.535156 212.113281 232.367188 213.34375 231.253906 214.628906 C 230.140625 215.914062 229.085938 217.242188 228.09375 218.621094 C 227.097656 219.996094 226.167969 221.417969 225.300781 222.875 C 224.433594 224.335938 223.632812 225.832031 222.898438 227.363281 C 222.164062 228.898438 221.5 230.457031 220.90625 232.050781 C 220.308594 233.640625 219.789062 235.253906 219.335938 236.894531 C 218.886719 238.53125 218.507812 240.183594 218.207031 241.855469 C 217.902344 243.527344 217.675781 245.210938 217.519531 246.902344 C 217.367188 248.59375 217.289062 250.289062 217.289062 251.988281 L 217.289062 268.308594 C 217.289062 270.179688 217.378906 272.046875 217.5625 273.910156 C 217.746094 275.769531 218.019531 277.617188 218.386719 279.453125 C 218.75 281.289062 219.207031 283.101562 219.75 284.890625 C 220.292969 286.683594 220.921875 288.441406 221.636719 290.171875 C 222.351562 291.898438 223.152344 293.589844 224.035156 295.238281 C 224.917969 296.890625 225.878906 298.492188 226.917969 300.046875 C 227.957031 301.601562 229.070312 303.105469 230.257812 304.550781 C 231.441406 305.996094 232.699219 307.382812 234.019531 308.703125 C 235.34375 310.027344 236.730469 311.28125 238.175781 312.46875 C 239.621094 313.65625 241.121094 314.769531 242.679688 315.808594 C 244.234375 316.847656 245.835938 317.808594 247.488281 318.691406 C 249.136719 319.574219 250.828125 320.371094 252.554688 321.089844 C 254.285156 321.804688 256.042969 322.433594 257.832031 322.976562 C 259.625 323.519531 261.4375 323.972656 263.273438 324.339844 C 265.105469 324.703125 266.957031 324.976562 268.816406 325.160156 C 270.679688 325.34375 272.546875 325.4375 274.417969 325.4375 L 298.898438 325.4375 C 299.433594 325.4375 299.96875 325.410156 300.5 325.359375 C 301.03125 325.304688 301.558594 325.226562 302.085938 325.125 C 302.609375 325.019531 303.125 324.890625 303.636719 324.734375 C 304.148438 324.578125 304.652344 324.398438 305.148438 324.195312 C 305.640625 323.988281 306.125 323.761719 306.59375 323.507812 C 307.066406 323.257812 307.523438 322.984375 307.96875 322.6875 C 308.414062 322.390625 308.84375 322.070312 309.253906 321.730469 C 309.667969 321.394531 310.0625 321.035156 310.441406 320.65625 C 310.820312 320.277344 311.179688 319.882812 311.519531 319.46875 C 311.855469 319.054688 312.175781 318.628906 312.472656 318.183594 C 312.769531 317.738281 313.042969 317.28125 313.296875 316.808594 C 313.546875 316.335938 313.777344 315.855469 313.980469 315.359375 C 314.183594 314.867188 314.363281 314.363281 314.519531 313.851562 C 314.675781 313.339844 314.804688 312.824219 314.910156 312.300781 C 315.011719 311.773438 315.089844 311.246094 315.144531 310.714844 C 315.195312 310.183594 315.222656 309.648438 315.222656 309.113281 L 315.222656 211.179688 C 315.222656 210.644531 315.195312 210.113281 315.144531 209.582031 C 315.089844 209.046875 315.011719 208.519531 314.910156 207.996094 C 314.804688 207.472656 314.675781 206.953125 314.519531 206.441406 C 314.363281 205.929688 314.183594 205.429688 313.980469 204.933594 C 313.777344 204.441406 313.546875 203.957031 313.296875 203.484375 C 313.042969 203.015625 312.769531 202.558594 312.472656 202.113281 C 312.175781 201.667969 311.855469 201.238281 311.519531 200.824219 C 311.179688 200.414062 310.820312 200.015625 310.441406 199.640625 C 310.0625 199.261719 309.667969 198.902344 309.253906 198.5625 C 308.84375 198.222656 308.414062 197.90625 307.96875 197.609375 C 307.523438 197.3125 307.066406 197.039062 306.59375 196.785156 C 306.125 196.535156 305.640625 196.304688 305.148438 196.101562 C 304.652344 195.894531 304.148438 195.714844 303.636719 195.5625 C 303.125 195.40625 302.609375 195.277344 302.085938 195.171875 C 301.558594 195.066406 301.03125 194.988281 300.5 194.9375 C 299.96875 194.882812 299.433594 194.859375 298.898438 194.859375 L 298.898438 163.601562 C 298.898438 108.839844 346.480469 64.28125 404.996094 64.28125 C 463.511719 64.28125 511.089844 108.839844 511.089844 163.601562 L 511.089844 194.859375 C 510.554688 194.859375 510.023438 194.882812 509.492188 194.9375 C 508.957031 194.988281 508.429688 195.066406 507.90625 195.171875 C 507.382812 195.277344 506.863281 195.40625 506.351562 195.5625 C 505.839844 195.714844 505.339844 195.894531 504.84375 196.101562 C 504.351562 196.304688 503.867188 196.535156 503.394531 196.785156 C 502.925781 197.039062 502.46875 197.3125 502.023438 197.609375 C 501.578125 197.90625 501.148438 198.222656 500.734375 198.5625 C 500.324219 198.902344 499.925781 199.261719 499.550781 199.640625 C 499.171875 200.015625 498.8125 200.414062 498.472656 200.824219 C 498.132812 201.238281 497.816406 201.667969 497.519531 202.113281 C 497.222656 202.558594 496.949219 203.015625 496.695312 203.484375 C 496.445312 203.957031 496.214844 204.441406 496.011719 204.933594 C 495.804688 205.429688 495.625 205.929688 495.472656 206.441406 C 495.316406 206.953125 495.1875 207.472656 495.082031 207.996094 C 494.976562 208.519531 494.898438 209.046875 494.847656 209.582031 C 494.792969 210.113281 494.769531 210.644531 494.769531 211.179688 L 494.769531 309.113281 C 494.773438 311.136719 495.140625 313.089844 495.875 314.976562 C 496.605469 316.863281 497.652344 318.554688 499.011719 320.050781 C 493.371094 324.054688 487.496094 327.679688 481.390625 330.925781 C 475.285156 334.171875 468.992188 337.015625 462.519531 339.453125 C 456.046875 341.890625 449.445312 343.902344 442.714844 345.492188 C 435.984375 347.078125 429.175781 348.230469 422.296875 348.941406 C 421.71875 348.359375 421.113281 347.804688 420.480469 347.285156 C 419.847656 346.761719 419.191406 346.273438 418.507812 345.816406 C 417.828125 345.363281 417.125 344.941406 416.398438 344.554688 C 415.675781 344.171875 414.933594 343.824219 414.171875 343.511719 C 413.414062 343.203125 412.640625 342.929688 411.855469 342.695312 C 411.066406 342.464844 410.269531 342.269531 409.464844 342.117188 C 408.660156 341.964844 407.847656 341.855469 407.027344 341.78125 C 406.210938 341.710938 405.394531 341.679688 404.574219 341.691406 C 403.753906 341.703125 402.933594 341.757812 402.121094 341.847656 C 401.304688 341.941406 400.496094 342.078125 399.695312 342.25 C 398.890625 342.425781 398.101562 342.640625 397.320312 342.894531 C 396.542969 343.148438 395.777344 343.441406 395.023438 343.773438 C 394.273438 344.101562 393.542969 344.472656 392.828125 344.875 C 392.113281 345.28125 391.421875 345.71875 390.753906 346.195312 C 390.085938 346.667969 389.441406 347.175781 388.820312 347.714844 C 388.203125 348.253906 387.613281 348.820312 387.050781 349.421875 C 386.488281 350.019531 385.960938 350.644531 385.460938 351.292969 C 384.964844 351.945312 384.5 352.621094 384.066406 353.320312 C 383.636719 354.019531 383.242188 354.734375 382.882812 355.472656 C 382.523438 356.210938 382.203125 356.964844 381.921875 357.734375 C 381.640625 358.507812 381.394531 359.289062 381.191406 360.082031 C 380.988281 360.878906 380.824219 361.679688 380.699219 362.492188 C 380.578125 363.304688 380.496094 364.117188 380.453125 364.9375 C 380.410156 365.757812 380.410156 366.578125 380.453125 367.398438 C 380.492188 368.214844 380.574219 369.03125 380.699219 369.84375 C 380.820312 370.652344 380.984375 371.457031 381.1875 372.25 C 381.390625 373.046875 381.636719 373.828125 381.917969 374.597656 C 382.199219 375.371094 382.519531 376.125 382.878906 376.863281 C 383.234375 377.601562 383.628906 378.316406 384.0625 379.015625 C 384.492188 379.714844 384.957031 380.390625 385.453125 381.042969 C 385.953125 381.695312 386.480469 382.320312 387.042969 382.917969 C 387.605469 383.515625 388.195312 384.085938 388.8125 384.625 C 389.429688 385.164062 390.074219 385.671875 390.742188 386.144531 C 391.414062 386.621094 392.105469 387.058594 392.816406 387.464844 C 393.53125 387.871094 394.261719 388.238281 395.011719 388.570312 C 395.765625 388.902344 396.527344 389.195312 397.308594 389.449219 C 398.089844 389.703125 398.878906 389.917969 399.679688 390.09375 C 400.484375 390.269531 401.292969 390.402344 402.105469 390.496094 C 402.921875 390.589844 403.738281 390.644531 404.558594 390.65625 C 405.378906 390.667969 406.199219 390.636719 407.015625 390.566406 C 407.832031 390.496094 408.644531 390.382812 409.453125 390.230469 C 410.257812 390.078125 411.054688 389.886719 411.839844 389.65625 C 412.628906 389.421875 413.402344 389.152344 414.160156 388.839844 C 414.921875 388.53125 415.664062 388.183594 416.386719 387.796875 C 417.113281 387.414062 417.816406 386.992188 418.496094 386.539062 C 419.179688 386.082031 419.839844 385.59375 420.472656 385.070312 C 421.105469 384.550781 421.710938 384 422.289062 383.414062 C 422.867188 382.832031 423.414062 382.222656 423.929688 381.585938 C 429.324219 381.117188 434.6875 380.414062 440.019531 379.480469 C 445.355469 378.550781 450.636719 377.386719 455.871094 375.996094 C 461.101562 374.605469 466.265625 372.992188 471.359375 371.15625 C 476.453125 369.316406 481.457031 367.265625 486.371094 364.992188 C 491.289062 362.722656 496.097656 360.246094 500.796875 357.558594 C 505.5 354.871094 510.074219 351.988281 514.527344 348.90625 C 518.976562 345.824219 523.289062 342.554688 527.457031 339.097656 C 531.625 335.644531 535.636719 332.015625 539.492188 328.210938 C 540.328125 327.367188 541.0625 326.441406 541.695312 325.4375 C 543.433594 325.25 545.164062 324.984375 546.878906 324.636719 C 548.59375 324.289062 550.289062 323.867188 551.964844 323.363281 C 553.640625 322.863281 555.289062 322.285156 556.914062 321.628906 C 558.539062 320.976562 560.128906 320.25 561.683594 319.449219 C 563.238281 318.652344 564.757812 317.78125 566.234375 316.84375 C 567.710938 315.902344 569.140625 314.898438 570.523438 313.828125 C 571.910156 312.757812 573.242188 311.625 574.519531 310.433594 C 575.800781 309.238281 577.023438 307.992188 578.1875 306.6875 C 579.355469 305.378906 580.457031 304.023438 581.5 302.617188 C 582.539062 301.210938 583.511719 299.761719 584.421875 298.265625 C 585.328125 296.765625 586.164062 295.234375 586.933594 293.660156 C 587.699219 292.085938 588.390625 290.480469 589.011719 288.84375 C 589.628906 287.207031 590.171875 285.546875 590.636719 283.859375 C 591.105469 282.171875 591.492188 280.46875 591.800781 278.746094 C 592.109375 277.023438 592.339844 275.292969 592.492188 273.546875 C 592.640625 271.804688 592.710938 270.058594 592.703125 268.308594 L 592.703125 251.988281 C 592.699219 250.289062 592.621094 248.59375 592.46875 246.902344 C 592.316406 245.210938 592.089844 243.527344 591.785156 241.855469 C 591.480469 240.183594 591.105469 238.53125 590.652344 236.894531 C 590.203125 235.253906 589.679688 233.640625 589.085938 232.050781 C 588.492188 230.457031 587.828125 228.898438 587.09375 227.363281 C 586.359375 225.832031 585.558594 224.335938 584.691406 222.875 C 583.824219 221.417969 582.890625 219.996094 581.898438 218.621094 C 580.902344 217.242188 579.851562 215.914062 578.738281 214.628906 C 577.625 213.34375 576.457031 212.113281 575.234375 210.933594 C 574.011719 209.753906 572.738281 208.632812 571.414062 207.566406 C 570.09375 206.5 568.726562 205.496094 567.3125 204.554688 C 565.902344 203.609375 564.449219 202.730469 562.957031 201.917969 C 561.46875 201.101562 559.945312 200.355469 558.386719 199.675781 C 556.828125 199 555.246094 198.390625 553.632812 197.855469 C 552.023438 197.316406 550.390625 196.855469 548.738281 196.460938 C 547.082031 196.070312 545.417969 195.753906 543.734375 195.511719 Z M 282.578125 292.792969 L 274.417969 292.792969 C 273.613281 292.792969 272.816406 292.753906 272.015625 292.675781 C 271.21875 292.597656 270.425781 292.476562 269.640625 292.320312 C 268.855469 292.164062 268.078125 291.972656 267.308594 291.738281 C 266.542969 291.503906 265.789062 291.234375 265.046875 290.929688 C 264.304688 290.621094 263.582031 290.277344 262.875 289.902344 C 262.167969 289.523438 261.480469 289.113281 260.816406 288.664062 C 260.148438 288.21875 259.503906 287.742188 258.882812 287.234375 C 258.265625 286.726562 257.671875 286.1875 257.105469 285.621094 C 256.539062 285.054688 256 284.460938 255.492188 283.839844 C 254.980469 283.222656 254.503906 282.578125 254.058594 281.910156 C 253.613281 281.246094 253.203125 280.558594 252.824219 279.851562 C 252.445312 279.144531 252.105469 278.417969 251.796875 277.679688 C 251.488281 276.9375 251.21875 276.183594 250.988281 275.414062 C 250.753906 274.648438 250.558594 273.871094 250.402344 273.085938 C 250.246094 272.296875 250.128906 271.507812 250.050781 270.707031 C 249.972656 269.910156 249.933594 269.109375 249.933594 268.308594 L 249.933594 251.988281 C 249.933594 251.183594 249.972656 250.382812 250.050781 249.585938 C 250.128906 248.789062 250.246094 247.996094 250.402344 247.210938 C 250.558594 246.421875 250.753906 245.648438 250.988281 244.878906 C 251.21875 244.113281 251.488281 243.359375 251.796875 242.617188 C 252.105469 241.875 252.445312 241.152344 252.824219 240.445312 C 253.203125 239.738281 253.613281 239.050781 254.058594 238.382812 C 254.503906 237.71875 254.980469 237.074219 255.492188 236.453125 C 256 235.835938 256.539062 235.242188 257.105469 234.675781 C 257.671875 234.105469 258.265625 233.570312 258.882812 233.058594 C 259.503906 232.550781 260.148438 232.074219 260.816406 231.628906 C 261.480469 231.183594 262.167969 230.773438 262.875 230.394531 C 263.582031 230.015625 264.304688 229.671875 265.046875 229.367188 C 265.789062 229.058594 266.542969 228.789062 267.308594 228.558594 C 268.078125 228.324219 268.855469 228.128906 269.640625 227.972656 C 270.425781 227.816406 271.21875 227.699219 272.015625 227.621094 C 272.816406 227.542969 273.613281 227.503906 274.417969 227.503906 L 282.578125 227.503906 Z M 560.058594 268.308594 C 560.058594 269.109375 560.019531 269.910156 559.941406 270.707031 C 559.859375 271.507812 559.742188 272.296875 559.585938 273.085938 C 559.429688 273.871094 559.234375 274.648438 559.003906 275.414062 C 558.769531 276.183594 558.5 276.9375 558.195312 277.679688 C 557.886719 278.417969 557.542969 279.144531 557.167969 279.851562 C 556.789062 280.558594 556.375 281.246094 555.929688 281.910156 C 555.484375 282.578125 555.007812 283.222656 554.5 283.839844 C 553.992188 284.460938 553.453125 285.054688 552.886719 285.621094 C 552.320312 286.1875 551.726562 286.726562 551.105469 287.234375 C 550.488281 287.742188 549.84375 288.21875 549.175781 288.664062 C 548.507812 289.113281 547.824219 289.523438 547.117188 289.902344 C 546.410156 290.277344 545.683594 290.621094 544.945312 290.929688 C 544.203125 291.234375 543.449219 291.503906 542.679688 291.738281 C 541.914062 291.972656 541.136719 292.164062 540.351562 292.320312 C 539.5625 292.476562 538.773438 292.597656 537.972656 292.675781 C 537.175781 292.753906 536.375 292.792969 535.574219 292.792969 L 527.414062 292.792969 L 527.414062 227.503906 L 535.574219 227.503906 C 536.375 227.503906 537.175781 227.542969 537.972656 227.621094 C 538.773438 227.699219 539.5625 227.816406 540.351562 227.972656 C 541.136719 228.128906 541.914062 228.324219 542.679688 228.558594 C 543.449219 228.789062 544.203125 229.058594 544.945312 229.367188 C 545.683594 229.671875 546.410156 230.015625 547.117188 230.394531 C 547.824219 230.773438 548.507812 231.183594 549.175781 231.628906 C 549.84375 232.074219 550.488281 232.550781 551.105469 233.058594 C 551.726562 233.570312 552.320312 234.105469 552.886719 234.675781 C 553.453125 235.242188 553.992188 235.835938 554.5 236.453125 C 555.007812 237.074219 555.484375 237.71875 555.929688 238.382812 C 556.375 239.050781 556.789062 239.738281 557.167969 240.445312 C 557.542969 241.152344 557.886719 241.875 558.195312 242.617188 C 558.5 243.359375 558.769531 244.113281 559.003906 244.878906 C 559.234375 245.648438 559.429688 246.421875 559.585938 247.210938 C 559.742188 247.996094 559.859375 248.789062 559.941406 249.585938 C 560.019531 250.382812 560.058594 251.183594 560.058594 251.988281 Z M 560.058594 268.308594 " fill-opacity="1" fill-rule="nonzero"/></g></svg>