<svg xmlns="http://www.w3.org/2000/svg" xmlns:xlink="http://www.w3.org/1999/xlink" width="500" zoomAndPan="magnify" viewBox="0 0 375 374.999991" height="500" preserveAspectRatio="xMidYMid meet" version="1.0"><defs><clipPath id="d563311e6a"><path d="M 0.59375 0.59375 L 356.40625 0.59375 L 356.40625 356.40625 L 0.59375 356.40625 Z M 0.59375 0.59375 " clip-rule="nonzero"/></clipPath><clipPath id="eb9198fa0a"><path d="M 178.5 0.59375 C 80.246094 0.59375 0.59375 80.246094 0.59375 178.5 C 0.59375 276.753906 80.246094 356.40625 178.5 356.40625 C 276.753906 356.40625 356.40625 276.753906 356.40625 178.5 C 356.40625 80.246094 276.753906 0.59375 178.5 0.59375 Z M 178.5 0.59375 " clip-rule="nonzero"/></clipPath><clipPath id="738b055a0c"><path d="M 0.59375 0.59375 L 356.40625 0.59375 L 356.40625 356.40625 L 0.59375 356.40625 Z M 0.59375 0.59375 " clip-rule="nonzero"/></clipPath><clipPath id="4580f215df"><path d="M 178.5 0.59375 C 80.246094 0.59375 0.59375 80.246094 0.59375 178.5 C 0.59375 276.753906 80.246094 356.40625 178.5 356.40625 C 276.753906 356.40625 356.40625 276.753906 356.40625 178.5 C 356.40625 80.246094 276.753906 0.59375 178.5 0.59375 Z M 178.5 0.59375 " clip-rule="nonzero"/></clipPath><clipPath id="ee1125180b"><rect x="0" width="357" y="0" height="357"/></clipPath><clipPath id="e0c5ce011d"><path d="M 6.386719 6.386719 L 350.613281 6.386719 L 350.613281 350.613281 L 6.386719 350.613281 Z M 6.386719 6.386719 " clip-rule="nonzero"/></clipPath><clipPath id="595489f590"><path d="M 178.5 6.386719 C 83.445312 6.386719 6.386719 83.445312 6.386719 178.5 C 6.386719 273.554688 83.445312 350.613281 178.5 350.613281 C 273.554688 350.613281 350.613281 273.554688 350.613281 178.5 C 350.613281 83.445312 273.554688 6.386719 178.5 6.386719 Z M 178.5 6.386719 " clip-rule="nonzero"/></clipPath><clipPath id="e38e85cfe8"><path d="M 0.386719 0.386719 L 344.613281 0.386719 L 344.613281 344.613281 L 0.386719 344.613281 Z M 0.386719 0.386719 " clip-rule="nonzero"/></clipPath><clipPath id="0787d881a8"><path d="M 172.5 0.386719 C 77.445312 0.386719 0.386719 77.445312 0.386719 172.5 C 0.386719 267.554688 77.445312 344.613281 172.5 344.613281 C 267.554688 344.613281 344.613281 267.554688 344.613281 172.5 C 344.613281 77.445312 267.554688 0.386719 172.5 0.386719 Z M 172.5 0.386719 " clip-rule="nonzero"/></clipPath><clipPath id="ac21efd68b"><rect x="0" width="345" y="0" height="345"/></clipPath><clipPath id="5045a2bfad"><path d="M 18.105469 17.058594 L 339 17.058594 L 339 328 L 18.105469 328 Z M 18.105469 17.058594 " clip-rule="nonzero"/></clipPath><clipPath id="12061b697a"><rect x="0" width="357" y="0" height="357"/></clipPath></defs><rect x="-37.5" width="450" fill="#ffffff" y="-37.499999" height="449.999989" fill-opacity="1"/><rect x="-37.5" width="450" fill="#ffffff" y="-37.499999" height="449.999989" fill-opacity="1"/><g transform="matrix(1, 0, 0, 1, 9, 9)"><g clip-path="url(#12061b697a)"><g clip-path="url(#d563311e6a)"><g clip-path="url(#eb9198fa0a)"><g><g clip-path="url(#ee1125180b)"><g clip-path="url(#738b055a0c)"><g clip-path="url(#4580f215df)"><path fill="#9856d8" d="M 0.59375 0.59375 L 356.40625 0.59375 L 356.40625 356.40625 L 0.59375 356.40625 Z M 0.59375 0.59375 " fill-opacity="1" fill-rule="nonzero"/></g></g></g></g></g></g><g clip-path="url(#e0c5ce011d)"><g clip-path="url(#595489f590)"><g transform="matrix(1, 0, 0, 1, 6, 6)"><g clip-path="url(#ac21efd68b)"><g clip-path="url(#e38e85cfe8)"><g clip-path="url(#0787d881a8)"><path fill="#9856d8" d="M 0.386719 0.386719 L 344.613281 0.386719 L 344.613281 344.613281 L 0.386719 344.613281 Z M 0.386719 0.386719 " fill-opacity="1" fill-rule="nonzero"/></g></g></g></g></g></g><g clip-path="url(#5045a2bfad)"><path fill="#ffffff" d="M 234.199219 327.214844 C 226.917969 327.214844 219.539062 326.113281 212.265625 323.933594 C 194.589844 318.632812 185.773438 316.875 182.050781 316.296875 L 175.226562 316.261719 C 171.476562 316.808594 162.640625 318.488281 144.953125 323.621094 C 137.894531 325.667969 130.722656 326.703125 123.652344 326.703125 C 107.023438 326.703125 91.28125 320.832031 79.328125 310.171875 C 66.488281 298.710938 58.640625 282.722656 56.640625 263.921875 C 54.503906 243.902344 59.984375 228.28125 66.890625 216.453125 C 50.003906 210.863281 34.972656 196.988281 26.246094 178.011719 C 19.261719 162.8125 17.09375 146.003906 20.152344 130.664062 C 23.710938 112.863281 34.070312 98.480469 48.613281 91.1875 C 55.394531 87.785156 62.699219 86.0625 70.335938 86.0625 C 72.503906 86.0625 74.683594 86.195312 76.839844 86.484375 C 77.117188 72.308594 80.675781 58.691406 87.175781 47.296875 C 96.683594 30.621094 111.835938 20.015625 128.753906 18.203125 C 130.480469 18.015625 132.222656 17.925781 133.957031 17.925781 C 151.457031 17.925781 167.789062 27.195312 179.203125 42.9375 C 191.253906 26.730469 208.132812 17.167969 225.863281 17.167969 C 229.730469 17.167969 233.589844 17.636719 237.347656 18.546875 C 253.890625 22.550781 267.609375 35.078125 274.988281 52.898438 C 279.347656 63.425781 281.316406 75.332031 280.816406 87.507812 C 283.039062 87.207031 285.261719 87.0625 287.496094 87.0625 C 295.300781 87.0625 302.75 88.863281 309.628906 92.386719 C 324.105469 99.824219 334.355469 114.296875 337.757812 132.121094 C 340.679688 147.496094 338.378906 164.292969 331.265625 179.421875 C 322.539062 197.964844 307.695312 211.605469 291.074219 217.210938 C 297.945312 229.136719 303.394531 244.902344 301.082031 265.046875 C 298.9375 283.691406 291.042969 299.53125 278.257812 310.859375 C 266.363281 321.410156 250.710938 327.214844 234.199219 327.214844 " fill-opacity="1" fill-rule="nonzero"/></g><path fill="#9856d8" d="M 328.351562 134.074219 C 325.550781 119.335938 317.179688 107.417969 305.40625 101.378906 C 299.847656 98.523438 293.820312 97.078125 287.496094 97.078125 C 281.347656 97.078125 275.246094 98.457031 269.464844 101.015625 C 272.777344 85.660156 271.621094 69.996094 266.183594 56.867188 C 260.027344 41.992188 248.71875 31.578125 235.179688 28.296875 C 232.132812 27.550781 229 27.183594 225.863281 27.183594 C 206.730469 27.183594 188.722656 41.203125 179.027344 62.203125 C 170.1875 41.648438 153.15625 27.929688 133.957031 27.929688 C 132.558594 27.929688 131.132812 28.007812 129.734375 28.152344 C 115.859375 29.640625 103.351562 38.480469 95.402344 52.421875 C 88.300781 64.871094 85.253906 80.46875 86.8125 96.332031 C 86.910156 97.402344 87.03125 98.457031 87.175781 99.511719 C 81.753906 97.277344 76.070312 96.066406 70.335938 96.066406 C 64.144531 96.066406 58.238281 97.46875 52.757812 100.214844 C 40.941406 106.148438 32.46875 117.988281 29.535156 132.699219 C 26.902344 145.90625 28.800781 160.457031 34.882812 173.675781 C 44.800781 195.230469 63.832031 209.148438 83.386719 209.148438 C 83.542969 209.148438 83.699219 209.140625 83.855469 209.140625 C 72.738281 222.855469 63.710938 239.789062 66.167969 262.8125 C 67.890625 279.042969 74.605469 292.785156 85.566406 302.566406 C 95.769531 311.671875 109.300781 316.695312 123.652344 316.695312 C 129.855469 316.695312 136.160156 315.773438 142.386719 313.972656 C 164.042969 307.691406 173.144531 306.367188 176.101562 306.078125 L 181.261719 306.101562 C 184.207031 306.414062 193.269531 307.8125 214.914062 314.304688 C 221.328125 316.230469 227.808594 317.207031 234.199219 317.207031 C 248.441406 317.207031 261.894531 312.238281 272.054688 303.222656 C 282.972656 293.5625 289.707031 279.945312 291.566406 263.855469 C 294.210938 240.855469 285.339844 223.847656 274.34375 210.027344 C 293.710938 209.984375 312.664062 196.242188 322.660156 175.007812 C 328.851562 161.835938 330.875 147.304688 328.351562 134.074219 " fill-opacity="1" fill-rule="nonzero"/><path fill="#ffffff" d="M 241.617188 199.710938 C 229.933594 187.058594 224.074219 169.773438 211.710938 157.746094 C 205.597656 151.808594 197.980469 147.039062 189.8125 145.015625 C 189.277344 144.882812 179.371094 143.28125 179.371094 144.316406 C 179.371094 143.28125 169.457031 144.792969 168.921875 144.925781 C 160.738281 146.859375 153.078125 151.5625 146.910156 157.445312 C 134.449219 169.351562 128.445312 186.59375 116.660156 199.132812 C 100.027344 216.832031 80.007812 233.074219 82.976562 260.855469 C 86.175781 290.828125 111.5 304.589844 137.859375 296.953125 C 173.234375 286.691406 178.761719 288.460938 178.761719 288.460938 C 178.761719 288.460938 184.296875 286.746094 219.582031 297.332031 C 245.875 305.210938 271.320312 291.683594 274.765625 261.746094 C 277.96875 233.984375 258.089844 217.566406 241.617188 199.710938 " fill-opacity="1" fill-rule="nonzero"/><path fill="#ffffff" d="M 252.890625 97.511719 C 247.441406 122.023438 228.964844 138.488281 211.621094 134.289062 C 194.28125 130.085938 184.640625 106.792969 190.089844 82.28125 C 195.535156 57.769531 214.011719 41.292969 231.355469 45.507812 C 248.6875 49.707031 258.335938 72.988281 252.890625 97.511719 " fill-opacity="1" fill-rule="nonzero"/><path fill="#ffffff" d="M 168.1875 87.605469 C 170.65625 112.640625 158.195312 134.488281 140.363281 136.398438 C 122.542969 138.3125 106.085938 119.566406 103.632812 94.53125 C 101.175781 69.484375 113.625 47.640625 131.457031 45.730469 C 149.289062 43.816406 165.730469 62.570312 168.1875 87.605469 " fill-opacity="1" fill-rule="nonzero"/><path fill="#ffffff" d="M 103.585938 139.199219 C 112.859375 159.34375 108.398438 181.679688 93.636719 189.082031 C 78.875 196.488281 59.394531 186.171875 50.136719 166.027344 C 40.863281 145.882812 45.320312 123.546875 60.085938 116.132812 C 74.847656 108.730469 94.324219 119.058594 103.585938 139.199219 " fill-opacity="1" fill-rule="nonzero"/><path fill="#ffffff" d="M 254.257812 139.890625 C 244.816406 159.945312 249.085938 182.324219 263.785156 189.871094 C 278.480469 197.410156 298.046875 187.269531 307.484375 167.214844 C 316.921875 147.148438 312.65625 124.78125 297.945312 117.234375 C 283.261719 109.695312 263.683594 119.835938 254.257812 139.890625 " fill-opacity="1" fill-rule="nonzero"/></g></g></svg>